<svg width="51" height="55" viewBox="0 0 51 55" fill="none" xmlns="http://www.w3.org/2000/svg">
<path d="M37.4098 54.9999C34.0404 54.9999 30.6709 54.9999 27.3015 54.9999C27.3015 54.663 27.3015 54.4103 27.3015 54.1576C27.3015 38.1527 27.3015 22.232 27.3015 6.22708C27.3015 3.44728 28.8177 2.01526 31.5133 2.01526C36.3147 2.01526 41.1162 2.01526 45.9177 2.01526C48.529 2.01526 50.0453 3.53151 50.0453 6.14284C50.0453 7.49062 50.0453 8.8384 50.0453 10.1862C48.6975 10.1862 47.4339 10.1862 46.0862 10.1862C44.1487 10.1862 42.2113 10.1862 40.2739 10.1862C39.263 10.1862 38.6734 10.6074 38.6734 11.4497C38.6734 12.2921 39.263 12.7133 40.2739 12.7133C43.4748 12.7133 46.6758 12.7133 49.961 12.7133C49.961 15.2404 49.961 17.6832 49.961 20.2945C49.7083 20.2945 49.3714 20.2945 49.1187 20.2945C46.1704 20.2945 43.2221 20.2945 40.2739 20.2945C39.263 20.2945 38.6734 20.8 38.6734 21.5581C38.6734 22.3162 39.263 22.8216 40.2739 22.8216C43.4748 22.8216 46.6758 22.8216 49.961 22.8216C49.961 25.3487 49.961 27.7916 49.961 30.4029C49.7083 30.4029 49.4556 30.4029 49.1187 30.4029C46.0862 30.4029 43.1379 30.4029 40.1054 30.4029C39.1788 30.4029 38.5891 30.9926 38.5891 31.7507C38.6734 32.5088 39.1788 32.93 40.1054 32.93C43.0536 32.93 46.0862 32.93 49.0344 32.93C49.2871 32.93 49.6241 32.93 49.961 32.93C49.961 36.9733 49.961 40.8482 49.961 44.8916C49.7083 44.8916 49.4556 44.8916 49.1187 44.8916C46.1704 44.8916 43.1379 44.8916 40.1896 44.8916C38.3364 44.8916 37.3256 45.9024 37.3256 47.7556C37.4098 50.1142 37.4098 52.4728 37.4098 54.9999Z" fill="#01FF70"/>
<path d="M7.08472 46.1551C7.08472 44.0492 7.08472 42.0276 7.08472 39.8374C7.33743 39.8374 7.67437 39.8374 7.92708 39.8374C10.4542 39.8374 13.0655 39.8374 15.5926 39.8374C16.6034 39.8374 17.1931 39.332 17.1931 38.5739C17.1931 37.8157 16.6034 37.3103 15.5926 37.3103C12.8128 37.3103 9.94875 37.3103 7.08472 37.3103C7.08472 35.2044 7.08472 33.0985 7.08472 30.9926C7.84284 30.9926 8.60097 30.9926 9.3591 30.9926C11.465 30.9926 13.4867 30.9926 15.5926 30.9926C16.5192 30.9926 17.1088 30.4872 17.1088 29.729C17.1088 28.9709 16.5192 28.4655 15.5926 28.4655C12.8128 28.4655 9.94875 28.4655 7.08472 28.4655C7.33743 25.8542 8.51674 23.9167 10.5384 22.4005C11.7177 21.5581 13.0655 20.9685 14.5818 20.9685C17.9512 20.8842 21.3207 20.9685 24.7744 20.9685C24.7744 32.3404 24.7744 43.628 24.7744 55C18.962 55 13.0655 55 7.16895 55C7.16895 52.9783 7.16895 50.8724 7.16895 48.7665C7.42166 48.7665 7.67437 48.7665 8.01132 48.7665C10.6226 48.7665 13.1497 48.7665 15.7611 48.7665C16.7719 48.7665 17.4458 48.0083 17.1931 47.166C16.9404 46.4921 16.435 46.2394 15.7611 46.2394C13.234 46.2394 10.6226 46.2394 8.09555 46.2394C7.75861 46.1551 7.42166 46.1551 7.08472 46.1551Z" fill="#01FF70"/>
<path d="M10.1172 6.22715C10.033 5.8902 9.94876 5.80597 9.86452 5.63749C9.44334 4.54242 9.78029 3.53159 10.7911 3.02617C11.802 2.60499 12.8128 3.02617 13.3182 4.12124C13.9079 5.21631 14.3291 6.39562 14.9187 7.57493C15.0872 7.91188 15.4241 8.24882 15.7611 8.33306C16.7719 8.75424 17.867 9.09119 18.962 9.51237C20.1414 9.93355 20.6468 10.9444 20.3098 11.9552C19.8887 13.0503 18.8778 13.4715 17.6985 13.0503C16.1822 12.5449 14.666 11.9552 13.0655 11.3656C12.7286 11.2813 12.3074 11.2813 12.0547 11.3656C10.4542 11.7867 8.85369 12.2922 7.33743 12.7976C6.32659 13.0503 5.48423 12.7976 5.06305 12.0395C4.64187 11.3656 4.64187 10.439 5.23152 9.84931C5.56847 9.51237 5.98965 9.25966 6.49507 8.92271C5.6527 8.58577 4.81034 8.24882 3.96798 7.99611C2.78867 7.65917 1.9463 6.90104 1.52512 5.80597C1.10394 4.79513 0.598523 3.7843 0.177341 2.77346C-0.243841 1.67839 0.0931046 0.583314 1.10394 0.162132C2.11478 -0.25905 3.12561 0.162132 3.63103 1.17297C4.05221 2.01533 4.38916 2.94193 4.81034 3.86853C4.89458 4.12124 5.06305 4.37395 5.31576 4.45819C6.83201 5.04784 8.4325 5.6375 10.1172 6.22715Z" fill="#01FF70"/>
<path d="M39.9369 54.9157C39.9369 52.3886 39.9369 49.9458 39.9369 47.4187C43.3063 47.4187 46.5916 47.4187 49.961 47.4187C49.961 49.8616 49.961 52.3886 49.961 54.9157C46.6758 54.9157 43.3906 54.9157 39.9369 54.9157Z" fill="#01FF70"/>
</svg>
