<svg width="54" height="55" viewBox="0 0 54 55" fill="none" xmlns="http://www.w3.org/2000/svg">
<path d="M34.6853 0C35.8385 0.443547 36.9918 0.887094 38.145 1.28629C42.9353 2.97177 47.77 4.65724 52.5603 6.38708C52.7377 6.43143 52.9151 6.52014 53.1369 6.60885C48.524 19.6491 43.9554 32.6451 39.3426 45.6853C37.4353 45.02 35.5724 44.3547 33.7095 43.6894C33.1329 43.512 32.6006 43.2902 32.024 43.0684C31.891 43.0241 31.7136 42.8023 31.7136 42.6692C31.7136 40.1854 31.7136 37.7015 31.7136 35.2176C32.2902 34.9959 32.7337 35.0402 33.1329 35.5281C33.7982 36.2821 34.5079 36.9918 35.2176 37.7015C35.9272 38.4555 36.7256 38.2781 37.0805 37.3023C37.3466 36.5483 37.6127 35.7499 37.9232 34.9959C38.1006 34.5523 38.1006 34.1088 37.8345 33.7096C36.903 32.4233 36.9474 31.137 37.6571 29.762C37.9232 29.2297 38.0563 28.6088 38.3224 27.9878C39.2095 28.7862 40.0522 29.4959 40.895 30.2499C41.0724 30.383 41.2498 30.5604 41.4716 30.6491C42.0038 30.9152 42.5805 30.6935 42.8022 30.1168C43.1571 29.2297 43.5119 28.2983 43.7337 27.3669C43.8224 27.012 43.6893 26.5241 43.5119 26.1693C42.6692 24.7056 41.7377 23.2862 40.8506 21.8669C40.6732 21.6007 40.6288 21.3346 40.7619 21.0241C41.0724 20.1814 41.3385 19.3387 41.649 18.4959C41.8264 18.008 41.8264 17.6088 41.6046 17.1653C41.2498 16.5 40.9393 15.7903 40.5845 15.0806C40.2297 14.3709 39.7861 14.1935 39.0321 14.5483C38.3224 14.8588 37.5684 15.1693 36.9031 15.5685C36.5482 15.7903 36.2377 16.1008 36.0603 16.5C35.7055 17.387 35.4393 18.2741 35.0845 19.1612C35.0402 19.2943 34.9071 19.5161 34.774 19.5604C33.7539 19.9153 32.7781 20.2701 31.6692 20.6693C31.6692 19.5161 31.6692 18.4072 31.6692 17.3427C31.6692 16.4556 31.6692 15.5685 31.6692 14.6371C31.6692 13.6612 31.3144 12.8185 30.5603 12.2419C30.2498 12.0201 30.3386 11.8427 30.4273 11.5766C31.7136 7.89514 33.0442 4.2137 34.3305 0.576611C34.3748 0.399192 34.4192 0.221774 34.4635 0C34.5523 0 34.5966 0 34.6853 0ZM45.4192 12.2419C45.6409 11.5766 45.8627 11 46.0845 10.379C45.5079 10.1572 44.9756 9.97981 44.399 9.75803C44.1772 10.4234 43.9554 11 43.7337 11.6209C44.3546 11.8427 44.8425 12.0201 45.4192 12.2419ZM49.4554 11.5766C48.8788 11.3548 48.3466 11.1774 47.77 11C47.5482 11.6209 47.3264 12.2419 47.1046 12.8629C47.6812 13.0846 48.2135 13.2621 48.7901 13.4395C49.0562 12.8185 49.2337 12.1975 49.4554 11.5766ZM34.2418 6.20966C34.02 6.87498 33.7982 7.45159 33.5764 8.07256C34.1531 8.29433 34.6853 8.47175 35.2619 8.64917C35.4837 8.0282 35.7055 7.40724 35.9272 6.78627C35.3506 6.5645 34.8184 6.38708 34.2418 6.20966ZM36.9918 9.22578C37.5684 9.44755 38.1006 9.62497 38.6772 9.84674C38.899 9.18142 39.1208 8.60481 39.3426 7.98385C38.7659 7.76207 38.2337 7.58465 37.6571 7.40724C37.391 7.98385 37.2135 8.60481 36.9918 9.22578ZM42.7135 9.18142C42.0926 8.95965 41.5603 8.78223 41.028 8.60481C40.8063 9.27013 40.5845 9.84674 40.3627 10.4677C40.9393 10.6895 41.4716 10.8669 42.0482 11.0443C42.27 10.379 42.4917 9.80239 42.7135 9.18142Z" fill="#01FF70"/>
<path d="M0.0887094 13.5283C0.310483 13.5283 0.487902 13.5283 0.665321 13.5283C9.84674 13.5283 19.0725 13.5283 28.2539 13.5283C29.3628 13.5283 29.6733 13.8388 29.6733 14.9477C29.6733 27.8105 29.6733 40.7178 29.6733 53.5806C29.6733 54.6895 29.3628 55 28.2539 55C19.2943 55 10.3346 55 1.375 55C0.354838 55 0 54.6895 0 53.6693C0 40.4516 0 27.2339 0 14.0162C0.0887094 13.9275 0.0887094 13.7501 0.0887094 13.5283ZM14.3709 37.2581C19.7822 37.2581 24.2177 33 24.3064 27.4557C24.3951 22.2218 20.0483 17.6533 14.8145 17.5202C9.31449 17.3872 4.7016 21.6009 4.56853 26.9678C4.43547 32.6452 8.69352 37.0807 14.3709 37.2581ZM6.5645 47.1048C11.8427 47.1048 17.0322 47.1048 22.3104 47.1048C22.3104 46.4395 22.3104 45.8185 22.3104 45.1976C17.0322 45.1976 11.8427 45.1976 6.5645 45.1976C6.5645 45.8185 6.5645 46.4395 6.5645 47.1048ZM8.56046 49.1451C8.56046 49.8105 8.56046 50.4314 8.56046 51.0524C12.508 51.0524 16.4112 51.0524 20.3145 51.0524C20.3145 50.3871 20.3145 49.7661 20.3145 49.1451C16.4112 49.1451 12.508 49.1451 8.56046 49.1451ZM17.4314 43.1573C18.0967 43.1573 18.7177 43.1573 19.383 43.1573C19.383 42.5807 19.383 42.0484 19.383 41.5161C19.383 41.4274 19.2499 41.25 19.1612 41.2057C18.5846 41.1613 18.008 41.2057 17.387 41.2057C17.4314 41.871 17.4314 42.4919 17.4314 43.1573ZM9.53626 43.1573C10.2016 43.1573 10.8225 43.1573 11.4435 43.1573C11.4435 42.4919 11.4435 41.871 11.4435 41.25C10.7782 41.25 10.1572 41.25 9.53626 41.25C9.53626 41.871 9.53626 42.4919 9.53626 43.1573ZM15.3911 43.1573C15.3911 42.4919 15.3911 41.871 15.3911 41.25C14.7258 41.25 14.1048 41.25 13.4838 41.25C13.4838 41.9153 13.4838 42.5363 13.4838 43.1573C14.1492 43.1573 14.7701 43.1573 15.3911 43.1573Z" fill="#01FF70"/>
<path d="M24.3507 11.5766C18.5846 11.5766 12.8629 11.5766 7.00806 11.5766C7.22983 11.4879 7.36289 11.4436 7.49596 11.3992C12.5524 10.0686 17.6532 8.73792 22.754 7.36292C23.8628 7.0968 24.3507 7.45163 24.3507 8.60486C24.3507 9.58066 24.3507 10.5565 24.3507 11.5766Z" fill="#01FF70"/>
<path d="M39.0765 16.7662C39.5644 17.4316 39.6531 18.0969 39.3427 18.9396C37.8346 22.9759 36.4596 27.0565 34.9959 31.0928C34.8185 31.6251 34.7741 32.113 35.0846 32.6452C35.3064 33.0444 35.4394 33.488 35.6612 33.8428C35.9717 34.3307 35.883 34.7742 35.6169 35.2178C35.129 34.7299 34.5967 34.3307 34.1532 33.7984C33.6209 33.1775 32.9999 32.867 32.1572 33.0888C32.0241 33.1331 31.8467 33.1331 31.6249 33.1331C31.6249 32.7339 31.5806 32.3791 31.6249 32.0243C31.6249 31.8912 31.8024 31.7138 31.9354 31.6694C32.6451 31.4033 32.9556 30.9154 33.1774 30.2501C34.5523 26.2581 36.0161 22.3106 37.3467 18.3186C37.7459 17.4759 38.1894 16.9437 39.0765 16.7662Z" fill="#01FF70"/>
<path d="M39.6975 23.9071C40.3628 24.9716 41.0281 25.9474 41.6047 27.0119C41.7378 27.2337 41.516 27.6773 41.4273 28.1652C40.5846 27.4111 39.8306 26.7902 39.0765 26.1248C39.0322 26.0805 38.9878 25.9031 39.0322 25.8587C39.2539 25.1934 39.4314 24.6168 39.6975 23.9071Z" fill="#01FF70"/>
<path d="M31.7136 24.0402C31.7136 23.9515 31.6693 23.9515 31.6693 23.9072C31.6249 22.7983 31.6249 22.7983 32.6451 22.4435C33.0886 22.3104 33.4878 22.133 34.0644 21.9556C33.7983 22.6652 33.6209 23.2862 33.3547 23.8628C33.3104 23.9515 33.133 24.0402 33.0443 24.0402C32.6451 24.0402 32.2015 24.0402 31.7136 24.0402Z" fill="#01FF70"/>
<path d="M31.7136 26.0807C32.0241 26.0363 32.2902 26.0363 32.6451 25.9919C32.3346 26.8347 32.0685 27.6331 31.8023 28.4758C31.758 28.4758 31.758 28.4758 31.7136 28.4315C31.7136 27.6774 31.7136 26.879 31.7136 26.0807Z" fill="#01FF70"/>
<path d="M12.2419 29.629C12.1976 28.8306 12.1532 28.0766 12.1532 27.3669C12.1532 26.6572 12.1976 25.9476 12.2419 25.1492C13.7056 25.1492 15.1693 25.1492 16.6774 25.1492C16.6774 26.5685 16.6774 27.9435 16.6774 29.3185C16.6774 29.4072 16.4556 29.629 16.3669 29.629C14.9919 29.629 13.6613 29.629 12.2419 29.629Z" fill="#01FF70"/>
<path d="M18.7177 29.3185C18.7177 28.0322 18.7177 26.7902 18.7177 25.4596C19.2056 25.5483 19.6491 25.637 20.137 25.7257C20.5362 25.8144 20.9797 25.9031 21.3789 25.9918C22.266 26.2136 22.3104 26.2136 22.3104 27.1007C22.3991 28.5201 22.3991 28.5201 21.0241 28.8306C20.3144 29.008 19.5604 29.141 18.8064 29.2741C18.8064 29.3185 18.762 29.3185 18.7177 29.3185Z" fill="#01FF70"/>
<path d="M12.4636 31.6692C13.7943 31.6692 15.0806 31.6692 16.4112 31.6692C16.1894 32.7781 15.9233 33.8426 15.7015 34.9514C15.6572 35.0401 15.4797 35.2176 15.391 35.2176C14.7701 35.2619 14.1935 35.2619 13.5725 35.2176C13.4394 35.2176 13.262 35.1289 13.262 35.0401C12.9515 33.8869 12.7298 32.7781 12.4636 31.6692Z" fill="#01FF70"/>
<path d="M12.4636 23.1089C12.7298 21.9557 12.9515 20.8911 13.2177 19.7823C13.2177 19.6936 13.4394 19.6049 13.5281 19.6049C14.2378 19.6049 14.9031 19.6049 15.6572 19.6049C15.9233 20.8024 16.1451 21.9557 16.4112 23.1532C15.1249 23.1089 13.8386 23.1089 12.4636 23.1089Z" fill="#01FF70"/>
<path d="M10.2016 25.4153C10.2016 25.6371 10.2016 25.7701 10.2016 25.9032C10.2016 27.0564 10.2016 28.1653 10.2016 29.4072C9.004 29.1411 7.80642 28.8749 6.6532 28.6532C6.6532 27.8991 6.6532 27.2338 6.6532 26.5242C6.6532 26.3911 6.78626 26.2137 6.87497 26.1693C7.93948 25.8588 9.04835 25.6371 10.2016 25.4153Z" fill="#01FF70"/>
<path d="M11 20.359C10.8225 21.2905 10.6451 22.2219 10.4677 23.1534C10.4233 23.2864 10.2903 23.4195 10.1572 23.4638C9.27012 23.6413 8.33868 23.8187 7.40723 23.9961C7.71771 22.7542 9.62496 20.8026 11 20.359Z" fill="#01FF70"/>
<path d="M21.5564 30.7822C20.7137 32.4677 19.5161 33.6209 17.875 34.4637C18.0524 33.4435 18.2298 32.5121 18.4516 31.5806C18.4516 31.4919 18.629 31.3588 18.7177 31.3145C19.6048 31.1371 20.5363 30.9596 21.5564 30.7822Z" fill="#01FF70"/>
<path d="M17.875 20.2703C19.5605 21.113 20.7581 22.3106 21.5564 23.9517C20.5363 23.7743 19.6048 23.5969 18.6734 23.3751C18.5847 23.3751 18.4516 23.242 18.4516 23.1533C18.2298 22.2219 18.0524 21.2904 17.875 20.2703Z" fill="#01FF70"/>
<path d="M7.31848 30.7822C8.33864 30.9596 9.27009 31.1371 10.2015 31.3588C10.2902 31.3588 10.4233 31.5363 10.4677 31.625C10.6451 32.5564 10.8225 33.4879 10.9999 34.508C9.40315 33.6653 8.20558 32.4677 7.31848 30.7822Z" fill="#01FF70"/>
</svg>
