<svg width="48" height="55" viewBox="0 0 48 55" fill="none" xmlns="http://www.w3.org/2000/svg">
<path d="M41.6173 28.7509C40.3466 28.5921 39.0758 28.2744 37.6462 28.4332C32.5632 28.5921 28.7509 30.9747 26.2094 35.4224C25.8917 35.8989 25.7329 36.0578 25.0975 36.0578C23.6679 36.0578 22.2383 36.0578 20.9675 36.0578C19.6967 36.0578 18.9025 36.852 18.9025 37.9639C18.9025 39.0758 19.6967 39.87 20.9675 39.87C22.2383 39.87 23.3502 39.87 24.6209 39.87C24.6209 39.87 24.6209 39.87 24.7798 39.87C24.3032 43.2058 24.9386 46.2238 26.5271 49.2419C26.3682 49.2419 26.0505 49.2419 25.8917 49.2419C20.491 49.2419 15.0903 49.2419 9.68953 49.2419C5.08303 49.2419 1.27076 46.2238 0.31769 41.6173C0 40.982 0 40.3466 0 39.7112C0 29.704 0 19.6968 0 9.53069C0 4.12996 4.12996 0 9.53069 0C16.9964 0 24.6209 0 32.0866 0C37.4874 0 41.6173 4.12996 41.6173 9.53069C41.6173 15.7256 41.6173 22.0794 41.6173 28.2744C41.6173 28.5921 41.6173 28.7509 41.6173 28.7509ZM27.4801 9.53069C25.2563 9.53069 23.1913 9.53069 20.9675 9.53069C19.6967 9.53069 18.9025 10.3249 18.9025 11.4368C18.9025 12.5487 19.6967 13.343 20.9675 13.343C25.2563 13.343 29.5451 13.343 33.8339 13.343C35.1047 13.343 35.8989 12.5487 35.8989 11.4368C35.8989 10.3249 35.1047 9.53069 33.8339 9.53069C31.7689 9.53069 29.5451 9.53069 27.4801 9.53069ZM27.4801 22.7148C25.2563 22.7148 23.1913 22.7148 20.9675 22.7148C19.6967 22.7148 18.9025 23.509 18.9025 24.6209C18.9025 25.7329 19.6967 26.5271 20.9675 26.5271C25.2563 26.5271 29.5451 26.5271 33.8339 26.5271C35.1047 26.5271 35.8989 25.7329 35.8989 24.6209C35.8989 23.509 35.1047 22.7148 33.8339 22.7148C31.7689 22.7148 29.5451 22.7148 27.4801 22.7148ZM10.0072 10.8014C9.68953 10.6426 9.37184 10.1661 9.05415 9.84838C8.25993 9.05415 7.14801 8.89531 6.35379 9.68953C5.55957 10.4838 5.55957 11.5957 6.35379 12.3899C7.14801 13.1841 7.94224 14.1372 8.73646 14.9314C9.37184 15.8845 10.4838 15.8845 11.4368 15.0903C13.1841 13.343 14.9314 11.5957 16.5199 9.84838C16.9964 9.37184 17.1552 8.73646 16.9964 8.10108C16.6787 6.67148 14.9314 6.19495 13.8195 7.30686C12.5487 8.41877 11.278 9.68953 10.0072 10.8014ZM10.0072 24.1444C9.68953 23.8267 9.37184 23.509 9.05415 23.1913C8.25993 22.2383 7.14801 22.2383 6.35379 22.8736C5.55957 23.6679 5.55957 24.7798 6.35379 25.574C7.14801 26.3682 7.94224 27.3213 8.73646 28.1155C9.53069 29.0686 10.6426 29.0686 11.5957 28.2744C13.343 26.5271 15.0903 24.7798 16.6787 23.0325C17.1552 22.556 17.3141 21.9206 17.1552 21.2852C16.8375 19.8556 15.0903 19.3791 13.9783 20.491C12.5487 21.6029 11.278 22.8736 10.0072 24.1444ZM10.0072 37.3285C9.68953 37.0108 9.37184 36.5343 8.89531 36.2166C8.10108 35.4224 6.98917 35.4224 6.35379 36.0578C5.55957 36.6931 5.55957 37.8051 6.19495 38.5993C6.98917 39.5523 7.94224 40.5054 8.73646 41.4585C9.53069 42.2527 10.6426 42.2527 11.278 41.4585C13.0253 39.7112 14.9314 37.9639 16.5199 36.0578C17.4729 34.9459 16.8375 33.3574 15.4079 33.0397C14.7726 32.8809 14.1372 33.1986 13.6606 33.6751C12.5487 34.9459 11.278 36.2166 10.0072 37.3285Z" fill="#01FF70"/>
<path d="M47.3357 41.2996C47.3357 44.4765 46.5415 46.8592 45.1119 49.083C43.5235 51.4657 41.4585 53.213 39.0758 54.6426C38.2816 55.1191 37.6462 55.1191 36.852 54.6426C32.8809 52.2599 29.8628 49.083 28.7509 44.4765C27.7978 40.1877 29.2274 36.2166 32.5632 33.9927C35.7401 31.9278 39.0758 31.7689 42.2527 33.5162C45.5885 35.1047 47.1769 37.9639 47.3357 41.2996ZM41.6173 41.6173C41.6173 39.5523 39.87 37.805 37.8051 37.805C35.7401 37.805 33.9928 39.5523 33.9928 41.6173C33.9928 43.6823 35.7401 45.4296 37.8051 45.4296C39.87 45.4296 41.6173 43.6823 41.6173 41.6173Z" fill="#01FF70"/>
</svg>
