<svg width="56" height="55" viewBox="0 0 56 55" fill="none" xmlns="http://www.w3.org/2000/svg">
<path d="M28.1302 55C27.6719 55 27.2708 55 26.8125 55C25.724 54.7135 24.9792 53.9115 24.1771 53.1667C20.5677 49.5 16.901 45.8333 13.2344 42.1667C13.1198 42.0521 13.0052 41.9375 12.776 41.7083C14.2083 41.8229 15.526 41.3073 16.7865 42.0521C17.0729 42.224 17.3594 42.224 17.6458 42.3385C22.7448 44.1146 27.901 45.375 33.401 45.2031C36.724 45.0885 38.9583 42.7969 38.7865 39.5312C38.7865 39.3021 38.901 39.0156 39.0729 38.8438C40.6198 37.4688 41.1927 35.8073 40.7917 33.8021C40.7344 33.5156 40.7917 33.2865 40.9635 33.0573C41.9948 31.8542 42.3385 30.4792 42.1094 28.875C42.1094 28.7031 42.1667 28.4167 42.3385 28.3021C43.8854 26.7552 44.3437 24.5781 43.5417 22.6302C42.7396 20.6823 40.9062 19.4219 38.6719 19.4219C36.4375 19.4219 34.2031 19.4219 31.9687 19.4219C31.7969 19.4219 31.5677 19.4219 31.3958 19.4219C31.5677 18.5625 31.7969 17.7604 31.9687 16.9583C32.3125 15.0104 32.6562 13.0052 32.3698 11C31.9687 8.36458 29.9062 6.53125 27.3281 6.53125C24.6354 6.53125 22.5156 8.30729 22 10.9427C21.7135 12.5469 21.3698 14.151 20.9115 15.6979C20.3385 17.5312 19.4792 19.1927 17.7031 20.224C17.0729 20.5677 16.4427 20.9115 15.8125 21.2552C15.6406 21.3125 15.4687 21.3698 15.2969 21.3698C14.2656 21.3125 13.2344 21.1979 12.2031 21.1979C11.401 21.1979 10.599 21.4844 10.1406 22.1146C9.56771 22.9167 8.82292 22.974 8.02083 22.9167C7.73437 22.9167 7.44792 22.9167 7.16146 22.9167C5.67187 22.9167 4.52604 24.0625 4.52604 25.4948C4.52604 26.9271 5.67187 28.0729 7.16146 28.0729C7.79167 28.0729 8.36458 28.0729 8.99479 28.0729C8.99479 30.3646 8.99479 32.6562 8.99479 35.0052C8.19271 35.0052 7.39062 34.9479 6.58854 35.0052C6.1875 35.0625 5.90104 35.0052 5.61458 34.7188C4.35417 33.401 3.09375 32.1406 1.77604 30.8802C1.03125 29.9635 0.286458 29.2188 0 28.1302C0 27.6719 0 27.2708 0 26.8125C0.286458 25.724 1.03125 24.9792 1.77604 24.2344C9.28125 16.7865 16.7865 9.28125 24.2917 1.77604C25.0365 1.03125 25.7812 0.286458 26.8698 0C27.3281 0 27.7292 0 28.1875 0C29.276 0.286458 30.0208 1.08854 30.8229 1.83333C38.2708 9.28125 45.7187 16.7865 53.224 24.2344C54.026 24.9792 54.7708 25.7813 55.0573 26.8698C55.0573 27.2708 55.0573 27.6719 55.0573 28.0729C54.8281 29.1042 54.1406 29.9063 53.3958 30.651C45.8333 38.099 38.2708 45.6042 30.7656 53.1667C30.0208 53.9115 29.2187 54.7135 28.1302 55Z" fill="#01FF70"/>
<path d="M28.8749 21.0833C31.9686 21.0833 35.0051 21.0833 38.0415 21.0833C38.4999 21.0833 38.9582 21.0833 39.3593 21.1406C40.8488 21.3698 41.9947 22.5156 42.2238 24.0052C42.453 25.4948 41.7082 26.9271 40.3332 27.6719C40.2186 27.7291 40.1613 27.7864 39.9895 27.8437C40.5051 28.7604 40.677 29.6771 40.3905 30.651C40.104 31.625 39.4738 32.3125 38.5572 32.8281C39.2447 33.8594 39.4165 34.9479 39.0155 36.0937C38.6145 37.2396 37.7551 37.8698 36.6093 38.2708C37.0103 39.0729 37.1822 39.875 37.0103 40.7344C36.6665 42.3958 35.2915 43.4271 33.5728 43.5416C28.8176 43.7708 24.2915 42.8541 19.8228 41.3073C18.3905 40.8489 16.9582 40.3333 15.5259 39.875C15.354 39.8177 15.1249 39.875 14.8957 39.875C13.8645 39.875 12.8332 40.0469 11.802 39.875C11.0572 39.7604 10.7707 39.0729 10.6561 38.3281C9.51029 38.3281 8.36446 38.3281 7.27592 38.3281C6.58842 38.3281 6.18738 38.0416 6.18738 37.4687C6.18738 36.9531 6.58842 36.6094 7.21863 36.6094C8.36446 36.6094 9.453 36.6094 10.6561 36.6094C10.6561 33.1719 10.6561 29.7916 10.6561 26.2969C9.62488 26.2969 8.65092 26.2969 7.67696 26.2969C7.50509 26.2969 7.27592 26.2969 7.10404 26.2969C6.58842 26.2396 6.18738 25.8958 6.24467 25.4375C6.24467 24.9791 6.58842 24.6354 7.10404 24.6354C8.078 24.6354 9.10925 24.6354 10.0832 24.6354C10.2551 24.6354 10.427 24.6354 10.6561 24.6354C10.7134 24.4635 10.7134 24.2916 10.7707 24.1198C10.9999 23.776 11.229 23.2604 11.6301 23.1458C12.7759 22.7448 13.979 22.6875 15.1249 23.2031C15.2968 23.2604 15.5259 23.3177 15.6978 23.2604C16.7863 22.6875 17.8749 22.1146 18.9634 21.4844C20.7968 20.3385 21.828 18.5625 22.4582 16.6146C22.9738 15.0104 23.3176 13.2916 23.6613 11.6302C24.1197 9.28123 26.0103 7.90623 28.1874 8.47915C29.677 8.88019 30.7082 10.2552 30.7655 12.0885C30.8228 15.0104 30.3072 17.875 29.2186 20.5677C29.0468 20.5677 28.9895 20.7969 28.8749 21.0833ZM15.8697 31.5104C15.8697 33.5729 15.8697 35.5781 15.8697 37.6406C15.8697 37.9271 15.927 38.0989 16.2707 38.2135C18.2186 38.8437 20.2238 39.5312 22.1718 40.1614C25.8957 41.3646 29.677 41.8802 33.5728 41.7083C34.604 41.651 35.2915 40.9635 35.2915 39.9896C35.2915 39.0156 34.5468 38.3281 33.5155 38.2708C33.1145 38.2708 32.7134 38.2708 32.3124 38.2708C31.6249 38.2708 31.2238 37.9271 31.2811 37.4114C31.2811 36.8958 31.6822 36.5521 32.3124 36.5521C33.4009 36.5521 34.5468 36.5521 35.6353 36.5521C36.6665 36.5521 37.4113 35.8073 37.4113 34.8333C37.4113 33.8594 36.6665 33.1146 35.6353 33.1146C34.9478 33.1146 34.3176 33.1146 33.6301 33.1146C32.9426 33.1146 32.5415 32.7708 32.5415 32.2552C32.5415 31.7396 32.9426 31.3958 33.6301 31.3958C34.7186 31.3958 35.7499 31.3958 36.8384 31.3958C37.927 31.3958 38.6718 30.651 38.6718 29.6771C38.6718 28.7031 37.927 27.9583 36.8384 27.9583C36.0363 27.9583 35.2915 27.9583 34.4895 27.9583C33.802 27.9583 33.4009 27.6719 33.4009 27.0989C33.4009 26.526 33.802 26.2396 34.4895 26.2396C35.8645 26.2396 37.2395 26.2396 38.6145 26.2396C39.703 26.2396 40.4478 25.4375 40.3905 24.3489C40.3332 23.4323 39.5884 22.8021 38.5572 22.8021C34.9478 22.8021 31.3384 22.8021 27.729 22.8021C26.6405 22.8021 26.2968 22.2291 26.7551 21.2552C27.8436 19.1354 28.5311 16.9583 28.703 14.6094C28.8176 13.5208 28.8749 12.375 28.703 11.2291C28.5311 9.91144 27.1561 9.45311 26.0676 10.1406C25.552 10.4844 25.3228 11 25.2082 11.6302C24.7499 13.5208 24.4061 15.4687 23.7759 17.3021C22.9738 19.7083 21.5988 21.7135 19.3645 22.9739C18.2759 23.6041 17.1874 24.1771 16.0988 24.75C15.8124 24.9219 15.6978 25.0364 15.7551 25.3802C15.927 27.3854 15.8697 29.4479 15.8697 31.5104Z" fill="#01FF70"/>
</svg>
