<svg width="64" height="55" viewBox="0 0 64 55" fill="none" xmlns="http://www.w3.org/2000/svg">
<path d="M22.2446 30.1849C22.7389 31.1735 23.2333 31.9644 23.7276 32.8542C24.3208 34.0406 25.2106 34.8315 26.4958 35.227C26.6935 35.3258 26.8913 35.4247 26.9901 35.6224C27.781 37.9952 28.572 40.2691 29.3629 42.7407C28.9674 42.7407 28.572 42.7407 28.2754 42.7407C26.8913 42.7407 25.9026 43.7294 25.8037 45.1135C25.8037 46.6953 25.8037 48.1783 25.8037 49.7601C25.8037 51.1442 26.7924 52.1329 28.1765 52.1329C30.5493 52.1329 32.922 52.1329 35.2948 52.1329C36.6789 52.1329 37.6675 51.1442 37.6675 49.7601C37.6675 48.2772 37.6675 46.7942 37.6675 45.3112C37.6675 43.8282 36.6789 42.8396 35.0971 42.8396C34.8005 42.8396 34.5039 42.8396 34.1084 42.8396C34.2073 42.543 34.2073 42.3453 34.3061 42.1475C34.9982 40.0714 35.6902 38.0941 36.2834 36.0179C36.3823 35.6224 36.58 35.4247 36.9755 35.3258C38.1619 34.9304 39.0517 34.1395 39.6448 33.0519C40.1392 32.1622 40.6335 31.2724 41.1278 30.2837C42.7097 31.1735 44.1926 31.9644 45.6756 32.7554C46.5654 33.2497 47.4552 33.1508 48.0484 32.5576C48.345 32.261 48.5427 31.7667 48.6416 31.3712C48.8393 29.8883 48.9382 28.3064 49.037 26.7246C50.8166 26.7246 52.5962 26.7246 54.3757 26.7246C54.3757 26.9223 54.4746 27.12 54.4746 27.2189C54.4746 30.8769 54.4746 34.5349 54.4746 38.0941C54.4746 40.4668 52.4973 42.2464 50.1245 42.0487C49.7291 42.0487 49.2348 41.8509 48.8393 41.7521C46.9609 41.06 45.0824 40.368 43.204 39.6759C41.5233 39.0827 40.4358 39.8736 40.4358 41.6532C40.4358 45.8055 40.4358 50.0567 40.4358 54.2091C40.4358 54.4068 40.4358 54.7034 40.4358 55C34.6027 55 28.8686 55 23.0355 55C23.0355 54.8022 23.0355 54.5057 23.0355 54.2091C23.0355 50.0567 23.0355 45.9044 23.0355 41.7521C23.0355 39.7748 21.8491 38.9838 20.0696 39.6759C18.29 40.368 16.4116 40.9611 14.632 41.6532C11.5672 42.7407 8.89783 40.9611 8.89783 37.6986C8.89783 34.2383 8.89783 30.6792 8.89783 27.2189C8.89783 26.7246 9.09556 26.5269 9.58988 26.5269C10.974 26.5269 12.3581 26.5269 13.7422 26.5269C14.2365 26.5269 14.4343 26.6257 14.4343 27.12C14.5331 28.3064 14.632 29.5917 14.7309 30.7781C14.8297 32.7554 16.2138 33.4474 17.8945 32.5576C19.2787 31.7667 20.7616 30.9758 22.2446 30.1849Z" fill="#01FF70"/>
<path d="M21.8491 8.23681C21.948 7.64362 22.0469 7.05043 22.2446 6.55611C23.0355 4.67767 24.5185 3.39243 26.298 2.30491C30.5492 0.0310172 34.6027 0.624207 38.5573 3.1947C40.238 4.28221 40.5346 6.06178 40.7323 8.03908C34.405 7.05043 28.1765 7.1493 21.8491 8.23681Z" fill="#01FF70"/>
<path d="M52.7939 17.2336C52.2007 17.2336 51.7063 17.2336 51.1132 17.2336C51.1132 17.0358 51.1132 16.8381 51.1132 16.6404C51.1132 11.4994 51.1132 6.35841 51.1132 1.21743C51.1132 0.0310528 51.6075 -0.265542 52.695 0.228783C55.9575 1.61289 59.2201 2.997 62.4826 4.38111C62.8781 4.57884 63.3724 4.77657 63.3724 5.36976C63.3724 5.96295 62.977 6.16068 62.4826 6.35841C59.4178 7.64366 56.4519 8.9289 53.3871 10.2141C52.9916 10.4119 52.7939 10.6096 52.7939 11.0051C52.7939 12.8835 52.7939 14.6631 52.7939 16.5415C52.7939 16.6404 52.7939 16.937 52.7939 17.2336Z" fill="#01FF70"/>
<path d="M0 15.7505C0 11.7959 0 7.94018 0 3.88672C0.692055 3.98558 1.48298 3.98558 2.07617 4.18331C3.85574 4.87537 5.73417 5.56742 7.61261 6.35834C7.61261 7.34699 7.61261 8.43451 7.61261 9.42316C7.61261 10.6095 7.61261 11.7959 7.61261 12.8834C7.61261 13.0812 7.51374 13.3778 7.31601 13.3778C5.53644 14.0698 3.85574 14.7619 2.07617 15.3551C1.38411 15.6517 0.692055 15.6517 0 15.7505Z" fill="#01FF70"/>
<path d="M9.3922 5.36975C10.7763 5.36975 12.0616 5.27088 13.3468 5.36975C14.9286 5.46861 16.115 6.75386 16.3128 8.3357C16.4116 9.32435 16.4116 10.313 16.3128 11.3016C16.2139 12.7846 15.2252 13.8721 13.7423 14.1687C13.2479 14.2676 13.0502 14.4653 13.0502 14.9597C13.0502 15.6517 13.0502 16.3438 13.0502 17.1347C11.765 17.1347 10.5786 17.1347 9.29333 17.1347C9.3922 13.2789 9.3922 9.32435 9.3922 5.36975Z" fill="#01FF70"/>
<path d="M23.2333 16.5414C22.9367 16.5414 22.739 16.4426 22.6401 16.4426C21.5526 16.2448 20.8605 15.0585 21.1571 13.9709C21.1571 13.8721 21.3549 13.6744 21.4537 13.6744C22.5413 13.4766 23.7276 13.2789 24.914 13.0812C24.914 13.4766 24.914 13.7732 24.914 14.0698C25.0129 15.6517 24.8151 17.2335 25.1117 18.8153C25.7049 22.0779 28.9675 24.3518 32.1312 24.0552C35.6903 23.6597 38.3597 20.8915 38.4585 17.4312C38.4585 16.2448 38.4585 14.9596 38.4585 13.7732C38.4585 13.5755 38.4585 13.3778 38.4585 12.9823C39.7438 13.18 40.8313 13.3778 42.0177 13.5755C42.1165 13.5755 42.3143 13.8721 42.3143 13.9709C42.512 15.3551 41.8199 16.146 40.2381 16.3437C40.337 19.5074 39.2494 22.1767 36.5801 24.0552C35.0971 25.1427 33.3175 25.7359 31.4391 25.637C28.9675 25.5382 26.9902 24.5495 25.3095 22.7699C23.7276 21.0892 23.1344 18.9142 23.2333 16.5414Z" fill="#01FF70"/>
<path d="M31.6368 44.2236C32.7243 44.2236 33.7129 44.2236 34.8004 44.2236C35.7891 44.2236 36.1845 44.7179 36.1845 45.6077C36.1845 46.893 36.1845 48.1782 36.1845 49.4635C36.1845 50.3532 35.6902 50.8476 34.8004 50.8476C32.6254 50.8476 30.4504 50.8476 28.2753 50.8476C27.2867 50.8476 26.8912 50.3533 26.8912 49.3646C26.8912 48.0794 26.8912 46.893 26.8912 45.6077C26.8912 44.6191 27.2867 44.1248 28.3742 44.1248C29.5606 44.2236 30.5492 44.2236 31.6368 44.2236Z" fill="#01FF70"/>
<path d="M52.2007 24.7473C51.3109 24.7473 50.4211 24.7473 49.5313 24.7473C48.6415 24.7473 48.2461 24.253 48.1472 23.4621C48.1472 22.3746 48.1472 21.2871 48.1472 20.1996C48.1472 19.4086 48.6415 18.9143 49.5313 18.9143C51.0143 18.9143 52.4973 18.9143 53.9802 18.9143C55.2655 18.9143 56.1553 19.8041 56.1553 21.0893C56.1553 21.7814 56.1553 22.5723 56.1553 23.2644C56.1553 24.253 55.661 24.7473 54.6723 24.7473C53.8814 24.8462 53.0905 24.7473 52.2007 24.7473Z" fill="#01FF70"/>
<path d="M11.5671 24.7473C10.6774 24.7473 9.78758 24.7473 8.89779 24.7473C8.10687 24.7473 7.61255 24.253 7.61255 23.4621C7.61255 22.6712 7.61255 21.7814 7.61255 20.9905C7.71141 19.8041 8.6012 18.9143 9.78758 18.9143C11.2706 18.9143 12.7535 18.9143 14.2365 18.9143C15.1263 18.9143 15.5217 19.4086 15.5217 20.1996C15.5217 21.2871 15.5217 22.3746 15.5217 23.4621C15.5217 24.253 15.0274 24.7473 14.2365 24.7473C13.4456 24.8462 12.5558 24.7473 11.5671 24.7473Z" fill="#01FF70"/>
<path d="M43.3029 12.1914C35.5914 10.6095 27.8799 10.6095 20.1685 12.1914C20.1685 11.1039 21.0582 10.1152 22.3435 9.9175C24.0242 9.6209 25.7049 9.42317 27.4845 9.22544C32.0323 8.82998 36.4812 9.02771 40.9301 9.81863C42.3142 10.1152 43.204 10.9061 43.3029 12.1914Z" fill="#01FF70"/>
<path d="M28.6709 35.3259C29.6595 35.0293 30.5493 34.7327 31.4391 34.4362C31.6368 34.4362 31.8346 34.3373 31.9334 34.4362C32.8232 34.7327 33.8119 35.0293 34.7017 35.3259C34.7017 35.5237 34.6028 35.7214 34.6028 35.8203C33.9107 37.9953 33.2187 40.0715 32.5266 42.2465C32.4278 42.7408 32.1312 42.8397 31.7357 42.8397C31.3403 42.8397 31.0437 42.7408 30.8459 42.2465C30.1539 40.0715 29.4618 37.9953 28.7698 35.8203C28.7698 35.6225 28.7698 35.5237 28.6709 35.3259Z" fill="#01FF70"/>
<path d="M31.7357 32.1622C31.0437 31.4702 30.4505 30.877 29.8573 30.2838C28.8686 29.2951 27.7811 28.4054 26.7925 27.4167C26.5947 27.1201 26.6936 26.6258 26.5947 26.0326C30.055 28.3065 33.4164 28.3065 36.7778 26.1315C36.9756 26.9224 36.8767 27.3178 36.1846 27.911C34.8005 29.0974 33.6141 30.4815 32.23 31.7668C32.1312 31.7668 31.9334 31.9645 31.7357 32.1622Z" fill="#01FF70"/>
<path d="M31.7357 21.9792C29.7584 21.9792 28.0777 20.4962 27.6822 18.5189C27.5834 17.9257 27.7811 17.4314 28.3743 17.3325C28.8686 17.2336 29.2641 17.5302 29.3629 18.2223C29.6595 19.5075 30.5493 20.2985 31.6368 20.2985C32.8232 20.2985 33.713 19.5075 34.0096 18.3212C34.0096 18.2223 34.0096 18.2223 34.0096 18.1234C34.1085 17.5302 34.4051 17.3325 34.9982 17.4314C35.5914 17.5302 35.6903 17.9257 35.6903 18.42C35.5914 20.3973 33.8119 21.9792 31.7357 21.9792Z" fill="#01FF70"/>
<path d="M23.9253 29.5918C24.7162 29.4929 25.4083 29.2952 26.0015 29.2952C26.1992 29.2952 26.3969 29.2952 26.4958 29.394C27.6822 30.5804 28.8685 31.7668 30.0549 32.9532C27.781 34.2384 26.0015 33.843 25.1117 31.8657C24.7162 31.0747 24.3208 30.3827 23.9253 29.5918Z" fill="#01FF70"/>
<path d="M39.6449 29.5917C38.9528 30.7781 38.4585 31.8656 37.7664 32.7554C37.2721 33.4474 36.3823 33.744 35.4925 33.5463C34.8005 33.4474 34.1084 33.1508 33.3175 32.9531C33.713 32.5576 33.9107 32.2611 34.2073 31.9645C34.9982 31.1735 35.888 30.2838 36.6789 29.4928C36.9755 29.1962 37.2721 28.9985 37.7664 29.0974C38.2608 29.394 38.8539 29.4928 39.6449 29.5917Z" fill="#01FF70"/>
</svg>
