<svg width="57" height="55" viewBox="0 0 57 55" fill="none" xmlns="http://www.w3.org/2000/svg">
<path d="M56.1549 32.6247C55 32.6247 53.8451 32.6247 52.6903 32.6247C50.8137 32.6247 49.0814 32.6247 47.2047 32.6247C47.2047 32.336 47.2047 32.1916 47.2047 31.9029C47.2047 26.706 47.2047 21.5092 47.2047 16.168C47.2047 12.8478 45.7612 10.6824 42.5853 9.52756C36.6667 7.3622 30.6037 6.64042 24.3963 7.21785C20.643 7.50656 17.0341 8.3727 13.4252 9.67192C10.6824 10.6824 9.09449 12.9921 9.09449 15.8793C9.09449 21.2205 9.09449 26.5617 9.09449 31.9029C9.09449 32.0472 9.09449 32.336 9.09449 32.6247C8.95013 32.6247 8.80577 32.6247 8.80577 32.6247C6.06299 32.6247 3.17585 32.6247 0.433071 32.6247C0.288714 32.6247 0.288714 32.6247 0.144357 32.6247C0.144357 29.5932 0.144357 26.5617 0.144357 23.5302C0.288714 23.5302 0.433071 23.5302 0.577428 23.3858C5.34121 21.3648 6.78478 15.1575 3.32021 11.2598C2.30971 10.2493 1.29921 9.52756 0 9.23884C0 6.20735 0 3.0315 0 0C0.288714 0 0.577428 0 0.721785 0C13.4252 0 25.9843 0 38.5433 0C38.832 0 38.9764 0 39.2651 0C39.2651 0.288714 39.2651 0.433071 39.2651 0.721785C39.2651 2.30971 39.2651 3.75328 39.2651 5.34121C39.2651 5.91864 39.4095 6.49606 39.9869 6.64042C40.853 7.07349 41.8635 6.49606 41.8635 5.34121C41.8635 3.75328 41.8635 2.16535 41.8635 0.577428C41.8635 0.433071 41.8635 0.144357 41.8635 0C42.1522 0 42.2966 0 42.5853 0C46.916 0 51.1024 0 55.4331 0C55.7218 0 55.8661 0 56.1549 0C56.1549 3.0315 56.1549 6.20735 56.1549 9.23884C53.2677 10.2493 51.2467 13.1365 51.1024 16.3123C51.1024 19.4882 53.1234 22.3753 56.1549 23.5302C56.1549 26.5617 56.1549 29.5932 56.1549 32.6247Z" fill="#01FF70"/>
<path d="M28.0052 42.4409C23.0971 42.4409 18.0446 42.4409 13.1365 42.4409C11.9816 42.4409 11.5486 42.0078 11.5486 40.853C11.5486 32.4803 11.5486 24.2519 11.5486 15.8792C11.5486 14.0026 12.4147 12.7034 14.2913 12.126C23.3858 8.9501 32.4803 8.9501 41.5748 11.9816C43.7402 12.7034 44.4619 13.8582 44.4619 16.168C44.4619 24.3963 44.4619 32.4803 44.4619 40.7086C44.4619 42.0078 44.0289 42.4409 42.874 42.4409C37.9659 42.4409 33.0577 42.4409 28.0052 42.4409ZM28.1496 28.0052C31.7585 28.0052 35.5118 28.0052 39.1207 28.0052C40.2756 28.0052 40.853 27.5722 40.853 26.2729C40.853 23.0971 40.853 20.0656 40.853 16.8897C40.853 15.7349 40.4199 15.1575 39.1207 15.1575C31.7585 15.1575 24.3963 15.1575 17.0341 15.1575C15.8793 15.1575 15.3018 15.5905 15.3018 16.8897C15.3018 20.0656 15.3018 23.0971 15.3018 26.2729C15.3018 27.5722 15.7349 28.0052 17.0341 28.0052C20.7874 28.0052 24.3963 28.0052 28.1496 28.0052ZM17.4672 40.5643C19.6325 40.5643 21.2205 38.832 21.2205 36.6666C21.2205 34.6456 19.4882 32.9134 17.4672 32.9134C15.4462 32.9134 13.5696 34.6456 13.5696 36.811C13.5696 38.832 15.3018 40.5643 17.4672 40.5643ZM34.9344 36.6666C34.9344 38.832 36.6667 40.4199 38.832 40.4199C40.853 40.4199 42.5853 38.6876 42.5853 36.6666C42.5853 34.5013 40.853 32.769 38.832 32.769C36.6667 32.769 34.9344 34.5013 34.9344 36.6666ZM28.1496 37.9659C29.1601 37.9659 30.0262 37.9659 31.0367 37.9659C31.9029 37.9659 32.4803 37.3884 32.4803 36.6666C32.4803 35.9449 31.9029 35.3674 31.0367 35.3674C29.0157 35.3674 27.1391 35.3674 25.1181 35.3674C24.252 35.3674 23.6745 35.9449 23.6745 36.6666C23.6745 37.3884 24.252 37.9659 25.1181 37.9659C26.1286 37.9659 27.1391 37.9659 28.1496 37.9659Z" fill="#01FF70"/>
<path d="M18.0446 49.8033C24.8294 49.8033 31.4698 49.8033 38.1102 49.8033C37.5328 48.2153 36.811 46.7718 36.2336 45.0395C37.3884 45.0395 38.5433 45.0395 39.5538 45.0395C39.6981 45.0395 39.8425 45.1839 39.8425 45.3282C41.1417 48.5041 42.4409 51.6799 43.7401 55.0001C43.0183 55.0001 42.2966 55.0001 41.7191 55.0001C40.2756 55.0001 40.2756 55.0001 39.6981 53.7009C39.2651 52.5461 39.2651 52.5461 38.1102 52.5461C31.1811 52.5461 24.3963 52.5461 17.4672 52.5461C17.0341 52.5461 16.7454 52.6904 16.601 53.1235C16.4567 53.7009 16.168 54.134 16.0236 54.7114C16.0236 54.8558 15.7349 55.0001 15.5905 55.0001C14.58 55.0001 13.4252 55.0001 12.4147 55.0001C12.4147 54.7114 12.559 54.5671 12.559 54.4227C13.7139 51.3912 15.0131 48.5041 16.168 45.4726C16.3123 45.1839 16.4567 44.8951 16.8897 45.0395C17.9002 45.0395 18.7664 45.0395 19.9212 45.0395C19.3438 46.6274 18.7664 48.2153 18.0446 49.8033Z" fill="#01FF70"/>
<path d="M26.706 17.9003C26.706 20.3543 26.706 22.8084 26.706 25.2625C23.8189 25.2625 20.9318 25.2625 18.0446 25.2625C18.0446 22.8084 18.0446 20.3543 18.0446 17.9003C20.9318 17.9003 23.8189 17.9003 26.706 17.9003Z" fill="#01FF70"/>
<path d="M38.1103 25.4068C35.2231 25.4068 32.336 25.4068 29.4489 25.4068C29.4489 22.9528 29.4489 20.4987 29.4489 17.9003C32.336 17.9003 35.2231 17.9003 38.1103 17.9003C38.1103 20.4987 38.1103 22.9528 38.1103 25.4068Z" fill="#01FF70"/>
<path d="M18.622 36.6666C18.622 37.3884 18.0446 37.8214 17.4672 37.8214C16.7454 37.8214 16.168 37.244 16.3123 36.6666C16.3123 36.0891 16.8897 35.5117 17.4672 35.5117C18.1889 35.5117 18.622 35.9448 18.622 36.6666Z" fill="#01FF70"/>
<path d="M37.5328 36.6666C37.5328 35.9448 38.1102 35.5117 38.6877 35.5117C39.2651 35.5117 39.8425 36.0891 39.8425 36.6666C39.8425 37.3884 39.2651 37.8214 38.5433 37.8214C37.9659 37.8214 37.5328 37.244 37.5328 36.6666Z" fill="#01FF70"/>
</svg>
