<svg width="282" height="273" viewBox="0 0 282 273" fill="none" xmlns="http://www.w3.org/2000/svg">
<g clip-path="url(#clip0_166_45)">
<path d="M211.256 225.979C213.514 226.376 215.724 225.924 217.946 225.684C219.531 225.483 219.086 223.274 217.613 223.575C215.403 224.027 213.181 224.267 211.108 225.243C210.796 225.368 210.932 225.892 211.256 225.979Z" fill="black"/>
<path d="M199.427 225.73C201.773 225.802 204.343 226.074 206.777 225.821C208.05 225.745 207.941 223.835 206.668 223.912C204.322 223.839 201.788 224.204 199.354 224.456C198.606 224.395 198.678 225.668 199.427 225.73Z" fill="black"/>
<path d="M187.36 225.069C188.533 225.105 189.919 225.128 191.092 225.164C192.265 225.201 193.45 225.449 194.586 224.849C195.211 224.598 195.375 223.737 194.714 223.35C193.617 222.777 192.456 222.953 191.183 223.03C189.798 223.006 188.525 223.082 187.24 222.947C185.867 223.135 186.087 225.145 187.36 225.069Z" fill="black"/>
<path d="M174.906 225.07C175.979 225.218 177.04 225.155 178.001 225.204C179.174 225.24 180.247 225.388 181.32 225.537C182.717 225.773 183.121 223.513 181.836 223.377C179.59 223.192 176.695 222.833 174.734 223.909C174.334 224.359 174.37 224.995 174.906 225.07Z" fill="black"/>
<path d="M162.595 221.975C163.192 223.11 165.014 223.32 166.099 223.681C167.608 224.017 169.117 224.352 170.59 224.051C171.851 223.762 171.343 222.302 170.47 221.929C169.061 221.481 167.575 221.57 166.078 221.447C165.005 221.298 163.696 220.738 162.671 221.438C162.459 221.45 162.471 221.663 162.595 221.975Z" fill="black"/>
<path d="M149.356 221.277C151.714 221.562 153.972 221.959 156.254 222.781C157.776 223.328 158.604 221.043 156.982 220.608C154.6 219.899 152.23 219.402 149.772 219.23C148.487 219.094 147.959 221.042 149.356 221.277Z" fill="black"/>
<path d="M136.721 218.095C139.003 218.917 141.385 219.626 143.667 220.447C145.077 220.895 145.58 218.523 144.171 218.075C141.789 217.366 139.507 216.544 137.125 215.835C135.816 215.275 135.412 217.535 136.721 218.095Z" fill="black"/>
<path d="M122.656 212.231C124.962 213.477 127.356 214.398 129.739 215.107C131.036 215.455 131.351 213.52 130.054 213.172C127.684 212.675 125.502 211.741 123.32 210.807C122.435 210.221 121.771 211.645 122.656 212.231Z" fill="black"/>
<path d="M110.676 205.603C112.707 207.61 115.137 209.168 117.768 210.501C119.189 211.161 120.341 208.963 118.92 208.303C116.514 207.169 114.195 205.711 112.277 203.803C111.156 202.806 109.555 204.605 110.676 205.603Z" fill="black"/>
<path d="M98.2157 196.129C100.334 197.812 102.464 199.707 104.582 201.39C105.916 202.375 107.717 200.35 106.383 199.366C104.165 197.795 101.835 196.125 99.6164 194.554C98.6074 193.657 97.2066 195.231 98.2157 196.129Z" fill="black"/>
<path d="M87.8405 185.891C88.5373 186.914 89.5343 187.599 90.4313 188.397C91.4403 189.295 92.4494 190.193 93.4585 191.091C94.4796 192.2 96.1805 190.289 95.0593 189.291C93.2654 187.695 90.9109 185.6 88.5408 185.104C88.1044 184.917 87.6042 185.479 87.8405 185.891Z" fill="black"/>
<path d="M79.4145 174.365C80.9324 176.723 82.5623 179.18 84.2803 181.313C85.2014 182.536 87.1507 181.248 86.2296 180.025C84.4995 177.68 82.4573 175.46 80.6272 173.228C80.0666 172.729 79.054 173.642 79.4145 174.365Z" fill="black"/>
<path d="M73.5105 162.263C73.0585 163.674 73.9036 165.433 74.5004 166.568C75.2214 168.016 75.8423 169.575 77.0756 170.673C77.8605 171.371 79.1973 170.545 78.9248 169.497C78.416 168.037 77.3949 166.927 76.5739 165.592C75.9771 164.457 75.4562 162.785 74.3471 161.999C74.0107 161.7 73.6985 161.825 73.5105 162.263Z" fill="black"/>
<path d="M69.2917 149.846C69.4365 152.392 70.0057 154.914 70.9871 157.197C71.608 158.757 73.9937 157.656 73.1606 156.109C71.9911 154.262 71.334 152.066 70.9891 149.744C70.9288 148.683 69.2314 148.785 69.2917 149.846Z" fill="black"/>
<path d="M67.2827 136.977C67.6396 139.511 67.9966 142.045 68.3536 144.579C68.5501 146.164 70.9841 145.912 70.6874 144.439C70.3305 141.905 69.7613 139.384 69.4044 136.85C69.2199 135.477 67.0982 135.604 67.2827 136.977Z" fill="black"/>
<path d="M67.9232 122.034C67.6834 123.432 67.5436 124.718 67.3038 126.117C67.164 127.403 66.9242 128.801 67.1087 130.174C67.3933 131.435 69.0027 131.658 69.3546 130.359C69.7066 129.06 69.5221 127.687 69.5497 126.302C69.5774 124.916 69.505 123.643 69.4205 122.157C69.2601 121.209 67.975 121.073 67.9232 122.034Z" fill="black"/>
<path d="M71.6825 107.649C71.0183 109.073 70.4663 110.596 70.2385 112.207C69.8986 113.718 69.4587 115.341 69.9675 116.801C70.2521 118.062 71.9374 117.748 72.3014 116.661C72.6533 115.362 72.4568 113.777 72.6966 112.379C72.9364 110.98 73.1762 109.582 73.4161 108.184C73.4679 107.222 72.0465 106.562 71.6825 107.649Z" fill="black"/>
<path d="M75.0119 102.552C75.6761 101.128 76.4523 99.8038 77.1165 98.3799C77.5806 97.181 78.469 95.9566 78.3966 94.6834C78.3483 93.8345 77.4876 93.6732 76.8752 94.1357C75.8626 95.0481 75.5227 96.559 75.0587 97.758C74.4945 99.0694 74.0425 100.48 73.5905 101.892C73.0023 102.779 74.5358 103.538 75.0119 102.552Z" fill="black"/>
<path d="M81.0739 91.2225C82.2107 90.622 82.9749 89.0857 83.8753 88.0736C84.9759 86.8365 86.2007 85.9114 87.3013 84.6743C87.9016 83.9995 87.1806 82.5522 86.1439 83.0402C84.4827 83.7785 83.2821 85.1281 82.1936 86.5774C81.3052 87.8017 80.1166 89.3635 80.2011 90.8489C80.3253 91.1609 80.6616 91.4601 81.0739 91.2225Z" fill="black"/>
<path d="M91.2516 81.1371C92.5402 79.4629 93.953 78.1006 95.59 76.9379C96.9269 76.1125 95.5211 73.8545 94.1963 74.8921C92.3592 76.2798 90.8463 77.7545 89.4577 79.5411C88.6814 80.8653 90.3631 82.3615 91.2516 81.1371Z" fill="black"/>
<path d="M101.514 72.5372C102.851 71.7118 103.975 70.8992 105.312 70.0738C106.437 69.2611 107.786 68.648 108.686 67.6358C109.287 66.961 108.578 65.7259 107.641 66.1015C106.28 66.5024 105.267 67.4148 104.143 68.2275C102.918 69.1526 101.681 69.8655 100.456 70.7906C99.0074 71.5163 100.177 73.3626 101.514 72.5372Z" fill="black"/>
<path d="M113.057 65.8833C115.355 65.1069 117.977 64.4174 120.263 63.4287C121.512 62.928 120.979 61.0436 119.505 61.3448C117.096 62.0215 114.698 62.9105 112.188 63.6997C110.939 64.2004 111.596 66.3968 113.057 65.8833Z" fill="black"/>
<path d="M124.982 62.1877C127.78 60.8489 130.726 60.2465 133.709 60.2807C135.306 60.2914 135.161 57.7449 133.564 57.7342C130.369 57.7127 127.111 58.4403 124.213 59.8915C122.864 60.5047 123.533 62.9133 124.982 62.1877Z" fill="black"/>
<path d="M140.126 58.9379C141.511 58.9614 142.784 58.8851 144.157 58.6964C145.218 58.6328 147.051 59.0552 147.964 58.2553C148.476 57.9052 148.54 57.1561 148.092 56.7571C147.083 55.8594 145.085 56.2985 143.924 56.4745C142.339 56.676 141.078 56.9645 139.841 57.6774C139.017 58.1527 139.377 58.8763 140.126 58.9379Z" fill="black"/>
<path d="M152.428 60.0106C153.837 60.4585 155.347 60.7939 156.756 61.2418C158.053 61.5899 159.262 62.2627 160.623 61.8617C161.36 61.7111 161.512 60.6374 161.063 60.2384C160.054 59.3407 158.569 59.4297 157.272 59.0815C155.763 58.7461 154.365 58.5105 152.856 58.175C151.571 58.0391 151.343 59.6498 152.428 60.0106Z" fill="black"/>
<path d="M163.89 63.1565C165.572 64.6527 167.254 66.1489 169.036 67.5327C170.269 68.6299 171.958 66.5058 170.637 65.7333C168.755 64.462 166.973 63.0783 165.091 61.807C164.206 61.2212 162.993 62.3585 163.89 63.1565Z" fill="black"/>
<path d="M173.272 70.8986C175.19 72.8065 176.708 75.1643 177.501 77.8849C178.134 79.6568 180.844 78.6427 180.111 76.9832C178.982 73.9634 177.027 71.4189 174.573 69.4366C173.464 68.6514 172.263 70.0009 173.272 70.8986Z" fill="black"/>
<path d="M177.515 83.7396C175.614 85.8764 174.249 88.0875 172.797 90.6233C171.833 92.3845 174.787 93.8044 175.54 92.0559C176.668 89.4331 177.808 87.0225 178.288 84.2257C178.576 83.6761 177.915 83.2898 177.515 83.7396Z" fill="black"/>
<path d="M168.795 95.1217C167.234 95.7476 165.561 96.2737 163.999 96.8996C162.638 97.3006 160.741 97.6272 159.953 98.7391C159.664 99.2887 159.501 100.15 160.261 100.424C161.895 101.071 163.332 100.134 164.893 99.5077C166.554 98.7694 168.103 97.9313 169.64 96.881C170.453 96.1935 169.732 94.7462 168.795 95.1217Z" fill="black"/>
<path d="M155.882 100.154C152.551 99.6086 149.22 99.0629 145.989 98.4048C144.155 97.9823 143.588 101.104 145.409 101.314C149.052 101.735 152.347 101.644 155.93 101.003C156.354 100.978 156.318 100.341 155.882 100.154Z" fill="black"/>
<path d="M139.336 99.3358C137.826 99.0004 136.217 98.7775 134.72 98.6543C133.323 98.4186 131.577 97.6715 130.204 97.8602C128.831 98.049 128.603 99.6596 129.7 100.233C131.021 101.005 133.031 100.778 134.628 100.789C136.338 100.9 137.923 100.698 139.496 100.284C139.921 100.259 139.872 99.4101 139.336 99.3358Z" fill="black"/>
<path d="M124.067 96.631C122.745 95.8585 121.324 95.1984 119.903 94.5383C118.593 93.978 117.272 93.2054 115.875 92.9697C114.914 92.9209 113.926 94.2577 114.923 94.9432C116.144 95.8282 117.541 96.0639 118.95 96.5117C120.572 96.9469 122.093 97.4945 123.815 97.8172C124.351 97.8916 124.615 96.9175 124.067 96.631Z" fill="black"/>
<path d="M108.653 91.3797C106.398 89.1726 103.019 87.7781 100.276 86.3454C98.7429 85.5856 97.5025 88.1086 99.136 88.756C101.979 90.0762 105.07 92.0203 108.289 92.4662C108.713 92.4407 109.101 91.7787 108.653 91.3797Z" fill="black"/>
<path d="M95.2516 84.0914C93.2455 82.5081 91.1274 80.8252 89.0212 79.3544C87.3515 78.0704 85.6868 80.6189 87.4566 81.7904C89.6628 83.1487 91.969 84.3946 94.1752 85.7529C95.1601 86.2262 96.0364 84.7896 95.2516 84.0914Z" fill="black"/>
<path d="M83.5998 75.74C82.7029 74.942 81.906 74.0316 81.0091 73.2336C80.2242 72.5354 79.4153 71.4128 78.3303 71.0519C77.2453 70.6911 76.4449 71.5908 76.9296 72.6264C77.4142 73.662 78.5113 74.235 79.4082 75.033C80.3052 75.831 81.3022 76.5165 82.1991 77.3145C83.2082 78.2122 84.5089 76.7502 83.5998 75.74Z" fill="black"/>
<path d="M74.7425 67.86C73.3488 65.8142 71.755 63.9933 70.2613 62.06C68.8917 60.4386 66.4543 62.5011 68.0239 63.8975C69.8299 65.7057 71.6238 67.3016 73.5177 68.7851C74.1905 69.3836 75.2151 68.6834 74.7425 67.86Z" fill="black"/>
<path d="M65.4764 58.4075C64.7675 57.1724 63.7584 56.2747 63.0616 55.2518C62.2526 54.1291 61.7559 52.8813 60.8469 51.8711C59.8378 50.9734 58.513 52.011 58.8976 53.1591C59.1942 54.6318 60.4275 55.729 61.3366 56.7392C62.3577 57.8491 63.3667 58.7469 64.776 59.1947C65.2124 59.3815 65.8248 58.919 65.4764 58.4075Z" fill="black"/>
<path d="M58.8835 60.3996C58.1057 56.0811 57.5401 51.7499 57.3988 47.3933C56.8865 47.7434 56.2741 48.2059 55.7618 48.556C59.5773 50.1373 63.3808 51.5063 67.1964 53.0876C68.7178 53.6352 69.8701 51.4369 68.3487 50.8892C64.4331 49.4204 60.6297 48.0514 56.8141 46.4701C56.0534 46.1963 55.0167 46.6843 55.1771 47.6329C55.5426 52.189 56.2203 56.6199 57.3224 61.0255C57.3827 62.0865 59.0559 61.5604 58.8835 60.3996Z" fill="black"/>
<path d="M214.862 220.12C218.365 221.827 221.868 223.533 225.372 225.239C225.336 224.603 225.299 223.966 225.263 223.33C221.665 225.568 217.742 227.72 214.02 229.646C212.258 230.497 214.013 233.266 215.662 232.316C219.484 230.277 222.97 227.939 226.445 225.388C227.057 224.926 227.097 223.752 226.336 223.478C222.733 221.884 219.129 220.29 215.538 218.908C214.641 218.111 213.977 219.534 214.862 220.12Z" fill="black"/>
</g>
<defs>
<clipPath id="clip0_166_45">
<rect width="145.559" height="246.71" fill="white" transform="translate(0 108.75) rotate(-48.3419)"/>
</clipPath>
</defs>
</svg>
