<svg width="243" height="463" viewBox="0 0 243 463" fill="none" xmlns="http://www.w3.org/2000/svg">
<g clip-path="url(#clip0_166_373)">
<path d="M71.7761 452.312C72.9625 454.242 74.7421 455.578 76.3734 457.062C77.5597 458.102 78.8944 456.32 77.708 455.43C75.9285 454.094 74.2972 452.609 72.221 451.718C71.9244 451.57 71.6278 452.015 71.7761 452.312Z" fill="black"/>
<path d="M64.3613 443.405C65.8443 445.187 67.3272 447.265 69.1068 448.898C69.9966 449.788 71.3313 448.452 70.4415 447.562C68.9585 445.78 67.0306 444.147 65.2511 442.515C64.6579 441.772 63.7681 442.663 64.3613 443.405Z" fill="black"/>
<path d="M56.7981 434.053C57.5396 434.944 58.4294 435.983 59.1709 436.874C59.9124 437.764 60.5056 438.803 61.692 439.249C62.2852 439.546 63.0267 439.1 62.8784 438.358C62.5818 437.171 61.692 436.428 60.8022 435.538C59.9124 434.499 59.0226 433.608 58.2811 432.569C57.3913 431.678 56.0567 433.014 56.7981 434.053Z" fill="black"/>
<path d="M48.6417 424.85C49.2349 425.741 49.9764 426.483 50.5695 427.225C51.311 428.116 51.9042 429.006 52.4974 429.897C53.2389 431.085 55.1668 429.897 54.4253 428.858C53.0906 427.077 51.4593 424.702 49.3832 423.959C48.79 423.811 48.4934 424.405 48.6417 424.85Z" fill="black"/>
<path d="M43.0063 413.716C42.5615 414.904 43.5995 416.388 44.0444 417.428C44.7859 418.764 45.5274 420.1 46.7138 420.99C47.7519 421.732 48.4934 420.396 48.1968 419.506C47.6036 418.17 46.5655 417.131 45.6757 415.943C45.0825 415.052 44.6376 413.716 43.4512 413.42C43.3029 413.271 43.0063 413.42 43.0063 413.716Z" fill="black"/>
<path d="M34.8501 403.474C36.1848 405.403 37.3711 407.333 38.2609 409.56C38.8541 411.044 41.0786 410.154 40.3371 408.669C39.299 406.443 38.1126 404.364 36.6297 402.435C35.8882 401.247 33.9603 402.286 34.8501 403.474Z" fill="black"/>
<path d="M28.9182 391.895C29.8079 394.122 30.846 396.348 31.7358 398.575C32.329 399.911 34.4052 398.723 33.812 397.387C32.7739 395.161 31.8841 392.934 30.846 390.707C30.2528 389.371 28.325 390.559 28.9182 391.895Z" fill="black"/>
<path d="M24.0242 377.793C24.6174 380.316 25.5072 382.691 26.5453 384.918C27.1385 386.106 28.7698 385.066 28.1766 383.879C26.9902 381.801 26.2487 379.574 25.5072 377.347C25.3589 376.308 23.7276 376.754 24.0242 377.793Z" fill="black"/>
<path d="M21.0583 364.581C20.91 367.402 21.3549 370.222 22.0964 373.042C22.5413 374.527 24.9141 373.933 24.4692 372.449C23.7277 369.925 23.2828 367.253 23.4311 364.581C23.4311 363.097 21.0583 363.097 21.0583 364.581Z" fill="black"/>
<path d="M19.872 349.143C20.0203 351.815 20.0203 354.635 20.1686 357.307C20.3169 358.94 22.9862 358.94 22.8379 357.307C22.5413 354.635 22.2447 351.815 21.9481 349.143C21.7998 347.807 19.7237 347.658 19.872 349.143Z" fill="black"/>
<path d="M20.6135 334.744C20.3169 335.931 20.4652 337.119 20.4652 338.306C20.4652 339.642 20.4652 340.978 20.4652 342.314C20.4652 343.947 22.9862 343.947 22.8379 342.314C22.8379 339.939 22.8379 336.822 21.6516 334.744C21.355 334.15 20.7618 334.298 20.6135 334.744Z" fill="black"/>
<path d="M23.5794 320.938C22.8379 323.61 22.0964 326.431 21.6515 329.103C21.3549 330.587 23.5794 331.181 23.876 329.696C24.4692 326.876 24.7658 323.907 25.2107 321.087C25.2107 320.344 23.876 320.196 23.5794 320.938Z" fill="black"/>
<path d="M28.6215 308.617C27.2868 309.211 26.5453 310.992 26.1004 312.18C25.5072 313.664 24.7657 315.149 24.7657 316.782C24.7657 317.821 26.2487 318.266 26.8419 317.375C27.5834 316.039 27.7317 314.555 28.1766 313.071C28.6215 311.883 29.5113 310.399 29.363 309.063C29.2147 308.617 28.9181 308.469 28.6215 308.617Z" fill="black"/>
<path d="M34.8501 297.336C33.0705 299.117 31.5875 301.195 30.5495 303.422C29.808 304.906 32.1807 305.946 32.7739 304.313C33.5154 302.234 34.7018 300.156 36.1848 298.523C36.9263 297.633 35.7399 296.594 34.8501 297.336Z" fill="black"/>
<path d="M43.1547 287.39C41.5234 289.32 39.8921 291.249 38.2609 293.179C37.2228 294.367 39.0024 296 39.8921 294.812C41.5234 292.882 43.0064 290.804 44.6377 288.874C45.5275 287.835 44.0445 286.351 43.1547 287.39Z" fill="black"/>
<path d="M54.4253 277.889C53.2389 278.631 52.2008 279.374 51.0144 280.116C49.9764 280.858 48.79 281.6 47.9002 282.639C47.1587 283.679 48.0485 285.015 49.2349 284.421C50.4212 283.827 51.311 282.788 52.3491 281.897C53.3872 281.006 54.277 280.116 55.3151 279.077C55.9083 278.483 55.3151 277.444 54.4253 277.889Z" fill="black"/>
<path d="M67.6238 271.209C66.1409 271.655 64.6579 272.248 63.3232 273.139C61.9885 273.881 60.5056 274.624 59.7641 275.96C59.0226 276.999 60.3573 278.038 61.3953 277.592C62.5817 276.999 63.6198 275.811 64.8062 275.069C65.9926 274.327 67.179 273.584 68.3653 272.842C69.1068 272.397 68.5136 270.912 67.6238 271.209Z" fill="black"/>
<path d="M73.5557 270.467C75.0387 270.021 76.5217 269.725 78.0047 269.279C79.1911 268.834 80.674 268.685 81.5638 267.795C82.157 267.201 81.7121 266.459 80.9706 266.31C79.6359 266.162 78.3013 266.904 77.1149 267.349C75.7802 267.795 74.4455 268.389 73.1108 268.982C72.0728 269.131 72.3694 270.764 73.5557 270.467Z" fill="black"/>
<path d="M85.7161 267.498C86.9025 267.943 88.5338 267.498 89.8684 267.498C91.4997 267.498 92.9827 267.795 94.614 267.795C95.5038 267.795 96.0969 266.311 95.0589 265.865C93.4276 265.123 91.648 265.123 89.8684 265.271C88.3855 265.42 86.4576 265.568 85.4195 266.607C85.2712 266.904 85.4195 267.35 85.7161 267.498Z" fill="black"/>
<path d="M99.8044 268.389C101.881 268.24 103.808 268.389 105.736 268.834C107.219 269.279 107.961 266.756 106.33 266.459C104.105 266.014 102.029 265.865 99.8044 266.014C98.4697 266.162 98.3214 268.537 99.8044 268.389Z" fill="black"/>
<path d="M112.854 270.17C114.337 270.616 115.672 270.913 117.155 271.358C118.49 271.655 119.824 272.249 121.159 272.249C122.049 272.249 122.494 270.913 121.604 270.467C120.418 269.725 119.083 269.577 117.748 269.28C116.265 268.983 114.931 268.537 113.448 268.241C112.113 267.795 111.52 269.873 112.854 270.17Z" fill="black"/>
<path d="M125.312 274.475C127.388 275.663 129.612 277.147 131.837 278.186C133.023 278.78 134.061 277.147 132.875 276.257C130.799 274.921 128.574 273.733 126.35 272.397C125.312 271.803 124.125 273.733 125.312 274.475Z" fill="black"/>
<path d="M135.989 280.858C138.807 282.046 141.18 283.827 143.107 286.054C144.146 287.241 145.925 285.46 144.887 284.272C142.811 281.897 140.141 279.967 137.176 278.78C135.693 278.186 134.506 280.264 135.989 280.858Z" fill="black"/>
<path d="M148.15 289.765C149.039 290.804 149.929 291.695 150.967 292.585C151.709 293.328 152.598 294.961 153.785 295.109C154.378 295.257 154.971 294.812 154.971 294.218C154.971 292.882 153.34 291.695 152.45 290.953C151.264 289.913 150.226 289.171 148.891 288.726C148.15 288.429 147.853 289.32 148.15 289.765Z" fill="black"/>
<path d="M155.564 299.562C156.158 300.898 156.899 302.234 157.492 303.57C158.086 304.758 158.382 306.094 159.568 306.836C160.162 307.281 161.051 306.688 161.051 306.094C161.051 304.758 160.013 303.719 159.42 302.531C158.679 301.195 157.937 300.008 157.196 298.672C156.454 297.781 155.12 298.672 155.564 299.562Z" fill="black"/>
<path d="M160.755 310.25C160.755 312.477 160.755 314.704 160.903 316.931C160.903 318.563 163.572 318.415 163.276 316.931C162.979 314.704 162.831 312.477 162.534 310.25C162.386 309.211 160.755 309.063 160.755 310.25Z" fill="black"/>
<path d="M161.051 322.126C160.903 324.798 160.162 327.47 158.679 329.845C157.789 331.478 160.31 332.814 161.051 331.181C162.534 328.361 163.128 325.243 162.979 322.126C162.979 320.938 161.2 320.938 161.051 322.126Z" fill="black"/>
<path d="M154.526 333.853C151.709 333.853 149.188 334.298 146.37 334.892C144.442 335.337 145.332 338.455 147.111 337.861C149.781 336.97 152.302 336.228 154.675 334.744C155.268 334.595 155.119 333.853 154.526 333.853Z" fill="black"/>
<path d="M140.438 334.744C138.955 334.002 137.472 333.111 135.989 332.369C134.803 331.627 133.32 330.439 131.985 330.587C131.392 330.736 130.65 331.181 130.947 331.923C131.54 333.556 133.171 334.002 134.654 334.744C136.286 335.486 137.917 336.08 139.696 336.525C140.735 336.822 141.328 335.338 140.438 334.744Z" fill="black"/>
<path d="M128.129 328.658C126.35 325.837 124.57 323.017 122.939 320.196C122.049 318.563 119.38 320.196 120.418 321.681C122.494 324.65 124.718 327.025 127.536 329.251C127.981 329.548 128.426 328.955 128.129 328.658Z" fill="black"/>
<path d="M118.045 315.891C117.304 314.555 116.414 313.219 115.524 312.031C114.783 310.844 114.189 309.063 113.151 308.172C112.113 307.281 110.779 308.172 111.075 309.359C111.372 310.844 112.855 312.18 113.893 313.367C114.931 314.703 116.117 315.743 117.452 316.633C117.748 316.93 118.193 316.336 118.045 315.891Z" fill="black"/>
<path d="M109.889 302.828C109.592 301.344 109.147 299.859 108.702 298.375C108.257 297.039 107.961 295.554 107.219 294.367C106.626 293.625 104.995 293.773 105.143 294.961C105.291 296.445 106.033 297.633 106.626 298.969C107.368 300.453 107.961 301.937 108.851 303.422C109.295 303.867 110.037 303.422 109.889 302.828Z" fill="black"/>
<path d="M103.808 287.984C103.957 284.866 102.77 281.452 102.029 278.483C101.584 276.85 98.9146 277.592 99.5078 279.225C100.398 282.194 100.991 285.757 102.77 288.429C103.067 288.726 103.66 288.577 103.808 287.984Z" fill="black"/>
<path d="M100.398 273.287C100.249 270.764 100.101 268.092 99.8044 265.568C99.6561 263.49 96.6902 263.935 96.9868 266.013C97.4317 268.537 98.0249 271.061 98.4698 273.584C98.7663 274.475 100.398 274.326 100.398 273.287Z" fill="black"/>
<path d="M98.7663 259.037C98.7663 257.849 98.9146 256.661 98.9146 255.474C98.9146 254.435 99.2112 253.099 98.7663 252.06C98.3214 251.02 97.135 251.02 96.6901 252.06C96.2452 253.099 96.5418 254.286 96.5418 255.474C96.5418 256.661 96.6901 257.849 96.6901 259.037C96.8384 260.373 98.7663 260.373 98.7663 259.037Z" fill="black"/>
<path d="M98.9146 247.31C99.5078 244.935 99.8044 242.559 100.249 240.184C100.546 238.106 97.4317 237.661 97.4317 239.739C97.2834 242.263 97.2834 244.638 97.4317 247.013C97.4317 248.052 98.618 248.349 98.9146 247.31Z" fill="black"/>
<path d="M99.8044 234.395C100.249 233.059 100.249 231.723 100.546 230.535C100.842 229.348 101.436 228.012 101.436 226.824C101.436 225.488 99.8044 225.191 99.2112 226.23C98.4697 227.418 98.3214 228.902 98.3214 230.238C98.1731 231.723 98.1731 233.059 98.7663 234.395C98.9146 234.84 99.6561 234.84 99.8044 234.395Z" fill="black"/>
<path d="M94.0209 230.832C96.6902 227.418 99.5079 224.152 102.622 221.183C102.029 221.035 101.287 220.886 100.694 220.738C102.029 224.598 103.512 228.309 104.847 232.168C105.44 233.653 107.813 233.059 107.219 231.574C105.736 227.715 104.253 224.004 102.919 220.144C102.622 219.402 101.584 218.957 100.991 219.699C97.8766 222.965 95.059 226.379 92.5379 230.09C91.7964 230.832 93.2794 231.723 94.0209 230.832Z" fill="black"/>
<path d="M78.5979 450.976C79.636 454.687 80.6741 458.398 81.7122 462.11C82.1571 461.664 82.602 461.219 83.0469 460.774C79.0428 459.586 74.8905 458.102 71.0347 456.617C69.2552 455.875 68.3654 458.992 70.1449 459.586C74.149 461.07 78.153 462.11 82.3054 463C83.0469 463.149 83.9366 462.406 83.64 461.664C82.4537 457.953 81.2673 454.242 79.9326 450.679C79.9326 449.64 78.3013 449.937 78.5979 450.976Z" fill="black"/>
<path d="M254.182 201.143C234.904 208.268 218.443 190.752 201.537 184.962C201.092 184.814 200.647 184.666 200.054 184.517C214.735 178.728 227.934 166.852 236.09 154.086C236.832 153.047 235.349 151.711 234.459 152.75C228.972 160.321 222.15 167.001 214.587 172.345C207.617 177.243 200.35 180.064 192.787 183.033C187.597 182.587 182.555 183.33 177.216 184.666C167.576 187.189 159.124 188.97 149.336 185.853C133.468 180.806 119.973 170.266 102.622 173.681C95.0589 175.165 87.4957 178.579 79.6359 178.728C64.5095 170.266 53.0906 158.539 43.7479 143.843C38.7057 135.976 34.2568 127.811 29.9562 119.647C25.8038 111.779 21.3549 103.466 22.6896 94.411C22.9862 92.7781 20.6134 92.4812 20.3168 94.1141C18.5372 102.872 21.7998 111.185 25.6555 119.053C30.1045 127.811 34.7017 136.569 39.8921 144.882C46.4172 155.57 54.7219 166.407 64.9544 174.274C61.5436 172.345 58.281 169.97 54.8702 168.188C46.5655 163.883 38.7057 164.625 29.9562 167.298C20.4651 170.118 5.78363 174.274 1.0381 161.805C0.889804 161.36 0.148315 161.508 0.148315 162.102C0.741506 168.485 6.37682 172.79 12.457 173.681C21.6515 175.017 30.1045 169.821 39.0023 168.634C49.3832 167.149 56.6498 173.829 65.251 178.431C69.5517 180.806 73.8523 181.994 78.3012 182.142H78.4495C79.0427 182.439 79.4876 182.29 79.9325 182.142C82.8985 182.142 86.0127 181.697 89.2753 180.954C98.618 178.728 107.368 175.314 117.007 177.243C126.053 179.025 134.209 183.775 142.662 187.338C150.819 190.603 159.124 192.533 167.873 190.9C175.14 189.564 181.961 187.041 189.08 186.744C189.376 187.189 189.821 187.486 190.563 187.486C191.452 187.338 192.342 187.041 193.232 186.892C194.715 187.041 196.05 187.189 197.533 187.634C216.811 192.533 234.459 213.761 255.962 205.003C258.186 203.963 256.703 200.252 254.182 201.143Z" fill="black"/>
<path d="M23.7276 95.0048C28.6214 97.0831 34.405 97.8253 39.4472 99.0128C45.5274 100.349 51.6076 101.685 57.6878 103.021C69.5516 105.693 81.4154 108.513 93.2792 111.482C116.265 117.272 138.955 123.358 161.645 130.186C156.899 134.046 153.933 139.687 154.526 146.664C155.861 159.727 168.17 171.306 181.22 171.751C194.567 172.196 205.244 161.805 204.799 148.445C204.799 146.812 204.503 145.179 204.058 143.546C213.4 146.664 222.743 149.929 231.938 153.195C234.607 154.086 236.387 150.078 233.717 149.187C223.336 145.625 212.807 142.21 202.278 138.796C197.977 130.038 188.635 124.1 178.699 123.655C177.512 123.655 176.623 124.397 176.326 125.288C172.619 125.288 169.059 126.03 165.797 127.663C151.857 123.506 137.917 119.647 123.977 115.936C126.35 110.443 128.574 104.951 130.799 99.3097C152.45 105.248 174.695 110.146 196.939 112.521C197.977 112.67 199.016 111.631 198.571 110.443C191.452 95.3017 185.669 79.4181 179.44 63.9798C173.508 48.9869 167.428 34.1424 161.2 19.2979V19.1494C161.348 19.001 161.496 19.001 161.496 18.8525C170.394 22.4152 179.44 25.0872 188.931 26.7201C190.563 27.017 191.304 24.9388 190.118 23.8997C182.406 17.0712 177.067 7.8676 169.356 1.03913C168.911 0.148462 167.576 -0.148428 166.983 1.03913C164.462 6.23471 161.941 11.4303 159.42 16.6259C158.234 16.0321 156.602 16.6259 156.306 17.9619C139.548 25.2357 123.384 34.2908 107.071 42.7522C89.8684 51.8073 72.6659 60.714 55.4633 69.7692C54.1286 70.5114 53.832 72.4412 55.4633 73.1834C77.8563 82.6839 100.842 90.6999 124.422 97.38C125.163 97.5284 125.905 97.8253 126.646 97.9737C124.57 103.466 122.494 108.959 120.566 114.451C120.566 114.6 120.566 114.6 120.418 114.748C112.113 112.521 103.808 110.443 95.652 108.513C83.7882 105.693 71.9244 102.872 60.0605 100.349C53.9803 99.0128 47.9001 97.6768 41.8199 96.4893C36.1846 95.3017 29.8078 93.5204 24.0242 93.6688C23.2827 93.8173 23.1344 94.7079 23.7276 95.0048ZM135.989 86.8404C137.175 88.9186 138.213 90.9968 139.4 92.9266C140.29 94.5595 141.179 96.3408 142.218 97.9737C138.955 97.2315 135.841 96.3408 132.578 95.5986C133.616 92.7782 134.803 89.8093 135.989 86.8404ZM176.326 65.1674C182.554 79.715 189.376 94.1142 195.012 108.959C178.254 105.841 161.645 102.576 145.035 98.716C145.035 98.5675 145.035 98.4191 145.035 98.4191C144.294 96.044 142.662 93.9657 141.476 91.8875C140.141 89.5124 138.807 87.1372 137.472 84.9106C137.324 84.6137 137.175 84.6137 137.027 84.4652C139.993 77.043 142.811 69.6207 145.628 62.1985C150.967 74.9648 156.454 87.731 162.386 100.2C162.979 101.536 165.204 100.794 164.61 99.3097C158.975 85.9497 152.895 72.7381 146.518 59.6749C148.743 53.8856 150.819 47.9478 153.043 42.1584C162.238 62.7923 171.136 83.5746 180.923 103.912C181.516 105.099 183.444 104.357 182.851 103.169C173.953 81.9417 164.017 61.0109 154.675 40.0802C154.526 39.7833 154.378 39.6348 154.081 39.4864C155.861 34.7362 157.492 30.1344 159.272 25.3841C164.759 38.4473 170.542 51.8073 176.326 65.1674ZM142.959 53.5887C133.616 50.026 124.273 46.3149 115.079 42.7522C118.045 41.1193 121.159 39.6348 124.125 38.1504C124.125 38.7442 124.422 39.1895 125.163 39.3379C132.875 41.1193 139.548 44.3851 146.666 47.6509C145.628 50.026 144.739 52.4011 143.7 54.6278C143.849 54.1824 143.552 53.8856 142.959 53.5887ZM142.218 28.6499C145.925 29.8375 149.632 30.8766 153.34 32.0641C152.747 33.4001 152.153 34.7362 151.709 36.2206C146.815 34.2908 141.179 33.2517 135.989 32.2126C137.917 30.8766 139.993 29.689 142.218 28.6499ZM157.64 21.5245C156.602 24.0481 155.416 26.7201 154.378 29.2437C151.56 28.353 148.594 27.4623 145.777 26.5717C149.632 24.4934 153.34 22.2668 157.047 20.0401C157.196 20.6339 157.344 21.0792 157.64 21.5245ZM134.061 33.8455C139.252 35.6268 144.887 37.8535 150.374 38.7442C149.484 40.8224 148.594 43.0491 147.705 45.1273C141.328 40.9708 133.616 38.5957 126.35 36.9628C128.722 35.7753 131.095 34.4393 133.616 33.2517C133.616 33.5486 133.765 33.697 134.061 33.8455ZM168.615 3.71114C174.546 9.35205 178.847 16.329 184.334 22.4152C177.067 20.7823 169.949 18.5556 163.127 15.5867C165.055 11.5787 166.835 7.57071 168.615 3.71114ZM109.295 45.7211C110.333 45.1273 111.372 44.682 112.41 44.0882C112.41 44.5335 112.706 44.8304 113.299 45.1273C122.939 48.8384 132.43 52.4011 142.069 56.1122C142.662 56.4091 143.107 56.1122 143.552 55.8153C140.438 63.2376 137.472 70.6599 134.506 78.2305C125.312 74.6679 115.376 72.2927 105.885 69.4723C96.8384 66.8003 87.9405 64.2767 78.8944 61.7531C82.1569 60.1203 85.4195 58.3389 88.5337 56.706C88.2371 57.1514 88.2371 58.042 88.9786 58.1905C96.8384 61.1594 104.846 63.6829 112.855 66.3549C120.269 68.8785 127.833 71.699 135.544 73.4803C136.73 73.7772 137.324 71.8474 136.137 71.4021C128.426 67.9878 120.269 65.9096 112.261 63.2376C104.698 60.8625 97.135 58.4874 89.5718 56.2607H89.4235C92.2412 54.7762 95.2071 53.2918 98.0248 51.6589C98.1731 51.9558 98.3214 52.1042 98.7663 52.2527C111.668 56.706 124.57 61.4563 137.769 65.0189C139.103 65.3158 139.696 63.0892 138.51 62.6438C126.201 57.8936 113.299 54.1825 100.694 50.3229C103.363 48.8384 106.329 47.2055 109.295 45.7211ZM126.646 94.1142C104.105 87.8795 82.1569 80.1603 60.5054 71.2536C65.5476 68.5816 70.738 65.9096 75.7801 63.2376C75.9284 63.386 76.0767 63.5345 76.3733 63.6829C86.3092 66.8003 96.2452 69.7692 106.181 72.7381C115.227 75.4101 124.273 78.6759 133.468 80.4572C132.578 82.8323 131.54 85.3559 130.65 87.731C120.269 83.5746 109.295 80.7541 98.618 77.3399C88.2371 74.0741 78.0046 70.8083 67.6237 67.8394C66.5856 67.5425 65.9925 69.4723 67.0305 69.7692C77.708 73.4803 88.3854 77.043 99.2112 80.4572C109.295 83.723 119.38 87.5826 129.76 90.1061C129.167 91.5906 128.722 92.9266 128.129 94.411C127.536 94.2626 127.091 94.2626 126.646 94.1142ZM177.661 127.663C177.809 127.811 178.106 127.811 178.254 127.811C179.737 128.108 181.368 128.405 182.851 128.85C182.554 129.593 182.258 130.335 181.961 131.225C181.665 132.116 181.368 133.007 181.665 133.897C179.144 133.897 176.623 134.788 174.546 136.569C173.657 136.866 172.915 137.312 172.174 137.757C171.729 136.421 170.691 135.233 169.801 134.046C168.911 133.007 168.021 131.671 166.835 130.78C166.835 130.78 166.835 130.78 166.983 130.78C170.246 128.999 173.953 128.257 177.661 127.663ZM185.372 155.422C180.478 157.797 174.398 156.313 171.58 151.414C169.208 146.961 170.987 142.062 174.991 139.687C175.436 139.835 176.029 139.835 176.623 139.538C181.072 137.015 187.3 137.163 189.821 142.507C192.342 147.257 190.266 153.195 185.372 155.422ZM163.721 133.007C164.462 134.491 165.945 135.679 166.983 136.718C168.021 137.757 169.059 138.648 170.394 139.241C168.318 141.32 166.983 144.289 167.132 147.406C164.61 148.445 161.793 149.336 159.568 150.82C159.272 150.078 159.123 149.484 158.975 148.742C157.344 142.804 159.123 137.015 163.721 133.007ZM160.903 154.086C161.051 154.086 161.051 154.086 161.2 154.086C163.424 153.492 165.649 152.305 167.725 151.266C167.725 151.414 167.873 151.711 167.873 151.859C170.246 157.352 175.881 160.469 181.516 160.172C181.516 161.063 181.368 161.954 181.368 162.993C181.368 164.329 181.072 165.665 181.368 167.001C181.516 167.298 181.665 167.594 181.961 167.891C181.813 167.891 181.813 167.891 181.665 167.891C173.063 167.594 165.055 161.805 160.903 154.086ZM184.482 167.446C184.482 167.298 184.631 167.298 184.631 167.149C185.52 164.774 185.076 161.805 185.224 159.282C185.817 159.133 186.41 158.836 186.855 158.688C191.156 156.61 193.825 152.453 194.418 148C195.16 148 195.901 147.851 196.643 147.851C197.829 147.851 199.016 147.851 200.054 147.406C200.202 147.406 200.35 147.257 200.499 147.109C201.685 157.5 194.567 166.258 184.482 167.446ZM200.054 144.585C198.867 144.289 197.829 144.437 196.643 144.437C195.901 144.437 195.16 144.437 194.418 144.585C194.122 142.953 193.677 141.468 192.787 139.984C191.007 137.015 187.893 135.085 184.631 134.343C185.372 133.155 185.669 131.374 185.965 130.038C192.49 132.561 198.126 137.312 200.054 144.585Z" fill="black"/>
<path d="M30.401 156.906C28.6215 151.859 19.2787 135.679 12.3087 142.952C5.19041 150.375 24.0242 159.133 28.6215 160.914C30.5493 161.657 31.884 158.985 30.401 157.945C30.5493 157.649 30.5493 157.203 30.401 156.906ZM15.1264 148.296C16.0161 145.031 17.2025 144.14 18.6855 145.624C19.2787 146.07 19.8719 146.515 20.4651 147.109C21.5032 148 22.393 149.187 23.2827 150.226C24.7657 152.156 25.9521 154.234 26.9902 156.461C25.3589 155.719 23.8759 154.977 22.393 154.086C20.6134 153.047 15.8679 150.375 15.1264 148.296Z" fill="black"/>
<path d="M14.8298 134.491C15.1264 134.936 15.2747 135.382 15.5713 135.827C16.4611 137.163 18.5372 135.975 17.944 134.491C16.0162 129.592 9.93596 117.42 3.11426 123.803C1.0381 125.733 1.0381 128.85 2.96597 130.78C5.93192 133.749 10.3809 132.71 13.7917 134.936C14.2366 135.085 14.8298 134.788 14.8298 134.491ZM5.19043 126.623C6.97001 122.615 11.2706 127.811 12.3087 129.592C13.0502 130.928 13.6434 132.264 14.3849 133.6C13.0502 132.264 11.5672 131.671 9.93596 131.077C7.85979 130.483 4.00405 129.295 5.19043 126.623Z" fill="black"/>
<path d="M220.815 187.338C220.667 187.932 220.964 188.525 221.705 188.674C225.413 188.971 248.25 194.166 245.878 184.22C245.136 180.955 241.429 179.767 238.463 180.064C232.531 180.806 226.599 184.369 220.964 186.299C220.519 186.447 220.519 187.041 220.815 187.338ZM239.501 182.142C239.797 184.22 239.946 186.447 240.242 188.525C239.204 188.525 238.166 188.525 237.128 188.377C235.645 188.228 234.31 187.932 232.827 187.783C230.158 187.338 227.489 187.041 224.819 186.596C226.747 186.002 228.675 185.556 230.603 184.963C232.086 184.517 238.018 181.4 239.501 182.142Z" fill="black"/>
</g>
<defs>
<clipPath id="clip0_166_373">
<rect width="257" height="463" fill="white"/>
</clipPath>
</defs>
</svg>
