<svg width="679" height="417" viewBox="0 0 679 417" fill="none" xmlns="http://www.w3.org/2000/svg">
<g clip-path="url(#clip0_166_8520)">
<path d="M679 407.071H0V417H679V407.071Z" fill="#01FF70"/>
<path fill-rule="evenodd" clip-rule="evenodd" d="M85.1296 360.568V362.351V377.031V378.219V380.595V404.78V412.927L88.1002 416.915H79.7825H67.221H56.357L58.7335 412.927H58.8184V381.189L57.2057 376.862H62.8924H61.11H58.9032C58.394 370.497 52.962 365.321 46.5115 365.321C39.8912 365.321 34.5441 370.412 34.0349 376.862H31.8281H29.9609H35.6475L34.0349 381.189V412.927H34.1197L37.0055 416.915H25.7171H13.6649H5.34712L7.72362 412.927V404.78V380.595V378.219V377.031V362.351V360.568V355.392V354.713L0.848741 349.367H0.594116V349.112V348.773H7.63874V343.681V342.239V341.051V340.202H85.0447V341.051V342.239V343.681V348.858H92.1742V349.028V349.367H91.8347L85.0447 354.713V355.392V360.568H85.1296Z" fill="#01FF70"/>
<path fill-rule="evenodd" clip-rule="evenodd" d="M87.2515 371.855V380.171V380.85V381.529H87.7607V395.361V396.294V401.471V402.404V414.794V416.406V417H178.322V416.406V414.794V402.404V401.471V396.294V395.361V381.529H179.341V380.85V380.171V371.855V370.752H178.068V363.029V344.19V343.002V326.115V324.927V290.39H179.85V288.098H176.2V284.704H174.927V283.686H174.588L173.145 281.14L171.617 278.424L170.174 281.14L168.731 283.686H168.392V284.704H147.003V288.098H143.354V290.39H145.391V324.927V326.115V327.049H136.479L135.036 316.272L134.697 313.386V298.027H137.073V296.16H134.697V294.123H132.66V296.16H130.283V298.027H132.66V313.047L132.235 316.272L130.792 327.049H120.777V326.115V324.927V290.39H122.559V288.098H118.91V284.704H97.9457V283.686H97.6062L96.1634 281.14L94.7205 278.424L93.1927 281.14L91.8347 283.686H91.4104V284.704H89.7129V288.098H86.0632V290.39H88.1002V324.927V326.115V343.002V344.19V363.029V370.752H87.1666V371.855H87.2515ZM120.862 330.358H130.962V336.723L130.368 337.741L126.888 343.172H120.862V343.002V330.358ZM136.564 330.358H145.476V342.918V343.087H140.638L137.243 337.656L136.564 336.638V330.358ZM122.475 358.107C122.814 352.676 126.973 348.433 132.32 348.009C126.973 348.433 122.729 352.761 122.475 358.107ZM133.933 348.009C136.224 348.179 138.261 349.027 139.874 350.385C138.261 349.112 136.224 348.179 133.933 348.009ZM172.636 343.851H150.823V342.918V327.219H172.636V342.918V343.851ZM164.827 329.934C165.591 329.934 166.27 330.358 166.27 330.952V342.154H163.384V330.952C163.384 330.358 163.978 329.934 164.827 329.934ZM159.225 329.934C159.989 329.934 160.668 330.358 160.668 330.952V342.154H157.783V330.952C157.783 330.358 158.377 329.934 159.225 329.934ZM168.052 349.367H171.023V346.397H168.052V349.367ZM152.605 349.367H155.576V346.397H152.605V349.367ZM107.621 329.934C108.385 329.934 109.064 330.358 109.064 330.952V342.154H106.179V330.952C106.179 330.358 106.773 329.934 107.621 329.934ZM101.935 329.934C102.699 329.934 103.293 330.358 103.293 330.952V342.154H100.492V330.952C100.492 330.358 101.171 329.934 101.935 329.934ZM110.847 349.367H113.817V346.397H110.847V349.367ZM95.3995 349.367H98.3701V346.397H95.3995V349.367ZM172.89 414.794H170.853V394.937C170.853 388.827 161.857 383.905 161.857 383.905C161.857 383.905 152.86 388.911 152.86 394.937V414.794H149.889V402.404V401.471V396.294V395.361V381.529H172.805V395.361V396.294V401.471V402.404V414.794H172.89ZM144.542 414.794H142.25V394.937C142.25 388.827 133.254 383.905 133.254 383.905C133.254 383.905 124.257 388.911 124.257 394.937V414.794H121.711V402.404V401.471V396.294V395.361V381.529H144.542V395.361V396.294V401.471V402.404V414.794ZM116.109 414.794H113.563V394.937C113.563 388.827 104.566 383.905 104.566 383.905C104.566 383.905 95.5692 388.911 95.5692 394.937V414.794H93.3625V402.404V401.471V396.294V395.361V381.529H116.109V395.361V396.294V401.471V402.404V414.794Z" fill="#01FF70"/>
<path fill-rule="evenodd" clip-rule="evenodd" d="M465.03 411.654H466.558L455.185 389.675C449.243 383.99 441.095 380.51 432.183 380.51C424.035 380.51 416.651 383.48 410.965 388.233L398.828 411.654H401.034V417H372.431V411.654H376.166L399.761 366.084V359.211H404.769L413.087 335.28V334.771H413.256L415.633 327.982H414.699V321.618H417.33V320.43H413.426V313.556H419.367C423.781 278.764 425.903 219.023 426.582 199.844H426.412V198.317H426.667L426.751 194.668H425.733V188.473H428.449V180.836H431.589V170.059H432.608V160.215H433.796V170.059H434.899V180.836H437.955V188.473H440.756V194.668H439.652L439.822 198.317H439.992V199.844H439.907C440.247 210.621 441.01 234.382 442.538 259.416L442.623 259.67L442.538 259.755C443.472 274.86 444.575 290.305 445.933 303.543C446.273 307.192 446.782 310.416 447.037 313.556H453.063V320.43H449.158V321.618H451.705V327.982H451.111L453.487 334.771L461.975 359.211H464.606V365.575L465.115 365.32L489.05 411.569H493.548V416.915H464.945V411.654H465.03ZM406.891 357.683L414.529 353.27L410.116 348.943L406.891 357.683ZM411.134 345.378L417.924 340.966L414.105 337.147L411.134 345.378ZM415.124 334.092L420.131 330.952L417.161 328.407L415.124 334.092ZM449.498 327.982H449.243L446.358 330.698L451.365 333.668L449.498 327.982ZM452.723 337.147L449.158 340.796L455.269 344.615L452.723 337.147ZM456.712 348.603L451.874 353.186L459.938 357.853L456.712 348.603ZM432.353 194.753L430.571 196.28L428.788 194.753H432.353ZM430.062 196.789L427.94 198.487L428.109 195.092L430.062 196.789ZM428.958 198.402L430.486 197.129L431.844 198.402H428.958ZM430.995 196.704L432.523 195.516V195.601V195.686V196.026V196.11V196.535V196.62V197.129V197.298V198.062L430.995 196.704ZM432.523 200.099L430.231 202.475L427.855 200.014H432.438V200.099H432.523ZM429.637 202.984L427.77 205.021L427.855 200.947L429.637 202.984ZM427.77 206.039L430.146 203.578L432.353 206.039H427.77ZM430.741 202.899L432.523 201.032V204.851L430.741 202.899ZM432.523 207.566L430.146 209.943L427.94 207.482L432.523 207.566ZM429.467 210.452L427.515 212.573L427.685 208.245L429.467 210.452ZM427.43 213.592L430.062 211.046L432.268 213.676L427.43 213.592ZM430.571 210.452L432.523 208.5V212.743L430.571 210.452ZM432.523 215.289L430.062 217.665L427.685 215.119H432.523V215.289ZM429.383 218.259L427.176 220.38V219.956L427.346 216.052L429.383 218.259ZM427.346 221.229L429.892 218.853L432.099 221.229H427.346ZM430.401 218.259L432.523 216.307V220.55L430.401 218.259ZM432.523 223.181L430.062 225.387L427.346 222.671H432.353L432.523 222.756V223.181ZM429.383 225.896L426.921 228.018L427.176 223.605L429.383 225.896ZM426.921 228.951L429.892 226.49L432.268 228.951H426.921ZM430.401 225.896L432.523 224.199V225.981V226.32V226.83V227.084V227.678V228.018L430.401 225.896ZM433.966 222.926L434.22 222.587H439.228L436.682 225.302L433.966 222.926ZM432.523 230.394L429.637 232.77L427.176 230.309L432.523 230.394ZM429.043 233.364L426.582 235.485L426.751 231.073L429.043 233.364ZM426.412 236.419L429.552 233.873L432.099 236.588H426.412V236.419ZM430.231 233.364L432.438 231.412V231.836V232.43V232.94V233.703V234.212V234.976V235.57V235.655L430.231 233.364ZM432.268 238.116L429.383 240.577L426.836 237.946H432.268V238.116ZM428.873 241.086L426.242 243.462L426.412 238.625L428.873 241.086ZM426.412 244.141L429.383 241.68L431.844 244.141H426.412ZM430.062 241.086L432.353 239.049V239.474V239.813V240.916V241.341L432.268 242.529V242.868V243.208L430.062 241.086ZM426.582 237.946L426.327 238.625L426.412 237.946H426.582ZM432.014 245.584L429.298 247.96L426.921 245.584H432.014ZM428.619 248.554L425.733 251.099L425.988 246.008L428.619 248.554ZM426.327 251.778L429.298 249.063L432.099 251.778H426.327ZM429.892 248.469L432.268 246.432L432.183 247.705V247.96V249.572V249.742L432.099 250.675L429.892 248.469ZM431.589 253.221L428.958 255.427L426.751 253.221H431.589ZM428.194 256.191L425.309 258.567L425.648 253.56L428.194 256.191ZM425.733 259.416L428.788 256.785L431.25 259.416H425.733ZM429.637 256.191L432.014 254.07V255.088L431.844 258.482L429.637 256.191ZM431.759 260.858L428.873 263.234L426.582 260.858H431.759ZM428.194 263.828L424.884 266.714L425.224 260.858L428.194 263.828ZM425.988 266.968L428.873 264.592L431.25 266.968H425.988ZM429.637 263.828L431.759 262.131V262.471L431.674 262.81V264.338V264.762L431.589 265.95L429.637 263.828ZM431.08 268.411L428.364 270.617L426.242 268.411H431.08ZM427.6 271.381L424.29 274.181L424.714 268.496L427.6 271.381ZM425.309 274.606L428.364 272.06L430.91 274.606H425.309ZM429.128 271.381L431.504 269.259L431.42 270.108V270.702L431.25 273.587L429.128 271.381ZM430.571 276.048L427.685 278.424L425.393 276.048H430.571ZM426.921 279.018L423.866 281.479L424.29 276.133L426.921 279.018ZM424.375 282.243L427.6 279.782L429.892 282.243H424.375ZM428.279 279.018L431.165 276.812C431.08 278.424 430.995 280.121 430.825 281.734L428.279 279.018ZM430.316 283.686L427.43 285.892L425.224 283.686H430.316ZM426.751 286.571L423.187 289.371C423.356 287.589 423.526 285.637 423.611 283.686H423.951L426.751 286.571ZM424.29 289.795L427.346 287.25L429.722 289.795H424.29ZM428.194 286.656L430.741 284.619C430.656 286.146 430.571 287.589 430.401 289.032L428.194 286.656ZM429.128 291.238L426.667 293.275L424.799 291.238H429.128ZM425.818 293.954L422.508 296.499C422.762 294.802 422.847 293.02 422.932 291.238H423.272L425.818 293.954ZM422.932 297.518L426.412 294.632L429.213 297.518H422.932ZM427.261 294.038L430.231 291.662C430.062 293.275 429.977 295.142 429.807 296.669L427.261 294.038ZM429.298 298.96L425.988 301.506L423.611 298.96H429.298ZM425.224 302.1L421.998 304.816H421.744C421.914 302.949 422.083 300.997 422.253 299.045L425.224 302.1ZM423.526 304.816L425.903 302.864L427.685 304.816H423.526ZM426.751 302.27L429.637 299.979C429.383 301.591 429.298 303.203 429.128 304.646L426.751 302.27ZM428.704 306.258L425.054 309.228L422.253 306.258H428.704ZM424.29 309.822L420.895 312.538C421.065 310.756 421.319 308.889 421.489 306.937L424.29 309.822ZM420.98 313.641L424.799 310.671L427.346 313.386V313.471L427.261 313.726H420.98V313.641ZM425.648 309.907L428.619 307.531C428.279 309.228 428.109 310.756 427.77 312.113L425.648 309.907ZM434.305 194.753L436.173 196.28L437.87 194.753H434.305ZM436.682 196.789L438.464 198.232L438.379 195.177L436.682 196.789ZM437.615 198.402L436.173 197.129L434.73 198.402H437.615ZM435.663 196.704L434.051 195.262V195.601V195.686V196.026V196.11V196.535V196.62V197.129V197.298V198.232L435.663 196.704ZM433.966 199.929L436.427 202.39L438.549 200.014V199.929H433.966ZM436.936 202.984L438.634 204.766L438.549 201.202L436.936 202.984ZM438.719 205.869L436.512 203.493L434.136 205.954H438.634V205.869H438.719ZM435.918 202.899L433.966 200.863V205.106L435.918 202.899ZM434.136 207.482L436.597 209.943L438.634 207.482H434.136ZM437.106 210.452L438.889 212.234L438.804 208.5L437.106 210.452ZM438.973 213.337L436.682 211.046L434.475 213.676H438.973V213.337ZM436.088 210.452L433.966 208.33V213.082L436.088 210.452ZM433.966 215.119L436.682 217.665L438.973 215.119H433.966ZM437.276 218.259L439.228 220.041L439.058 216.222L437.276 218.259ZM439.228 221.229L436.767 218.853L434.645 221.229H439.228ZM436.173 218.259L433.966 216.137V220.72L436.173 218.259ZM437.276 225.896L439.568 227.848L439.398 223.69L437.276 225.896ZM439.652 228.866L436.767 226.49L434.305 228.951L439.652 228.866ZM436.173 225.896L433.966 224.029V225.981V226.32V226.83V227.084V227.678V228.018V228.103L436.173 225.896ZM434.136 230.309L437.106 232.77L439.568 230.309H434.136ZM437.615 233.364L439.907 235.316L439.652 231.327L437.615 233.364ZM439.907 236.249L437.106 233.873L434.56 236.588H439.992L439.907 236.249ZM436.512 233.364L434.051 231.242V231.836V232.43V232.94V233.703V234.212V234.976V235.57V235.825L436.512 233.364ZM434.136 237.946L437.191 240.577L439.822 237.946H434.136ZM437.87 241.086L440.247 243.208L439.992 238.88L437.87 241.086ZM440.331 244.141L437.361 241.68L434.899 244.141H440.331ZM436.682 241.086L434.136 238.795V239.474V239.813V240.916V241.341L434.22 242.529V242.868V243.377L436.682 241.086ZM434.73 245.584L437.276 247.96L439.652 245.584H434.73ZM438.04 248.554L440.671 250.93L440.416 246.262L438.04 248.554ZM440.416 251.778L437.446 249.063L434.645 251.778H440.416ZM436.767 248.469L434.22 246.178L434.305 247.705V247.96V249.572V249.742L434.39 250.845L436.767 248.469ZM435.069 253.221L437.7 255.427L439.907 253.221H435.069ZM438.464 256.191L441.01 258.313L440.756 253.815L438.464 256.191ZM440.926 259.416L437.955 256.785L435.324 259.416H440.926ZM437.021 256.191L434.305 253.9L434.475 255.003L434.56 258.652L437.021 256.191ZM434.984 260.858L437.7 263.234L440.077 260.858H434.984ZM438.464 263.828L441.52 266.544L441.18 261.113L438.464 263.828ZM440.671 266.968L437.87 264.592L435.494 266.968H440.671ZM437.021 263.828L434.645 261.877V262.386L434.73 262.725V264.253V264.677L434.815 266.12L437.021 263.828ZM435.663 268.411L438.21 270.617L440.501 268.411H435.663ZM438.973 271.381L442.029 273.927L441.689 268.581L438.973 271.381ZM441.435 274.606L438.464 272.06L435.833 274.606H441.435ZM437.615 271.381L434.984 269.09L435.069 270.108V270.702L435.154 273.842L437.615 271.381ZM436.088 276.048L439.058 278.424L441.18 276.048H436.088ZM439.822 279.018L442.538 281.394L442.199 276.472L439.822 279.018ZM442.199 282.243L439.143 279.782L436.767 282.243H442.199ZM438.294 279.018L435.324 276.557C435.409 278.424 435.578 280.206 435.663 281.988L438.294 279.018ZM436.257 283.686L439.143 285.892L441.35 283.686H436.257ZM439.992 286.571L443.302 289.201C443.047 287.334 442.963 285.552 442.878 283.686H442.793L439.992 286.571ZM442.453 289.795L439.228 287.25L436.936 289.795H442.453ZM438.464 286.656L435.663 284.364C435.748 286.062 435.918 287.674 436.003 289.286L438.464 286.656ZM437.615 291.238L440.077 293.275L441.944 291.238H437.615ZM440.926 293.954L443.896 296.33C443.726 294.632 443.557 292.935 443.472 291.238H443.387L440.926 293.954ZM443.726 297.518L440.077 294.632L437.446 297.518H443.726ZM439.398 294.038L436.173 291.323C436.257 293.275 436.512 295.142 436.597 297.008L439.398 294.038ZM437.446 298.96L440.586 301.506L443.047 298.96H437.446ZM441.435 302.1L444.745 304.816C444.49 303.034 444.405 301.167 444.151 299.3L441.435 302.1ZM443.047 304.816L440.756 302.864L438.889 304.816H443.047ZM439.992 302.27L436.936 299.809C437.106 301.506 437.276 303.288 437.531 304.816L439.992 302.27ZM437.955 306.258L441.605 309.228L444.405 306.258H437.955ZM442.453 309.822L445.509 312.283C445.339 310.586 445.084 308.889 444.915 307.192L442.453 309.822ZM445.594 313.641L441.859 310.671L439.058 313.641L439.143 313.726H445.594V313.641ZM440.926 309.907L437.87 307.361C438.125 309.228 438.379 310.925 438.719 312.368L440.926 309.907ZM416.142 334.771H424.545L420.98 331.801L416.142 334.771ZM424.714 327.982L421.065 330.358L418.434 327.982H424.714ZM421.914 331.122L426.836 327.982H427.515L426.582 334.771H426.242L421.914 331.122ZM445.509 331.462L441.944 334.771H451.195L445.509 331.462ZM441.605 327.982L445.339 330.189L447.631 327.982H441.605ZM444.49 330.952L439.228 327.982L440.331 334.771L444.49 330.952ZM412.068 346.651H423.781L419.113 342.069L412.068 346.651ZM425.139 336.214L419.028 340.202L415.039 336.214H425.139ZM420.301 341.305L426.157 337.571L424.799 345.888L420.301 341.305ZM447.97 341.899L443.217 346.651H455.694L447.97 341.899ZM441.774 336.214L447.97 340.032L451.79 336.214H441.774ZM446.867 341.135L440.671 337.317L441.944 345.378L442.029 345.973L446.867 341.135ZM450.686 354.374L445.679 359.295H458.664L450.686 354.374ZM443.472 348.094L450.601 352.422L455.015 348.094H443.472ZM449.328 353.695L442.623 349.621L444.066 358.701L449.328 353.695ZM407.57 359.211H420.725L415.633 354.289L407.57 359.211ZM422.932 348.094L415.887 352.422L411.389 348.094H422.932ZM416.991 353.695L424.205 349.367L422.677 359.041L416.991 353.695ZM446.867 373.637V376.013C447.376 376.267 447.885 376.437 448.395 376.607L446.867 373.637ZM446.273 375.758V372.449L445.254 370.582V375.419L446.273 375.758ZM444.575 375.164V369.309L443.981 368.121H443.642V374.825L444.575 375.164ZM442.963 374.57V368.121H442.029V374.4L442.963 374.57ZM441.35 374.316V368.121H440.331V373.976L441.35 374.316ZM439.652 373.891V368.121H438.634V373.806L439.652 373.891ZM438.125 373.637V368.121H437.106V373.467L438.125 373.637ZM436.512 373.382V368.121H435.494V373.297L436.512 373.382ZM434.984 373.297V368.121H433.966V373.212L434.984 373.297ZM433.287 373.212V368.121H432.268V373.212H433.287ZM431.674 373.212V368.121H430.741V373.212H431.674ZM430.062 373.212V368.121H429.043V373.297L430.062 373.212ZM428.364 373.382V368.121H427.346V373.467L428.364 373.382ZM426.836 373.552V368.121H425.818V373.637L426.836 373.552ZM425.224 373.806V368.121H424.205V373.976L425.224 373.806ZM423.611 374.061V368.121H422.677V374.4L423.611 374.061ZM421.998 374.485V368.121H421.319L420.98 368.63V374.825L421.998 374.485ZM420.301 374.994V369.988L419.367 371.855V375.334L420.301 374.994ZM469.019 409.872L472.923 404.865L464.521 401.131L469.019 409.872ZM474.366 403.253L478.186 398.501H463.842L474.366 403.253ZM479.713 399.943L476.403 404.186L483.533 407.241L479.713 399.943ZM474.96 405.799L470.377 411.569H485.74L485.061 410.211L474.96 405.799ZM461.975 396.294L466.303 393.239L459.089 390.693L461.975 396.294ZM468.086 392.051L472.16 389.251H460.532L468.086 392.051ZM474.366 389.59L469.953 392.645L477.337 395.276L474.366 389.59ZM468.086 393.833L463.502 397.058H476.997L468.086 393.833ZM459.089 387.808H471.82L463.502 384.838L459.089 387.808ZM457.306 387.214L461.635 384.159L454.336 381.529L457.306 387.214ZM463.502 382.971L467.831 380.001H455.354L463.502 382.971ZM469.613 380.595L465.285 383.565L472.499 386.196L469.613 380.595ZM452.893 378.643H468.595L467.152 375.843H451.45L452.893 378.643ZM396.112 410.042L392.122 404.95L400.78 401.216L396.112 410.042ZM390.68 403.253L386.945 398.501H401.289L390.68 403.253ZM385.587 400.028L388.727 404.186L381.853 407.156L385.587 400.028ZM390.17 405.799L394.838 411.569H379.646L380.325 410.126L390.17 405.799ZM403.241 396.294L398.828 393.154L406.212 390.524L403.241 396.294ZM396.96 392.051L392.971 389.251H404.599L396.96 392.051ZM390.934 389.675L395.263 392.645L388.048 395.276L390.934 389.675ZM396.96 393.833L401.628 397.058H388.048L396.96 393.833ZM406.042 387.808H393.311L401.628 384.838L406.042 387.808ZM466.388 374.485H450.686L447.461 368.121H463.163L466.388 374.485ZM407.824 387.299L403.411 384.244L410.965 381.614L407.824 387.299ZM401.628 382.971L397.3 380.001H409.692L401.628 382.971ZM395.602 380.68L399.931 383.65L392.801 386.196L395.602 380.68ZM412.408 378.643H396.621L398.064 375.843H413.85L412.408 378.643ZM414.529 374.485H398.828L402.138 368.121H417.84L414.529 374.485ZM428.534 332.14H438.379L442.538 359.211H424.205L426.327 345.378L428.534 332.14ZM438.125 330.698H428.704L429.128 327.982H437.615L438.125 330.698ZM418.773 375.504V373.043L417.161 376.182C417.585 375.843 418.179 375.758 418.773 375.504ZM451.62 382.886L450.771 381.274C445.254 378.049 438.973 376.267 432.099 376.267C425.818 376.267 419.877 377.88 414.784 380.595L414.02 382.123C419.367 379.153 425.563 377.286 432.099 377.286C439.398 377.286 445.933 379.322 451.62 382.886Z" fill="#01FF70"/>
<path fill-rule="evenodd" clip-rule="evenodd" d="M293.752 352.762V358.108H294.431V359.126H294.177C313.359 371.261 302.579 374.995 304.871 377.456C301.221 377.371 297.487 377.371 293.752 377.456H282.464C283.907 374.825 272.788 371.346 292.649 359.126H292.394V358.108H293.073V353.101C292.904 353.101 292.734 353.101 292.649 353.101C291.8 353.101 291.036 352.592 290.782 351.743C291.121 352.083 291.631 352.253 292.14 352.253C293.243 352.253 294.262 351.319 294.262 350.216C294.262 349.961 294.177 349.707 294.092 349.537C294.516 349.877 294.771 350.471 294.771 350.98C294.771 351.743 294.347 352.422 293.752 352.762ZM256.238 382.038C256.492 381.614 254.625 381.02 257.935 379.068C261.076 381.105 259.378 381.699 259.718 382.038C258.614 382.038 257.426 382.038 256.238 382.038ZM256.068 385.518H259.718V383.566H256.068V385.518ZM256.747 385.093H257.426V383.99H256.747V385.093ZM258.444 385.093H259.039V383.99H258.444V385.093ZM257.596 385.093H258.19V383.99H257.596V385.093ZM255.644 383.311H260.227V382.972H255.644V383.311ZM255.644 382.632H260.227V382.293H255.644V382.632ZM255.644 386.112H260.227V385.772H255.644V386.112ZM255.644 386.536H260.227V386.196H255.644V386.536ZM256.068 386.621H259.802V395.955H256.068V386.621ZM259.802 396.549V404.611H256.068V396.549H259.802ZM259.802 405.205V410.212H264.216V387.215L271.685 385.687V410.212H272.024V381.614H273.043V381.275H281.785V378.644H305.295V380.85V381.275H314.292V381.614H315.056V410.212H315.48V385.263L322.695 387.3V410.212H327.618V405.205H331.267V410.212H337.972V402.15H343.998V410.212H351.637V412.248H235.358V410.212H243.252V402.15H249.363V410.212H255.983V405.205H259.802ZM249.108 364.388C248.769 363.709 251.654 362.86 246.307 359.635C241.13 362.775 243.931 363.794 243.337 364.388C245.289 364.388 247.241 364.388 249.108 364.388ZM249.278 370.073H243.506V366.933H249.278V370.073ZM248.175 369.394H247.156V367.612H248.175V369.394ZM245.459 369.394H244.44V367.612H245.459V369.394ZM246.817 369.394H245.798V367.612H246.817V369.394ZM250.127 366.764H242.573V365.915H250.127V366.764ZM250.127 365.576H242.573V364.812H250.127V365.576ZM250.127 371.091H242.573V370.328H250.127V371.091ZM250.127 371.77H242.573V371.261H250.127V371.77ZM351.637 417H235.358V412.927H351.637V417ZM249.363 371.94H243.252V387.045H249.363V371.94ZM338.142 364.388C338.566 363.709 335.596 362.86 341.028 359.635C346.205 362.775 343.319 363.794 343.998 364.388C342.046 364.388 340.179 364.388 338.142 364.388ZM343.914 370.073V366.933H344.762V365.915H337.208V366.933H338.057V370.073H337.208V371.007V371.091V372.025H337.972V387.13H343.998V372.025H344.762V371.091V371.007V370.073H343.914ZM339.161 369.394H340.179V367.612H339.161V369.394ZM341.792 369.394H342.81V367.612H341.792V369.394ZM340.519 369.394H341.537V367.612H340.519V369.394ZM337.208 365.745H344.762V364.727H337.208V365.745ZM343.998 388.063V401.047H337.972V388.063H343.998ZM283.143 410.212H303.853V382.887H283.143V410.212ZM331.097 382.038C330.843 381.614 332.71 381.02 329.4 379.068C326.175 381.105 327.957 381.699 327.618 382.038C328.806 382.038 329.909 382.038 331.097 382.038ZM331.267 385.518H327.618V383.566H331.267V385.518ZM330.503 385.093H329.909V383.99H330.503V385.093ZM328.891 385.093H328.297V383.99H328.891V385.093ZM329.655 385.093H329.06V383.99H329.655V385.093ZM331.692 383.396H327.108V382.972H331.692V383.396ZM331.692 382.632H327.108V382.293H331.692V382.632ZM331.692 386.112H327.108V385.772H331.692V386.112ZM331.692 386.621H331.267V395.955H327.618V386.621H327.193V386.281H331.776V386.621H331.692ZM327.533 396.549V404.611H331.182V396.549H327.533ZM243.337 388.063V401.047H249.448V388.063H243.337ZM269.648 402.405V408.005L265.829 408.09V402.914C265.829 401.895 267.611 400.368 267.696 400.368C267.781 400.283 269.648 401.386 269.648 402.405ZM269.648 393.07V398.586L265.829 399.01V393.494C265.829 392.476 267.611 390.864 267.696 390.864C267.781 390.779 269.648 391.882 269.648 393.07ZM317.602 402.405V408.005L321.422 408.09V402.914C321.422 401.895 319.554 400.368 319.47 400.368C319.47 400.283 317.602 401.386 317.602 402.405ZM317.602 393.07V398.586L321.422 399.01V393.494C321.422 392.476 319.554 390.864 319.47 390.864C319.47 390.779 317.602 391.882 317.602 393.07ZM306.314 380.85C306.738 380.002 303.174 379.068 309.794 375.08H309.709H309.454V374.74H309.709V373.383C309.624 373.383 309.539 373.383 309.454 373.383C309.2 373.383 308.945 373.128 308.86 372.958C308.945 373.043 309.2 373.128 309.285 373.128C309.624 373.128 309.964 372.789 309.964 372.534C309.964 372.449 309.964 372.364 309.879 372.279C310.048 372.364 310.133 372.534 310.133 372.704C310.133 372.958 310.048 373.043 309.879 373.213V374.74H310.048V375.08H309.879H309.794C316.159 378.899 312.764 380.087 313.443 380.85H306.314ZM295.45 394.258V398.586H299.779V394.173C299.779 391.627 293.837 388.148 293.498 388.148C293.158 388.148 287.217 391.627 287.217 394.173V398.586H291.546V394.258C291.546 393.494 293.328 392.476 293.498 392.476C293.583 392.476 295.45 393.494 295.45 394.258ZM295.45 403.762V408.005H291.631V403.762C291.631 402.914 293.413 401.895 293.583 401.895C293.583 401.895 295.45 402.999 295.45 403.762ZM299.779 400.029H287.302V408.005H285.52V385.093H301.561V408.005H299.863V400.029H299.779ZM275.504 395.192H277.032V398.077H275.504V395.192ZM275.504 405.12H277.032V408.005H275.504V405.12ZM310.133 405.12H311.661V408.005H310.133V405.12ZM310.133 395.192H311.661V398.077H310.133V395.192ZM274.146 383.142H275.504V385.178H274.146V383.142ZM311.831 383.142H313.274V385.178H311.831V383.142ZM309.539 383.142H310.897V385.178H309.539V383.142ZM307.248 383.142H308.606V385.178H307.248V383.142ZM278.814 383.142H280.172V385.178H278.814V383.142ZM276.523 383.142H277.881V385.178H276.523V383.142ZM308.096 399.774H310.218C309.794 400.029 309.285 400.368 309.115 400.538C308.69 400.877 308.096 401.556 308.096 402.235V408.26H313.868V402.235C313.868 401.556 313.189 400.877 312.764 400.538C312.595 400.368 312.085 400.029 311.661 399.774H313.953V399.18H308.096V399.774ZM273.382 389.591H275.929C275.504 389.845 274.656 390.524 274.401 390.609C273.977 390.949 273.298 391.627 273.298 392.306V398.331H279.069V392.306C279.069 391.627 278.39 390.949 277.966 390.609C277.711 390.355 276.947 389.761 276.438 389.591H279.069V388.997H273.382V389.591ZM273.382 399.774H275.589C275.165 400.029 274.571 400.368 274.486 400.538C274.061 400.877 273.382 401.556 273.382 402.235V408.26H279.154V402.235C279.154 401.556 278.56 400.877 278.051 400.538C277.881 400.368 277.456 400.029 277.032 399.774H279.239V399.18H273.552V399.774H273.382ZM307.927 389.591H310.643C310.133 389.845 309.285 390.439 309.115 390.609C308.606 390.949 308.011 391.627 308.011 392.306V398.331H313.783V392.306C313.783 391.627 313.104 390.949 312.68 390.609C312.425 390.439 311.661 389.761 311.152 389.591H313.528V388.997H307.842V389.591H307.927ZM277.456 372.279C277.626 372.364 277.711 372.534 277.711 372.704C277.711 372.958 277.626 373.043 277.456 373.213V374.74H277.711V375.08H277.456H277.287H277.202H276.947V374.74H277.202V373.383C277.117 373.383 277.032 373.383 276.947 373.383C276.693 373.383 276.523 373.128 276.353 372.958C276.523 373.043 276.693 373.128 276.777 373.128C277.117 373.128 277.456 372.789 277.456 372.534C277.541 372.449 277.541 372.364 277.456 372.279ZM277.372 375.08C283.737 378.899 280.427 380.087 281.021 380.85H273.977C274.401 380.002 270.751 379.068 277.372 375.08Z" fill="#01FF70"/>
<path fill-rule="evenodd" clip-rule="evenodd" d="M377.1 299.215H375.742V293.36V289.626L375.572 289.796L375.317 289.626V292.681L374.978 292.341L374.638 292.85L374.299 293.36L373.959 292.85L373.62 292.341L373.28 292.85L372.941 293.36L372.601 292.85L372.262 292.341L371.922 292.85L371.583 293.36L371.243 292.85L370.904 292.341L370.564 292.85L370.225 293.36L369.885 292.85L369.546 292.341L369.206 292.85L368.867 293.36L368.527 292.85L368.188 292.341L367.848 292.85L367.509 293.36L367.169 292.85L366.83 292.341L366.49 292.85L366.151 293.36L365.811 292.85L365.472 292.341L365.132 292.85L364.793 293.36L364.453 292.85L364.114 292.341L363.774 292.85L363.435 293.36L363.095 292.85L362.756 292.341L362.416 292.85L362.077 293.36L361.737 292.85L361.398 292.341L361.058 292.85L360.719 293.36L360.379 292.85L360.04 292.341L359.7 292.85L359.361 293.36L359.021 292.85L358.682 292.341L358.342 292.85L358.003 293.36L357.663 292.85L357.324 292.341L356.984 292.85L356.645 293.36L356.305 292.85L355.966 292.341L355.626 292.85L355.287 293.36L354.947 292.85L354.608 292.341L354.268 292.85L353.929 293.36L353.589 292.85L353.25 292.341L352.91 292.85L352.571 293.36L352.231 292.85L351.892 292.341L351.552 292.766V289.626L351.298 289.796L351.043 289.626V293.36V299.215H349.77V295.481L349.6 295.736L349.345 295.481V299.215V326.709H376.845V299.215V295.481L376.59 295.736L376.421 295.481V299.215H377.1ZM377.948 417H348.836V399.604H377.948V417ZM375.063 398.246V381.953H373.874V398.246H372.941V381.953H371.668V398.246H370.734V381.953H369.546V398.246H368.527V381.953H367.339V398.246H366.32V381.953H365.132V398.246H364.114V381.953H362.925V398.246H361.907V381.953H360.719V398.246H359.785V381.953H358.512V398.246H357.578V381.953H356.39V398.246H355.372V381.953H354.183V398.246H353.165V381.953H351.977V398.246H350.958V364.557H375.826V398.246H375.063ZM373.874 381.104H375.063V365.405H373.874V381.104ZM352.146 381.104H353.335V365.405H352.146V381.104ZM354.353 381.104H355.541V365.405H354.353V381.104ZM356.56 381.104H357.748V365.405H356.56V381.104ZM358.682 381.104H359.955V365.405H358.682V381.104ZM360.888 381.104H362.077V365.405H360.888V381.104ZM363.01 381.104H364.199V365.405H363.01V381.104ZM365.217 381.104H366.405V365.405H365.217V381.104ZM367.424 381.104H368.612V365.405H367.424V381.104ZM369.546 381.104H370.734V365.405H369.546V381.104ZM371.668 381.104H372.941V365.405H371.668V381.104ZM352.825 288.777L351.892 288.013L351.043 288.777L351.892 289.711L352.825 288.777ZM376.421 288.777L375.572 288.013L374.723 288.777L375.572 289.711L376.421 288.777ZM378.118 294.633L377.269 293.869L376.505 294.633L377.269 295.566L378.118 294.633ZM350.958 294.633L350.194 293.869L349.345 294.633L350.194 295.566L350.958 294.633ZM351.637 288.098V287.589H352.061V288.098L351.807 287.844L351.637 288.098ZM375.402 288.098V287.589H375.742V288.098L375.572 287.844L375.402 288.098ZM350.024 293.954V293.36H350.364V293.869L350.194 293.699L350.024 293.954ZM377.1 293.869V293.36H377.439V293.954L377.184 293.699L377.1 293.869ZM357.833 283.686L354.183 292.681L354.268 292.766L354.353 292.935L355.032 291.917L355.541 292.766L355.711 292.935L355.881 292.766L356.39 291.917L357.069 292.935L357.239 292.681L357.748 291.747L358.172 292.681L358.427 292.935L359.021 291.917L359.615 292.766L359.7 292.935L359.87 292.766L360.379 291.917L360.888 292.766L361.058 292.935L361.228 292.766L361.737 291.917L362.246 292.766L362.416 293.02L362.586 292.766L363.095 291.832L363.52 292.766L363.774 293.02L363.859 292.766L364.368 291.917L364.962 292.766L365.047 292.935L365.726 291.917L366.236 292.766L366.405 292.935L366.575 292.766L367.084 291.917L367.763 292.935L367.933 292.681L368.442 291.747L368.952 292.681L369.121 292.935L369.715 291.917L370.31 292.766L370.394 292.935L371.073 291.917L371.583 292.766L371.752 292.935L371.922 292.766L372.431 291.917L373.11 292.935L373.195 292.766L373.28 292.681L369.631 283.686H357.833ZM359.021 289.796L358.257 288.523L358.003 288.183L356.984 289.796L357.324 289.965L358.003 288.862L358.597 289.965L359.021 289.796ZM364.708 286.825L363.944 285.468L363.774 285.128L362.756 286.825L363.095 286.995L363.774 285.892L364.368 286.995L364.708 286.825ZM368.442 286.825L367.594 285.468L367.509 285.128L366.49 286.825L366.83 286.995L367.509 285.892L368.103 286.995L368.442 286.825ZM370.31 289.796L369.461 288.523L369.291 288.183L368.357 289.796L368.612 289.965L369.291 288.862L369.97 289.965L370.31 289.796ZM366.49 289.796L365.811 288.523L365.557 288.183L364.538 289.796L364.878 289.965L365.557 288.862L366.236 289.965L366.49 289.796ZM362.756 289.796L362.077 288.523L361.822 288.183L360.804 289.796L361.143 289.965L361.822 288.862L362.416 289.965L362.756 289.796ZM361.313 286.825L360.634 285.468L360.379 285.128L359.361 286.825L359.7 286.995L360.379 285.892L360.973 286.995L361.313 286.825ZM355.541 294.717H352.825V298.366H355.541V294.717ZM374.299 294.717H371.668V298.366H374.299V294.717ZM370.649 294.717H367.848V298.366H370.649V294.717ZM366.915 294.717H364.114V298.366H366.915V294.717ZM363.095 294.717H360.294V298.366H363.095V294.717ZM359.276 294.717H356.56V298.366H359.276V294.717ZM364.878 260.943H362.671V259.331H364.878V260.943ZM357.748 272.993L356.899 272.145L356.051 272.993L356.899 273.842L357.748 272.993ZM371.413 272.993L370.564 272.145L369.715 272.993L370.564 273.842L371.413 272.993ZM370.14 276.303L369.8 276.897L369.461 277.491H369.376L369.121 276.897L368.782 276.303L368.442 276.897L368.188 277.491L367.848 276.897L367.509 276.303L367.169 276.897L366.83 277.491L366.49 276.897L366.151 276.303L365.811 276.897L365.472 277.491L365.132 276.897L364.793 276.303L364.453 276.897L364.199 277.491H364.114L363.774 276.897L363.435 276.303L363.095 276.897L362.841 277.491H362.756L362.416 276.897L362.077 276.303L361.737 276.897L361.483 277.491H361.398L361.058 276.897L360.719 276.303L360.379 276.897L360.125 277.491H360.04L359.7 276.897L359.361 276.303L359.021 276.897L358.682 277.491L358.427 276.897L358.088 276.303L357.748 276.897L357.493 277.491H357.409L357.154 276.897L356.814 276.303L356.56 276.642V274.012L356.305 274.181L356.051 274.012V277.491V283.261H370.14V277.491V274.012L369.885 274.181L369.631 274.012V276.642L370.14 276.303ZM363.774 258.397C363.774 258.652 363.689 258.822 363.689 259.076H363.774C363.774 258.907 363.774 258.652 363.774 258.397ZM363.52 261.113C362.671 266.289 360.294 270.872 358.597 275.794V275.709L359.191 276.727L359.276 276.897L359.87 275.709L360.464 276.727L360.549 276.897L360.634 276.727L361.228 275.709L361.822 276.897L361.907 276.727L362.501 275.709L363.095 276.897L363.18 276.727L363.774 275.709L364.283 276.727L364.368 276.897L364.453 276.727L365.047 275.709L365.641 276.897L365.726 276.727L366.32 275.709L366.915 276.897L366.999 276.727L367.594 275.709L368.018 276.727L368.188 276.897L368.273 276.727L368.782 275.709C368.952 275.454 364.199 263.234 363.859 261.113H363.52ZM364.708 268.241L363.944 267.053L363.774 266.714L362.756 268.326L363.095 268.581L363.774 267.477L364.368 268.581L364.708 268.241ZM361.822 274.691L361.143 273.333L360.888 272.993L359.87 274.691L360.209 274.86L360.888 273.672L361.483 274.86L361.822 274.691ZM364.708 274.691L363.944 273.333L363.774 272.993L362.756 274.691L363.095 274.86L363.774 273.672L364.368 274.86L364.708 274.691ZM367.509 274.691L366.745 273.333L366.49 272.993L365.472 274.691L365.811 274.86L366.405 273.672L367.084 274.86L367.509 274.691ZM363.01 271.636L362.246 270.278L361.992 269.938L361.058 271.636L361.398 271.805L361.992 270.617L362.671 271.805L363.01 271.636ZM366.32 271.636L365.557 270.278L365.387 269.938L364.368 271.636L364.623 271.805L365.387 270.617L365.981 271.805L366.32 271.636ZM356.73 272.145V271.636H357.154V272.145L356.899 271.89L356.73 272.145ZM370.31 272.145V271.636H370.734V272.145L370.479 271.89L370.31 272.145ZM359.53 278.594H357.409V282.328H359.53V278.594ZM370.055 278.594H367.933V282.328H370.055V278.594ZM367.424 278.594H365.302V282.328H367.424V278.594ZM364.878 278.594H362.756V282.328H364.878V278.594ZM362.162 278.594H360.04V282.328H362.162V278.594ZM374.044 362.69H375.232V345.548H374.044V362.69ZM352.231 362.69H353.419V345.548H352.231V362.69ZM354.438 362.69H355.626V345.548H354.438V362.69ZM356.645 362.69H357.833V345.548H356.645V362.69ZM358.851 362.69H360.04V345.548H358.851V362.69ZM360.973 362.69H362.162V345.548H360.973V362.69ZM363.095 362.69H364.368V345.548H363.095V362.69ZM365.302 362.69H366.49V345.548H365.302V362.69ZM367.509 362.69H368.697V345.548H367.509V362.69ZM369.631 362.69H370.819V345.548H369.631V362.69ZM371.837 362.69H373.026V345.548H371.837V362.69ZM374.044 344.615H375.232V328.831H374.044V344.615ZM352.231 344.615H353.419V328.831H352.231V344.615ZM354.438 344.615H355.626V328.831H354.438V344.615ZM356.645 344.615H357.833V328.831H356.645V344.615ZM358.851 344.615H360.04V328.831H358.851V344.615ZM360.973 344.615H362.162V328.831H360.973V344.615ZM363.095 344.615H364.368V328.831H363.095V344.615ZM365.302 344.615H366.49V328.831H365.302V344.615ZM367.509 344.615H368.697V328.831H367.509V344.615ZM369.631 344.615H370.819V328.831H369.631V344.615ZM371.837 344.615H373.026V328.831H371.837V344.615ZM376.166 328.152H351.382V363.369H376.166V328.152ZM354.523 324.418H353.08V325.861H354.523V324.418ZM374.299 324.418H372.856V325.861H374.299V324.418ZM372.516 324.418H371.073V325.861H372.516V324.418ZM370.734 324.418H369.291V325.861H370.734V324.418ZM368.867 324.418H367.509V325.861H368.952V324.418H368.867ZM367.084 324.418H365.641V325.861H367.084V324.418ZM365.302 324.418H363.859V325.861H365.302V324.418ZM363.52 324.418H362.077V325.861H363.52V324.418ZM361.652 324.418H360.209V325.861H361.652V324.418ZM359.87 324.418H358.512V325.861H359.87V324.418ZM358.172 324.418H356.73V325.861H358.172V324.418ZM356.305 324.418H354.862V325.861H356.305V324.418ZM363.774 313.811C363.604 313.811 363.435 313.726 363.35 313.726L362.841 314.235C362.756 314.575 362.756 314.744 362.586 314.914C362.501 314.999 362.331 314.999 362.246 314.914C362.077 314.659 362.077 314.659 361.907 314.49C361.737 314.405 361.737 314.235 361.907 314.15C362.077 313.981 362.246 313.896 362.501 313.896L363.095 313.386C362.925 313.302 362.925 313.047 362.925 312.962C362.925 312.877 362.925 312.792 362.925 312.708L357.493 306.937C357.493 306.937 357.493 306.852 357.493 306.767H357.663C357.663 306.683 357.748 306.683 357.748 306.767L363.435 312.114C363.52 312.029 363.689 312.029 363.774 312.029C363.944 312.029 364.114 312.114 364.283 312.198L365.217 311.35C365.132 311.35 365.047 311.265 365.047 311.18C364.878 311.095 364.878 310.841 365.047 310.841C365.217 310.671 365.557 310.586 365.981 310.586L366.151 310.416V310.077H366.66V310.501H366.32L366.066 310.756C366.066 311.095 366.066 311.52 365.896 311.689C365.726 311.774 365.557 311.774 365.472 311.689C365.387 311.604 365.387 311.604 365.387 311.604L364.453 312.538C364.538 312.708 364.623 312.877 364.623 312.962C364.623 313.132 364.538 313.217 364.538 313.302C364.793 313.641 365.217 313.981 365.641 314.15C365.641 314.15 365.726 314.15 365.726 314.235C365.726 314.32 365.726 314.405 365.641 314.405C365.472 314.405 365.472 314.49 365.472 314.575C365.387 314.575 365.387 314.659 365.387 314.744C365.387 314.829 365.302 314.914 365.302 314.914C365.132 314.914 365.047 314.914 365.047 314.999C364.962 314.999 364.878 315.084 364.878 315.169H364.962C364.878 315.253 364.878 315.169 364.793 315.169C364.623 314.659 364.368 314.32 363.859 314.065C363.944 313.811 363.859 313.811 363.774 313.811ZM363.52 305.07C363.35 305.07 363.18 305.07 363.01 305.07L362.925 304.052H362.841C363.095 304.052 363.265 304.052 363.52 304.052V305.07ZM362.586 305.155C362.331 305.24 362.162 305.24 361.907 305.325L361.652 304.307C361.907 304.222 362.162 304.137 362.501 304.137L362.586 305.155ZM361.567 305.41C361.398 305.495 361.228 305.579 361.058 305.579L360.719 304.646C360.973 304.561 361.143 304.476 361.398 304.391L361.567 305.41ZM360.719 305.664C360.464 305.834 360.294 305.919 360.04 306.004L359.53 305.155C359.785 304.985 360.04 304.816 360.379 304.816L360.719 305.664ZM359.615 306.258C359.446 306.428 359.276 306.513 359.191 306.598L358.597 305.749C358.851 305.664 358.936 305.495 359.191 305.41L359.615 306.258ZM358.851 306.767C358.682 306.937 358.597 307.022 358.512 307.107L358.682 307.277C358.767 307.192 358.936 307.022 359.021 306.937H359.106L359.191 306.852C359.446 306.683 359.53 306.513 359.785 306.428H359.87L361.483 309.228C361.313 309.313 361.143 309.398 361.143 309.483L361.313 309.653C361.992 309.059 362.925 308.719 363.944 308.719C364.962 308.719 366.066 309.144 366.83 309.822H367.169C366.915 309.568 366.745 309.398 366.405 309.228L367.933 306.428H368.018C368.357 306.683 368.527 306.767 368.867 307.022L368.952 307.107C369.121 307.277 369.291 307.446 369.461 307.531C369.631 307.786 369.8 307.955 370.055 308.21V308.295L370.14 308.38C370.31 308.634 370.479 308.719 370.479 308.974L367.763 310.586C367.594 310.332 367.424 310.077 367.254 309.822V310.162C367.848 310.841 368.273 311.859 368.273 312.962C368.273 314.15 367.763 315.253 366.999 316.017C366.151 316.781 365.132 317.29 364.029 317.29C362.841 317.29 361.737 316.781 360.973 316.017C360.125 315.169 359.7 314.15 359.7 312.962C359.7 311.944 360.04 311.095 360.634 310.416L360.464 310.247C360.379 310.332 360.294 310.501 360.209 310.586L357.493 308.974C357.663 308.634 357.833 308.38 358.088 308.125V308.04C358.172 308.04 358.172 307.955 358.257 307.871L358.088 307.701C358.003 307.786 358.003 307.871 357.918 307.955L357.069 307.277C357.239 307.192 357.324 307.107 357.409 306.937V306.852C357.409 306.852 357.409 306.767 357.409 306.683V306.513L357.663 306.428C357.748 306.258 357.918 306.258 358.003 306.258C358.172 306.089 358.342 306.004 358.512 305.919L358.851 306.767ZM357.493 308.295C357.324 308.465 357.154 308.634 357.154 308.889L356.73 308.549L356.305 308.295C356.475 308.04 356.645 307.786 356.73 307.616H356.814L357.493 308.295ZM356.814 309.143C356.73 309.313 356.645 309.483 356.56 309.653L355.541 309.228C355.626 309.059 355.796 308.889 355.881 308.719L356.814 309.143ZM356.39 310.077C356.305 310.332 356.22 310.501 356.135 310.756L355.202 310.416H355.117C355.202 310.077 355.372 309.907 355.456 309.568L356.39 310.077ZM356.135 311.095C356.051 311.265 356.051 311.435 355.966 311.604L354.947 311.435C355.032 311.18 355.032 311.01 355.117 310.756V310.841L356.135 311.095ZM355.966 311.774L355.032 311.689V311.604L355.966 311.774ZM355.966 312.029C355.881 312.283 355.881 312.453 355.881 312.708H354.862C354.862 312.368 354.862 312.198 354.947 311.859L355.966 312.029ZM355.881 313.132C355.881 313.302 355.881 313.471 355.966 313.641L354.947 313.726C354.947 313.471 354.947 313.386 354.947 313.132H355.881ZM355.966 314.065C356.051 314.32 356.051 314.575 356.135 314.829L355.117 315.084C355.032 314.744 354.947 314.575 354.947 314.235L355.966 314.065ZM356.22 315.169C356.305 315.338 356.39 315.508 356.475 315.593L355.456 315.932V316.017C355.372 315.763 355.287 315.593 355.202 315.338H355.287L356.22 315.169ZM356.475 315.847L355.626 316.187V316.102L356.475 315.847ZM356.56 316.017C356.645 316.272 356.73 316.441 356.899 316.696L355.966 317.205C355.796 316.951 355.711 316.696 355.626 316.441L355.711 316.357L356.56 316.017ZM357.069 317.035C357.154 317.205 357.239 317.375 357.409 317.375L356.475 317.969C356.39 317.799 356.22 317.629 356.135 317.46L357.069 317.035ZM357.578 317.714C357.748 317.969 357.918 318.054 358.003 318.308L357.324 319.072C357.154 318.817 356.984 318.648 356.814 318.393L357.578 317.714ZM358.342 318.648C358.512 318.733 358.597 318.902 358.682 318.987L358.088 319.836H358.003C357.833 319.666 357.663 319.496 357.578 319.412L358.342 318.648ZM359.021 319.242C359.276 319.412 359.361 319.496 359.615 319.581L359.191 320.515H359.106C358.851 320.345 358.682 320.175 358.427 320.006L359.021 319.242ZM360.04 319.836C360.209 319.921 360.379 320.006 360.464 320.09L360.125 321.024C359.87 320.939 359.7 320.854 359.53 320.684L360.04 319.836ZM360.888 320.26C361.143 320.345 361.313 320.43 361.567 320.515L361.313 321.533C360.973 321.448 360.719 321.363 360.464 321.278L360.888 320.26ZM361.652 320.515L361.483 321.363H361.398L361.652 320.515ZM361.907 320.6C362.077 320.6 362.246 320.684 362.416 320.684L362.246 321.703C361.992 321.703 361.822 321.618 361.652 321.618L361.907 320.6ZM362.841 320.769C363.095 320.769 363.35 320.854 363.604 320.854V321.872C363.265 321.872 363.01 321.872 362.671 321.788L362.841 320.769ZM363.944 320.854C364.114 320.854 364.283 320.854 364.453 320.769L364.623 321.788V321.872C364.368 321.872 364.199 321.872 363.944 321.872V320.854ZM364.878 320.769C365.132 320.684 365.302 320.684 365.557 320.6L365.811 321.618C365.557 321.703 365.302 321.703 364.962 321.788L364.878 320.769ZM365.811 320.515L366.066 321.363H365.981L365.811 320.515ZM365.981 320.43C366.151 320.43 366.32 320.345 366.49 320.26L366.83 321.194V321.278C366.575 321.363 366.49 321.448 366.236 321.448L365.981 320.43ZM366.915 320.175C367.169 320.09 367.339 319.921 367.509 319.836L368.018 320.684V320.769C367.763 320.854 367.509 321.024 367.254 321.109V321.024L366.915 320.175ZM367.848 319.666C368.018 319.581 368.188 319.496 368.273 319.327L368.867 320.175C368.697 320.345 368.527 320.43 368.357 320.515L367.848 319.666ZM368.612 319.072C368.867 318.902 368.952 318.733 369.121 318.648L369.885 319.327C369.631 319.581 369.461 319.751 369.206 319.921L368.612 319.072ZM369.461 318.393C369.631 318.223 369.715 318.054 369.8 318.054L370.649 318.648C370.564 318.817 370.394 318.987 370.31 319.072L369.461 318.393ZM370.055 317.629C370.225 317.46 370.394 317.29 370.394 317.035L371.328 317.545C371.158 317.884 370.989 318.054 370.904 318.308H370.819L370.055 317.629ZM370.649 316.696C370.734 316.526 370.819 316.357 370.904 316.272L371.922 316.611C371.752 316.866 371.668 316.951 371.583 317.205H371.498L370.649 316.696ZM370.989 315.847C371.073 315.593 371.243 315.423 371.243 315.169L372.262 315.423H372.347C372.177 315.763 372.092 316.017 372.007 316.272L370.989 315.847ZM371.413 314.829C371.413 314.659 371.498 314.49 371.498 314.32L372.516 314.49C372.431 314.659 372.431 314.829 372.347 315.084L371.413 314.829ZM371.498 314.065L372.431 314.235H372.347L371.498 314.065ZM371.498 313.811C371.583 313.556 371.583 313.386 371.583 313.132H372.601C372.601 313.471 372.601 313.641 372.516 313.98L371.498 313.811ZM371.583 312.708C371.583 312.538 371.583 312.368 371.498 312.283L372.516 312.114C372.516 312.283 372.516 312.453 372.516 312.708H371.583ZM371.498 312.029L372.431 311.859V311.944L371.498 312.029ZM371.498 311.774C371.413 311.52 371.413 311.35 371.328 311.095L372.347 310.841V310.756C372.431 311.095 372.516 311.35 372.516 311.689L371.498 311.774ZM371.328 310.756C371.243 310.501 371.158 310.416 371.073 310.247L372.092 309.907C372.177 310.162 372.262 310.247 372.262 310.501L371.328 310.756ZM370.989 309.992L371.837 309.653V309.738L370.989 309.992ZM370.904 309.822C370.819 309.568 370.734 309.398 370.564 309.143L371.413 308.719H371.498C371.668 308.974 371.752 309.228 371.837 309.483L370.904 309.822ZM370.394 308.889C370.31 308.719 370.225 308.549 370.14 308.465L370.904 307.871C371.073 308.04 371.243 308.21 371.243 308.38L370.394 308.889ZM369.885 308.04C369.715 307.871 369.546 307.701 369.461 307.531L370.225 306.852C370.394 307.107 370.564 307.277 370.734 307.446V307.531L369.885 308.04ZM369.121 307.277C369.036 307.107 368.867 306.937 368.782 306.937L369.376 306.089C369.546 306.258 369.715 306.428 369.885 306.513L369.121 307.277ZM368.442 306.683C368.188 306.513 368.103 306.343 367.848 306.258L368.357 305.41C368.612 305.579 368.782 305.749 369.036 305.834L368.442 306.683ZM367.509 306.089C367.339 305.919 367.169 305.834 367.084 305.749L367.424 304.816C367.678 304.901 367.763 304.985 368.018 305.155L367.509 306.089ZM366.66 305.664C366.405 305.579 366.236 305.495 365.981 305.41L366.32 304.391C366.575 304.476 366.83 304.646 367.084 304.731L366.66 305.664ZM365.557 305.325C365.387 305.24 365.217 305.24 365.047 305.155L365.217 304.137C365.472 304.222 365.641 304.222 365.811 304.307L365.557 305.325ZM364.708 305.155C364.453 305.07 364.199 305.07 363.944 305.07V304.052C364.283 304.052 364.538 304.052 364.878 304.052L364.708 305.155ZM360.125 306.258C360.379 306.089 360.464 306.004 360.719 305.919H360.804L361.058 305.834C361.313 305.749 361.398 305.664 361.652 305.579H361.737L361.907 305.495H362.077C362.331 305.41 362.501 305.41 362.756 305.325H362.841H363.095H363.18V305.24C363.35 305.24 363.52 305.24 363.689 305.24V308.38C363.01 308.465 362.331 308.634 361.822 308.889L360.125 306.258ZM363.944 305.24C364.199 305.24 364.368 305.24 364.623 305.325H364.708H364.962H365.047C365.302 305.41 365.387 305.41 365.557 305.495H365.641L365.896 305.579H365.981C366.236 305.664 366.405 305.749 366.66 305.834V305.919H366.745C366.83 305.919 366.915 306.004 366.999 306.004L367.084 306.089C367.254 306.089 367.424 306.258 367.509 306.343L365.896 309.059C365.302 308.719 364.708 308.634 364.029 308.549V305.24H363.944ZM370.479 309.313C370.649 309.568 370.734 309.738 370.819 309.992L370.904 310.077C370.904 310.162 370.904 310.247 370.989 310.247V310.332C371.073 310.586 371.158 310.841 371.243 311.18C371.413 311.689 371.498 312.198 371.498 312.877H368.357C368.357 312.198 368.103 311.52 367.933 311.01L370.479 309.313ZM371.413 313.132C371.413 313.386 371.413 313.556 371.328 313.811C371.328 314.15 371.243 314.405 371.158 314.744C370.989 315.423 370.819 316.017 370.479 316.611L367.678 314.999C368.018 314.405 368.103 313.811 368.188 313.132H371.413ZM370.225 316.951C370.14 317.205 369.97 317.375 369.885 317.629L369.715 317.799L369.631 317.884C369.461 318.054 369.376 318.223 369.291 318.223L369.121 318.308L369.036 318.478L368.867 318.563H368.952C368.697 318.733 368.612 318.902 368.442 318.987H368.357V319.072C368.103 319.242 368.018 319.327 367.763 319.412L366.151 316.611C366.405 316.441 366.66 316.272 366.915 316.017C367.169 315.763 367.339 315.593 367.509 315.253L370.225 316.951ZM367.424 319.751C367.254 319.836 367.084 320.006 366.83 320.09V319.921L366.66 320.006L366.575 320.09L366.405 320.175C366.236 320.175 366.066 320.26 365.981 320.345H365.896C365.811 320.345 365.641 320.43 365.557 320.43H365.472C365.132 320.515 364.962 320.6 364.623 320.6H364.453C364.199 320.684 364.114 320.684 363.859 320.684V317.545C364.538 317.46 365.132 317.29 365.726 317.035L367.424 319.751ZM363.52 320.6C363.265 320.6 363.095 320.6 362.841 320.515C362.756 320.515 362.671 320.515 362.586 320.515H362.501H362.416C362.162 320.43 362.077 320.43 361.907 320.345C361.567 320.26 361.143 320.09 360.804 320.006H360.719C360.464 319.921 360.294 319.751 360.04 319.666L361.652 316.866C362.246 317.205 362.841 317.29 363.52 317.375V320.6ZM359.7 319.496C359.53 319.412 359.361 319.242 359.106 319.157H359.191L359.106 319.072L358.851 318.987V318.902H358.767C358.682 318.733 358.512 318.648 358.427 318.563H358.512L358.427 318.478L358.257 318.308L358.172 318.223C358.003 318.054 357.833 317.884 357.748 317.714L357.578 317.46L357.493 317.375C357.409 317.205 357.324 317.035 357.239 316.951H357.154L359.955 315.338C360.209 315.678 360.294 315.847 360.634 316.102C360.888 316.357 361.058 316.526 361.398 316.781L359.7 319.496ZM356.984 316.611C356.814 316.357 356.73 316.187 356.645 315.847H356.56C356.475 315.593 356.39 315.338 356.305 315.084C356.22 314.914 356.22 314.829 356.22 314.744C356.051 314.235 355.966 313.726 355.966 313.132H359.106C359.106 313.811 359.361 314.405 359.615 314.999L356.984 316.611ZM356.135 312.792C356.135 312.538 356.135 312.283 356.22 312.029C356.22 311.859 356.22 311.774 356.22 311.689C356.305 311.52 356.305 311.35 356.39 311.18C356.39 311.01 356.39 310.926 356.475 310.841V310.756C356.56 310.501 356.645 310.332 356.73 310.162L356.814 309.992V309.907C356.814 309.822 356.899 309.822 356.899 309.738C356.984 309.568 357.069 309.398 357.154 309.313L359.955 310.926C359.615 311.52 359.446 312.114 359.446 312.792H356.135ZM373.959 302.694H363.774C369.376 302.694 373.959 307.277 373.959 312.962V302.694ZM369.885 306.767L369.376 307.446L369.291 307.361L369.885 306.767ZM369.97 319.072L369.291 318.478H369.376L369.97 319.072ZM357.578 319.157L358.088 318.478H358.172L357.578 319.157ZM370.819 307.701L370.055 308.295V308.21L370.819 307.701ZM358.512 305.919L359.021 306.598V306.683L358.512 305.919ZM360.464 304.816L360.804 305.664L360.719 305.749L360.464 304.816ZM363.774 302.694H353.504V312.962C353.504 307.277 358.172 302.694 363.774 302.694ZM353.504 312.962V323.23H363.774C358.172 323.145 353.504 318.563 353.504 312.962ZM363.774 323.145H373.959V312.877C373.959 318.563 369.376 323.145 363.774 323.145ZM363.774 322.636C358.427 322.636 354.098 318.308 354.098 312.962C354.098 307.701 358.427 303.288 363.774 303.288C369.036 303.288 373.45 307.616 373.45 312.962C373.45 318.308 369.036 322.636 363.774 322.636ZM372.347 322.042C371.922 322.042 371.583 321.703 371.583 321.194C371.583 320.854 371.922 320.515 372.347 320.515C372.686 320.515 373.11 320.854 373.11 321.194C373.11 321.703 372.771 322.042 372.347 322.042ZM372.347 305.155C371.922 305.155 371.583 304.816 371.583 304.391C371.583 303.967 371.922 303.628 372.347 303.628C372.686 303.628 373.11 303.967 373.11 304.391C373.11 304.816 372.771 305.155 372.347 305.155ZM355.287 305.155C354.862 305.155 354.523 304.816 354.523 304.391C354.523 303.967 354.862 303.628 355.287 303.628C355.711 303.628 356.051 303.967 356.051 304.391C356.051 304.816 355.711 305.155 355.287 305.155ZM355.287 322.042C354.862 322.042 354.523 321.703 354.523 321.194C354.523 320.854 354.862 320.515 355.287 320.515C355.711 320.515 356.051 320.854 356.051 321.194C356.051 321.703 355.711 322.042 355.287 322.042ZM374.214 302.355V323.4H353.165V302.355H374.214ZM374.299 300.148H372.856V301.676H374.299V300.148ZM354.523 300.148H353.08V301.676H354.523V300.148ZM356.305 300.148H354.862V301.676H356.305V300.148ZM358.172 300.148H356.73V301.676H358.172V300.148ZM359.87 300.148H358.512V301.676H359.87V300.148ZM361.652 300.148H360.209V301.676H361.652V300.148ZM363.52 300.148H362.077V301.676H363.52V300.148ZM365.302 300.148H363.859V301.676H365.302V300.148ZM367.084 300.148H365.641V301.676H367.084V300.148ZM368.867 300.148H367.509V301.676H368.952V300.148H368.867ZM370.734 300.148H369.291V301.676H370.734V300.148ZM372.516 300.148H371.073V301.676H372.516V300.148ZM352.231 325.691H352.571V300.148H352.231V325.691ZM350.788 325.691H351.128V300.148H350.788V325.691ZM351.467 325.691H351.807V300.148H351.467V325.691ZM374.893 325.691H375.317V300.148H374.893V325.691ZM376.421 325.691H376.76V300.148H376.421V325.691ZM375.657 325.691H375.996V300.148H375.657V325.691Z" fill="#01FF70"/>
<path fill-rule="evenodd" clip-rule="evenodd" d="M654.726 323.4V322.381L651.67 320.854V326.03L654.726 323.4ZM586.741 295.396H609.233V301.93H586.741V295.396ZM609.233 303.033V313.047H586.741V303.033H609.233ZM609.233 314.574V332.565H586.741V314.574H609.233ZM592.512 297.433H596.332V298.281H592.512V297.433ZM605.668 306.258V310.84H602.018V306.258C602.018 305.409 602.952 304.731 603.801 304.731C604.904 304.731 605.668 305.409 605.668 306.258ZM599.897 306.258V310.84H596.247V306.258C596.247 305.409 597.011 304.731 598.029 304.731C599.133 304.731 599.897 305.409 599.897 306.258ZM594.125 306.258V310.84H590.475V306.258C590.475 305.409 591.239 304.731 592.258 304.731C593.276 304.731 594.125 305.409 594.125 306.258ZM599.812 319.666H603.631V320.43H599.812V319.666ZM595.059 319.751H598.878V320.514H595.059V319.751ZM597.775 320.769H601.594V321.618H597.775V320.769ZM599.981 322.212H603.801V323.06H599.981V322.212ZM595.483 322.212H599.302V323.06H595.483V322.212ZM592.512 329.849H596.247V330.698H592.512V329.849ZM590.645 328.916H594.465V329.764H590.645V328.916ZM588.778 327.812H592.597V328.576H588.778V327.812ZM603.376 327.643H607.196V328.491H603.376V327.643ZM601.17 296.499H604.989V297.348H601.17V296.499ZM595.228 299.3H599.048V300.148H595.228V299.3ZM557.289 353.949H595.398V383.735H557.289V353.949ZM595.398 385.093V417H557.289V385.093H595.398ZM585.298 408.599H591.749V409.956H585.298V408.599ZM579.187 395.021H585.638V396.379H579.187V395.021ZM571.294 395.276H577.744V396.633H571.294V395.276ZM575.877 397.058H582.327V398.416H575.877V397.058ZM579.611 399.434H586.062V400.792H579.611V399.434ZM571.973 399.434H578.338V400.792H571.973V399.434ZM566.88 412.502H573.331V413.86H566.88V412.502ZM563.825 410.72H570.275V412.078H563.825V410.72ZM560.684 408.938H567.135V410.381H560.684V408.938ZM569.596 372.449V380.171H563.485V372.449C563.485 371.006 564.843 369.818 566.541 369.818C568.238 369.733 569.596 371.006 569.596 372.449ZM589.287 372.449V380.171H583.176V372.449C583.176 371.006 584.449 369.818 586.147 369.818C587.844 369.733 589.287 371.006 589.287 372.449ZM579.442 372.449V380.171H573.331V372.449C573.331 371.006 574.689 369.818 576.301 369.818C578.084 369.733 579.442 371.006 579.442 372.449ZM566.795 357.513H573.246V358.871H566.795V357.513ZM581.733 355.901H588.184V357.259H581.733V355.901ZM571.379 360.568H577.829V362.011H571.379V360.568ZM557.289 364.217H595.398V365.575H557.289V364.217ZM598.114 279.867L590.56 286.231H606.092L598.114 279.867ZM604.565 286.401V294.802H592.173V286.401H604.565ZM597.011 289.71H599.557V287.249H597.011V289.71ZM662.789 316.95L652.18 325.861H674.162L662.789 316.95ZM671.786 326.455V338.42H678.491V390.439H646.917V338.42H654.556V326.455H671.786ZM661.261 330.528H664.826V326.964H661.261V330.528ZM654.811 341.39H660.158V342.408H654.811V341.39ZM673.398 353.779V360.144H668.391V353.779C668.391 352.591 669.409 351.573 670.852 351.573C672.21 351.573 673.398 352.507 673.398 353.779ZM665.335 353.779V360.144H660.328V353.779C660.328 352.591 661.431 351.573 662.789 351.573C664.062 351.573 665.335 352.507 665.335 353.779ZM657.187 353.779V360.144H652.18V353.779C652.18 352.591 653.283 351.573 654.641 351.573C655.999 351.573 657.187 352.507 657.187 353.779ZM665.081 372.364H670.428V373.467H665.081V372.364ZM658.545 372.533H663.892V373.637H658.545V372.533ZM662.28 373.976H667.712V375.164H662.28V373.976ZM665.42 376.013H670.767V377.116H665.42V376.013ZM659.054 376.013H664.486V377.116H659.054V376.013ZM654.896 386.79H660.243V387.893H654.896V386.79ZM652.349 385.347H657.696V386.45H652.349V385.347ZM649.803 383.905H655.15V385.008H649.803V383.905ZM670.173 383.65H675.52V384.668H670.173V383.65ZM667.118 340.117H672.465V341.135H667.118V340.117ZM658.63 343.936H663.977V345.039H658.63V343.936ZM646.917 346.906H678.491V348.433H646.917V346.906ZM646.917 363.114H678.491V366.254H646.917V363.114ZM576.471 327.897L563.57 338.674H590.221L576.471 327.897ZM587.335 339.268V352.931H566.371V339.268H587.335ZM574.519 344.445H578.848V340.117H574.519V344.445ZM596.417 374.994L597.435 374.485V382.547L599.133 381.783V373.721L602.782 372.024V380.086L604.48 379.237V371.176L608.129 369.478V377.54L609.827 376.691V368.63L613.477 366.933V374.994L615.174 374.146V366.084L618.824 364.387V372.449L620.521 371.685V363.538L624.171 361.841V369.903L625.868 369.139V361.077L629.518 359.295V367.357L631.215 366.593V358.532L634.78 356.834V364.896L636.478 364.047V355.986L640.127 354.289V362.35L641.825 361.502V353.44L645.474 351.743V359.804L646.238 359.465V386.535L596.671 410.296V374.994H596.417ZM651.67 326.03V327.728L650.227 327.049V320.09L647.087 318.563V325.606L645.644 324.842V317.884L642.589 316.356V323.4L641.061 322.636V315.677L638.09 314.15V321.108L636.563 320.345V313.386L633.507 311.944V318.817L632.064 318.138V311.18L628.924 309.652V316.611L627.481 315.932V308.974L624.425 307.446V314.405L622.983 313.726V306.767L619.842 305.24V312.198L618.399 311.519V304.561L615.344 303.033V309.992L613.816 309.313V302.354L610.761 300.827V307.786L610.421 307.616V330.952L646.069 348.009V337.147H654.047V325.691H651.67V326.03Z" fill="#01FF70"/>
<path fill-rule="evenodd" clip-rule="evenodd" d="M243.676 293.869L242.488 305.155L202.512 300.827L203.7 289.541L243.676 293.869ZM211.848 396.973C232.727 396.973 250.721 405.289 258.02 417H165.506C172.975 405.204 190.884 396.973 211.848 396.973ZM194.024 366.424L236.462 371.091L236.207 373.637L193.685 368.969L194.024 366.424ZM210.49 271.635L241.045 274.945L241.3 272.654L210.745 269.344L210.49 271.635ZM202.851 285.637L245.374 290.22L245.034 292.85L202.597 288.183L202.851 285.637ZM201.154 301.761L243.591 306.428L243.337 309.059L200.814 304.391L201.154 301.761ZM199.371 317.969L241.809 322.636L241.469 325.182L199.032 320.599L199.371 317.969ZM197.589 334.092L240.111 338.759L239.772 341.39L197.334 336.723L197.589 334.092ZM195.891 350.3L238.329 354.968L237.989 357.598L195.552 352.931L195.891 350.3ZM237.056 288.607L238.499 275.624L212.782 272.823L211.339 285.807L237.056 288.607ZM219.572 279.273L219.147 283.855L214.734 283.431L215.158 278.849C215.328 277.576 216.431 276.557 217.619 276.727C218.808 276.897 219.741 278 219.572 279.273ZM234.849 280.97L234.34 285.552L229.926 285.043L230.436 280.461C230.605 279.188 231.709 278.255 232.897 278.424C234.085 278.509 235.019 279.612 234.849 280.97ZM227.295 280.206L226.786 284.789L222.372 284.28L222.882 279.697C222.967 278.424 224.07 277.406 225.343 277.66C226.531 277.66 227.295 278.849 227.295 280.206ZM207.859 292.256L207.01 299.724L204.379 299.385L205.228 291.917C205.313 291.323 205.907 290.899 206.671 290.899C207.35 290.983 207.944 291.577 207.859 292.256ZM233.661 361.077L232.727 368.545L230.181 368.206L231.03 360.738C231.115 360.144 231.709 359.72 232.473 359.72C233.152 359.974 233.661 360.483 233.661 361.077ZM230.011 360.653L229.162 368.206L226.531 367.866L227.38 360.399C227.465 359.805 228.059 359.38 228.823 359.38C229.502 359.55 230.011 360.144 230.011 360.653ZM226.277 360.399L225.428 367.781L222.882 367.527L223.646 359.974C223.73 359.38 224.409 358.956 225.173 359.041C225.852 359.126 226.362 359.72 226.277 360.399ZM222.627 359.889L221.778 367.357L219.147 367.018L219.996 359.55C220.081 358.956 220.675 358.532 221.439 358.532C222.203 358.786 222.712 359.295 222.627 359.889ZM218.977 359.465L218.129 367.018L215.582 366.678L216.346 359.211C216.431 358.617 217.11 358.192 217.789 358.192C218.553 358.362 219.062 358.956 218.977 359.465ZM215.328 359.126L214.479 366.508L211.848 366.254L212.612 358.701C212.697 358.107 213.376 357.683 214.14 357.768C214.903 357.938 215.413 358.447 215.328 359.126ZM211.678 358.701L210.829 366.169L208.198 365.83L209.047 358.447C209.132 357.768 209.811 357.428 210.49 357.428C211.254 357.598 211.763 358.107 211.678 358.701ZM207.944 358.362L207.18 365.83L204.464 365.49L205.313 358.022C205.397 357.428 206.076 357.004 206.84 357.004C207.519 357.089 208.029 357.768 207.944 358.362ZM204.379 357.938L203.53 365.405L200.899 365.066L201.748 357.598C201.833 357.004 202.512 356.58 203.191 356.58C203.87 356.75 204.464 357.259 204.379 357.938ZM200.644 357.513L199.881 364.981L197.165 364.642L198.013 357.259C198.098 356.58 198.692 356.24 199.456 356.24C200.22 356.41 200.729 356.919 200.644 357.513ZM235.358 344.784L234.594 352.252L231.878 351.913L232.727 344.445C232.812 343.851 233.406 343.427 234.17 343.427C234.934 343.681 235.443 344.19 235.358 344.784ZM231.794 344.445L230.86 351.913L228.314 351.573L229.162 344.106C229.247 343.512 229.841 343.087 230.605 343.087C231.284 343.172 231.794 343.766 231.794 344.445ZM228.059 344.021L227.21 351.488L224.579 351.149L225.428 343.596C225.513 343.087 226.107 342.578 226.871 342.663C227.635 342.833 228.144 343.342 228.059 344.021ZM224.494 343.596L223.561 351.064L221.014 350.809L221.778 343.342C221.948 342.663 222.542 342.323 223.306 342.323C223.985 342.408 224.494 343.002 224.494 343.596ZM220.76 343.172L219.911 350.64L217.28 350.3L218.129 342.833C218.214 342.239 218.808 341.814 219.572 341.814C220.335 341.984 220.845 342.578 220.76 343.172ZM217.11 342.833L216.261 350.3L213.715 349.961L214.479 342.408C214.564 341.899 215.243 341.39 215.922 341.475C216.686 341.645 217.195 342.154 217.11 342.833ZM213.461 342.408L212.612 349.876L209.981 349.621L210.829 342.154C210.829 341.475 211.508 341.135 212.272 341.135C213.036 341.22 213.545 341.729 213.461 342.408ZM209.811 341.984L208.962 349.452L206.416 349.112L207.18 341.645C207.265 341.051 207.944 340.626 208.623 340.711C209.302 340.796 209.896 341.39 209.811 341.984ZM206.076 341.645L205.313 349.112L202.597 348.773L203.445 341.22C203.53 340.711 204.209 340.202 204.973 340.287C205.652 340.372 206.246 340.966 206.076 341.645ZM202.512 341.135L201.663 348.603L199.032 348.349L199.881 340.881C199.965 340.202 200.644 339.863 201.323 339.863C201.918 340.032 202.597 340.541 202.512 341.135ZM237.226 328.407L236.377 335.874L233.746 335.62L234.594 328.067C234.679 327.473 235.273 327.049 236.037 327.134C236.716 327.303 237.31 327.812 237.226 328.407ZM233.491 328.067L232.727 335.535L230.011 335.195L230.86 327.728C230.945 327.134 231.624 326.709 232.303 326.709C233.067 326.879 233.576 327.473 233.491 328.067ZM229.926 327.728L229.078 335.195L226.446 334.856L227.295 327.388C227.38 326.794 227.974 326.37 228.738 326.37C229.332 326.455 229.926 327.049 229.926 327.728ZM226.192 327.218L225.343 334.686L222.712 334.432L223.561 326.964C223.646 326.285 224.24 325.946 225.004 325.946C225.767 326.115 226.277 326.624 226.192 327.218ZM222.627 326.879L221.693 334.347L219.147 334.007L219.911 326.54C220.081 325.946 220.675 325.521 221.439 325.521C222.033 325.691 222.627 326.285 222.627 326.879ZM218.893 326.455L218.044 333.922L215.413 333.583L216.261 326.115C216.346 325.521 216.94 325.097 217.704 325.097C218.468 325.267 218.977 325.861 218.893 326.455ZM215.243 326.115L214.394 333.498L211.848 333.244L212.612 325.776C212.697 325.097 213.376 324.758 214.14 324.758C214.734 324.927 215.328 325.436 215.243 326.115ZM211.593 325.691L210.745 333.159L208.113 332.819L208.962 325.352C208.962 324.758 209.641 324.333 210.405 324.418C211.169 324.503 211.678 325.012 211.593 325.691ZM207.944 325.267L207.095 332.734L204.549 332.395L205.313 324.927C205.397 324.333 206.076 323.909 206.755 323.909C207.434 324.079 207.944 324.673 207.944 325.267ZM204.294 324.927L203.445 332.31L200.729 332.055L201.578 324.588C201.663 323.909 202.342 323.57 203.106 323.57C203.87 323.739 204.379 324.248 204.294 324.927ZM238.923 312.198L238.159 319.581L235.528 319.327L236.377 311.774C236.377 311.18 237.056 310.756 237.735 310.841C238.499 311.01 239.093 311.519 238.923 312.198ZM235.358 311.689L234.51 319.157L231.878 318.817L232.727 311.435C232.812 310.756 233.406 310.416 234.17 310.416C234.764 310.586 235.358 311.095 235.358 311.689ZM231.624 311.265L230.86 318.817L228.144 318.478L229.078 311.01C229.078 310.416 229.757 309.992 230.436 310.077C231.199 310.162 231.709 310.756 231.624 311.265ZM227.974 311.01L227.125 318.478L224.494 318.138L225.343 310.586C225.428 310.077 226.022 309.568 226.786 309.653C227.465 309.737 227.974 310.331 227.974 311.01ZM224.325 310.501L223.476 317.969L220.845 317.629L221.693 310.247C221.778 309.568 222.372 309.228 223.136 309.228C223.9 309.398 224.409 309.907 224.325 310.501ZM220.675 310.162L219.741 317.629L217.195 317.29L217.959 309.822C218.129 309.228 218.723 308.804 219.487 308.889C220.166 308.974 220.675 309.568 220.675 310.162ZM217.025 309.737L216.177 317.205L213.545 316.866L214.394 309.398C214.479 308.804 215.073 308.38 215.837 308.38C216.601 308.549 217.11 309.059 217.025 309.737ZM213.291 309.313L212.442 316.781L209.896 316.441L210.66 309.059C210.829 308.38 211.424 308.04 212.187 308.04C212.866 308.21 213.376 308.719 213.291 309.313ZM209.726 308.974L208.877 316.441L206.246 316.102L207.095 308.634C207.18 308.04 207.774 307.616 208.538 307.701C209.302 307.701 209.811 308.295 209.726 308.974ZM205.992 308.549L205.143 316.017L202.597 315.678L203.36 308.21C203.445 307.616 204.124 307.192 204.803 307.192C205.567 307.361 206.076 307.87 205.992 308.549ZM240.705 295.82L239.857 303.288L237.226 302.949L238.074 295.396C238.159 294.887 238.838 294.378 239.602 294.463C240.281 294.632 240.79 295.142 240.705 295.82ZM237.056 295.396L236.292 302.864L233.661 302.609L234.51 295.142C234.51 294.463 235.189 294.123 235.868 294.123C236.631 294.293 237.226 294.802 237.056 295.396ZM233.406 294.972L232.557 302.439L229.926 302.1L230.775 294.632C230.86 294.038 231.454 293.614 232.218 293.699C232.982 293.784 233.491 294.378 233.406 294.972ZM229.757 294.632L228.993 302.1L226.277 301.761L227.21 294.293C227.21 293.699 227.889 293.275 228.568 293.275C229.332 293.444 229.926 293.954 229.757 294.632ZM226.107 294.208L225.258 301.676L222.627 301.421L223.476 293.954C223.561 293.275 224.155 292.935 224.919 292.935C225.598 293.02 226.107 293.614 226.107 294.208ZM222.457 293.784L221.609 301.251L218.977 300.912L219.826 293.444C219.911 292.85 220.505 292.426 221.269 292.511C221.948 292.596 222.542 293.19 222.457 293.784ZM218.808 293.444L217.959 300.912L215.328 300.573L216.177 293.105C216.261 292.511 216.856 292.087 217.619 292.087C218.298 292.256 218.808 292.765 218.808 293.444ZM215.158 293.02L214.309 300.488L211.678 300.233L212.527 292.765C212.612 292.087 213.206 291.747 213.97 291.747C214.649 291.832 215.243 292.341 215.158 293.02ZM211.508 292.596L210.575 300.063L208.029 299.724L208.792 292.256C208.962 291.662 209.556 291.238 210.32 291.323C210.999 291.408 211.508 292.002 211.508 292.596ZM241.979 310.077L240.79 321.278L200.814 316.95L202.002 305.749L241.979 310.077ZM240.196 326.285L238.923 337.486L198.947 333.159L200.22 321.957L240.196 326.285ZM238.414 342.408L237.226 353.61L197.249 349.282L198.438 338.08L238.414 342.408ZM236.716 358.532L235.443 369.818L195.552 365.49L196.74 354.204L236.716 358.532ZM234.849 374.74L232.303 398.501C231.709 398.331 231.115 398.161 230.436 397.991L232.388 380.595C232.557 378.898 231.03 377.37 228.908 377.031C226.786 376.776 225.004 378.049 224.834 379.831L223.051 396.549C222.372 396.464 221.778 396.379 221.099 396.294L222.882 379.577C223.051 377.88 221.524 376.267 219.487 376.013C217.45 375.758 215.582 377.031 215.413 378.728L213.545 395.785C212.951 395.7 212.357 395.7 211.848 395.7H211.593L213.461 378.559C213.63 376.861 212.103 375.249 210.066 374.994C207.944 374.74 206.161 376.013 205.907 377.71L203.955 396.124C203.276 396.209 202.597 396.294 201.918 396.379L203.955 377.54C204.209 375.843 202.597 374.231 200.56 373.976C198.523 373.722 196.655 374.994 196.486 376.776L194.194 397.822C193.43 397.991 192.581 398.161 191.817 398.416L194.788 370.412L234.849 374.74Z" fill="#01FF70"/>
<path fill-rule="evenodd" clip-rule="evenodd" d="M501.611 414.369L472.754 414.708L476.573 410.041L478.016 408.344L478.95 407.241L480.393 405.544L481.326 404.44L482.684 402.828L501.696 379.916L520.878 402.404C520.708 402.574 520.539 402.743 520.369 402.913L532.506 391.627C534.882 393.748 537.344 395.87 539.72 397.906C541.418 395.276 544.219 391.966 547.868 392.305C554.149 392.56 554.998 402.149 554.998 402.149L551.688 402.234L551.773 404.101C552.961 405.289 553.894 406.816 554.404 408.429C554.489 408.514 554.489 408.599 554.573 408.683L554.828 409.023L554.913 409.277C555.083 409.617 555.168 409.871 555.337 410.296L542.012 410.381C546.425 410.381 550.924 410.296 555.337 410.296L555.083 409.871L554.913 409.532L554.828 409.277C554.998 409.617 555.083 409.871 555.252 410.296C555.422 410.72 555.931 411.993 556.016 412.502L563.061 412.842C564.164 413.181 564.758 413.096 565.522 416.745L543.879 416.915C543.964 417.254 533.609 416.745 533.609 416.745L511.627 416.49C511.627 416.49 511.627 415.133 511.457 414.539L501.611 414.369ZM522.406 405.713C522.745 405.798 523 405.968 523.424 406.053C523.085 405.883 522.745 405.798 522.406 405.713ZM527.498 407.156C527.838 407.156 528.008 407.156 528.347 407.241C528.008 407.156 527.753 407.156 527.498 407.156ZM532.082 414.03C531.827 413.775 531.572 413.69 531.233 413.52C531.572 413.69 531.827 413.86 532.082 414.03ZM554.489 408.768C554.404 408.683 554.404 408.599 554.319 408.514L554.489 408.768Z" fill="#01FF70"/>
<path fill-rule="evenodd" clip-rule="evenodd" d="M543.2 363.029V365.32H531.657V377.455H536.665L533.185 378.558V417H525.546V378.643L521.981 377.455H526.989V365.32H488.625V377.455H493.633L490.153 378.558V417H482.43V378.643L479.035 377.455H484.042V365.32H472.754V363.029H469.698V361.332H484.297V354.797H480.817V352.252C476.064 351.573 471.141 350.724 466.303 349.791V344.19C464.521 343.851 462.654 343.511 460.702 343.087V338.589C458.58 338.25 456.373 337.741 454.336 337.316C454.336 335.959 454.336 334.601 454.336 333.243C490.578 339.353 526.31 338.929 561.618 333.243C561.618 334.601 561.618 335.959 561.618 337.316C559.496 337.741 557.374 338.25 555.252 338.589V343.087C553.47 343.511 551.603 343.935 549.651 344.275V349.791C544.898 350.809 539.975 351.743 535.137 352.421V354.797H531.742V361.332H546.256V363.029H543.2ZM492.275 353.525V354.797H488.795V361.332H504.497V354.119C500.423 354.034 496.434 353.779 492.275 353.525ZM527.074 354.797H523.679V353.609C519.69 353.949 515.531 354.119 511.457 354.203V361.332H527.074V354.797Z" fill="#01FF70"/>
<path fill-rule="evenodd" clip-rule="evenodd" d="M437.93 129.775C435.808 131.727 436.402 131.472 431.564 130.114C427.236 128.757 429.273 128.332 425.453 130.454C421.974 132.49 416.372 134.527 413.741 136.139C414.759 138.346 423.162 145.474 425.199 148.444C424.435 148.783 423.841 149.123 422.992 149.462C421.719 150.056 421.974 150.056 420.531 149.123C417.221 147.256 406.611 141.231 404.489 140.298C401.688 141.486 394.304 145.304 391.758 145.135C390.57 145.05 388.618 144.795 388.957 143.268C389.976 139.619 396.596 137.582 400.84 135.63C402.537 134.867 402.113 134.951 402.537 133.084C402.961 131.048 405.847 116.282 406.526 115.519C406.866 115.264 409.157 114.33 409.582 114.076C409.836 115.434 409.921 116.961 410.006 118.404L410.77 126.72C410.77 128.078 411.025 129.69 411.194 130.963C413.147 129.945 415.099 129.181 417.136 128.163C427.236 123.326 425.453 126.55 427.745 121.119C429.103 118.149 429.103 116.282 432.074 116.791C431.479 122.816 433.177 126.55 437.93 129.775ZM352.206 71.3916C354.922 72.2401 354.328 72.325 358.063 68.8458C361.373 65.8757 359.336 66.3 363.749 66.6394C367.654 66.9789 373.68 66.3848 376.735 66.7243C376.82 69.1003 372.237 79.1138 371.643 82.6779C372.491 82.6779 373.17 82.6779 374.019 82.6779C375.462 82.6779 375.122 82.8476 376.226 81.405C378.433 78.2652 385.307 68.2517 386.92 66.5546C389.976 66.4697 398.208 66.6394 400.5 65.5362C401.519 64.9422 403.216 63.7542 402.198 62.5662C399.736 59.6809 392.861 60.6992 388.193 60.869C386.326 60.869 386.75 60.7841 385.562 59.2566C384.289 57.5594 375.377 45.5094 374.528 45.0851C374.189 45.0002 371.558 45.0851 371.133 45.0851C371.473 46.4428 371.982 47.8006 372.491 49.1583L375.462 57.0503C375.971 58.2383 376.481 59.8506 376.905 61.0387C374.698 60.9538 372.576 61.0387 370.285 61.0387C359.166 61.0387 362.222 63.245 357.723 59.3415C355.262 57.1351 354.498 55.6077 352.036 57.22C355.007 62.3116 355.177 66.4697 352.206 71.3916ZM351.018 63.6693C352.121 63.4996 352.546 65.2817 351.273 65.4514L349.49 65.706C348.387 65.9605 347.878 64.0936 349.151 63.9239L351.018 63.6693ZM191.029 184.17C190.435 185.358 188.737 184.509 189.331 183.406L189.756 182.388C190.35 181.285 192.047 182.133 191.453 183.236L191.029 184.17ZM193.914 178.23C193.32 179.333 191.623 178.569 192.217 177.381L193.066 175.684C193.575 174.581 195.272 175.429 194.763 176.533L193.914 178.23ZM197.309 171.611C196.8 172.629 195.018 171.95 195.612 170.762L196.546 169.065C197.055 168.047 198.752 168.725 198.243 169.998L197.309 171.611ZM200.959 165.077C200.28 166.18 198.667 165.161 199.262 164.143L200.28 162.446C200.959 161.343 202.487 162.361 201.893 163.379L200.959 165.077ZM204.694 158.712C204.015 159.73 202.402 158.797 203.081 157.694L204.099 156.081C204.694 155.063 206.391 155.997 205.712 157.1L204.694 158.712ZM208.683 152.432C208.089 153.451 206.391 152.517 207.07 151.414L208.089 149.802C208.683 148.783 210.38 149.717 209.616 150.82L208.683 152.432ZM212.842 146.323C212.078 147.341 210.635 146.153 211.314 145.219L212.332 143.692C213.096 142.674 214.624 143.862 213.86 144.795L212.842 146.323ZM217.17 140.298C216.406 141.316 214.963 140.128 215.727 139.194L216.831 137.667C217.595 136.649 219.037 137.921 218.274 138.77L217.17 140.298ZM221.584 134.612C220.905 134.951 220.056 134.357 220.141 133.594C220.056 133.169 220.48 132.575 220.99 132.49L221.584 131.727C222.348 130.793 223.875 131.981 223.027 132.915L222.857 133.169L223.196 133.254C224.385 133.678 223.621 135.461 222.517 134.951L221.584 134.612ZM226.591 128.757C225.658 129.69 224.385 128.417 225.233 127.484L226.422 126.126C227.355 125.108 228.628 126.465 227.78 127.314L226.591 128.757ZM231.684 123.241C230.835 124.174 229.392 122.901 230.326 121.968L231.599 120.61C232.448 119.677 233.806 120.95 232.957 121.883L231.684 123.241ZM236.861 117.979C235.843 118.828 234.654 117.385 235.588 116.622L236.861 115.349C237.88 114.415 239.068 115.858 238.219 116.707L236.861 117.979ZM242.293 112.888C241.36 113.736 240.086 112.379 241.02 111.53L242.463 110.257C243.397 109.409 244.67 110.851 243.651 111.7L242.293 112.888ZM247.81 108.051C246.961 108.815 245.688 107.457 246.707 106.608L248.15 105.42C249.168 104.572 250.271 106.184 249.253 106.863L247.81 108.051ZM253.751 103.384C252.733 104.147 251.629 102.62 252.648 101.941L254.091 100.838C255.109 100.074 256.213 101.602 255.194 102.28L253.751 103.384ZM259.693 99.0558C258.759 99.7346 257.571 98.292 258.674 97.5283C259.183 97.1889 259.693 96.7646 260.287 96.51C261.22 95.8311 262.409 97.2737 261.305 98.0375C260.711 98.3769 260.202 98.6315 259.693 99.0558ZM265.804 94.8977C264.785 95.5765 263.851 93.8793 264.785 93.2853L266.398 92.267C267.416 91.5881 268.435 93.2853 267.416 93.8793L265.804 94.8977ZM272.169 90.9941C271.151 91.5881 270.132 89.9758 271.236 89.2969L272.933 88.3635C273.952 87.7694 274.97 89.3818 273.867 90.0607L272.169 90.9941ZM278.705 87.43C277.516 88.024 276.752 86.3268 277.771 85.7328L279.468 84.7994C280.572 84.2902 281.421 85.9874 280.402 86.4966L278.705 87.43ZM285.325 84.1205C284.306 84.6296 283.373 83.0173 284.476 82.4233C285.07 82.1687 285.579 81.9141 286.174 81.6596C287.192 81.1504 288.041 82.7627 286.937 83.3568C286.428 83.6113 285.834 83.781 285.325 84.1205ZM292.115 80.9807C290.927 81.405 290.332 79.7078 291.351 79.2835L293.048 78.5198C294.237 78.0955 294.831 79.8775 293.727 80.2169L292.115 80.9807ZM298.99 78.2652C297.886 78.6895 297.207 76.9923 298.311 76.568L300.093 75.8891C301.112 75.4648 301.875 77.162 300.687 77.5863L298.99 78.2652ZM305.949 75.7194C304.846 76.0588 304.167 74.3616 305.355 74.0222C305.949 73.7676 306.544 73.5979 307.138 73.4282C308.156 73.0039 308.835 74.7011 307.647 75.1254C307.138 75.2951 306.544 75.4648 305.949 75.7194ZM313.079 73.4282C311.806 73.7676 311.381 71.9007 312.57 71.6461L314.352 71.137C315.54 70.7975 316.049 72.6644 314.776 72.919L313.079 73.4282ZM320.208 71.3916C319.02 71.731 318.511 69.8641 319.784 69.6095L321.566 69.1852C322.67 68.8458 323.264 70.7127 321.991 70.9673L320.208 71.3916ZM327.423 69.6944C326.319 70.0338 325.725 68.1669 326.998 67.8274L328.866 67.488C330.139 67.2334 330.393 69.1852 329.205 69.2701L327.423 69.6944ZM334.637 68.082C333.449 68.3366 333.109 66.4697 334.298 66.3L336.08 65.9605C337.353 65.706 337.693 67.5729 336.419 67.7426L334.637 68.082ZM342.021 66.8091C340.833 67.0637 340.409 65.1968 341.682 65.0271L343.464 64.6876C344.652 64.4331 345.077 66.3848 343.804 66.5546L342.021 66.8091ZM91.3005 139.704C89.1786 141.655 89.7728 141.401 84.9349 139.958C80.6063 138.685 82.6433 138.176 78.8239 140.382C75.344 142.334 69.7423 144.456 67.1111 146.068C68.1296 148.274 76.5323 155.403 78.5693 158.373C77.8054 158.712 77.2113 158.967 76.3625 159.391C75.0894 160.07 75.344 160.07 73.9011 159.136C70.591 157.269 59.9816 151.16 57.8598 150.311C55.0589 151.499 47.6748 155.318 45.1285 155.148C43.9403 155.063 41.9881 154.724 42.3276 153.196C43.3461 149.547 49.9664 147.511 54.2101 145.559C55.9076 144.795 55.4833 144.965 55.9076 143.098C56.332 140.976 59.2178 126.296 59.8968 125.532C60.1514 125.277 62.5279 124.259 62.9523 124.089C63.2069 125.447 63.2918 126.89 63.3766 128.332L64.1405 136.733C64.1405 138.006 64.3951 139.704 64.5649 140.892C66.517 139.958 68.4691 139.109 70.5061 138.176C80.6063 133.339 78.739 136.564 81.1155 131.133C82.4735 128.163 82.3886 126.296 85.4441 126.805C84.85 132.745 86.5475 136.479 91.3005 139.704ZM89.0938 132.236C87.9904 132.575 88.4148 134.357 89.6879 134.018L91.3854 133.424C92.4039 133.084 92.0644 131.302 90.7913 131.642L89.0938 132.236ZM285.24 172.714C286.258 173.562 287.277 172.035 286.343 171.271L285.579 170.677C284.561 169.829 283.458 171.356 284.391 172.12L285.24 172.714ZM280.063 168.556C281.081 169.32 282.184 167.877 281.251 167.113L279.723 165.925C278.705 165.161 277.601 166.689 278.62 167.453L280.063 168.556ZM274.206 164.058C275.14 164.822 276.328 163.379 275.31 162.531L273.782 161.428C272.763 160.749 271.575 162.191 272.678 162.955L274.206 164.058ZM268.18 159.73C269.199 160.494 270.217 158.797 269.199 158.203L267.586 157.185C266.567 156.421 265.549 158.118 266.567 158.712L268.18 159.73ZM261.984 155.572C263.003 156.251 264.021 154.639 263.003 153.96L261.39 152.942C260.372 152.263 259.268 153.79 260.372 154.469L261.984 155.572ZM255.703 151.584C256.722 152.178 257.74 150.65 256.637 149.972L255.024 148.953C254.006 148.359 252.987 149.887 254.006 150.566L255.703 151.584ZM249.253 147.765C250.441 148.359 251.205 146.747 250.271 146.068L248.574 145.135C247.471 144.541 246.622 146.153 247.64 146.832L249.253 147.765ZM242.802 144.286C243.906 144.795 244.67 143.183 243.651 142.589L241.954 141.655C240.85 141.146 240.002 142.758 241.105 143.352L242.802 144.286ZM236.097 140.976C237.201 141.486 238.049 139.873 236.946 139.279L235.249 138.515C234.23 138.006 233.296 139.534 234.4 140.213L236.097 140.976ZM229.392 137.837C230.58 138.261 231.175 136.564 230.071 136.139L228.374 135.376C227.27 134.951 226.591 136.649 227.695 137.073L229.392 137.837ZM215.558 132.406C216.831 132.745 217.255 130.963 216.152 130.708L214.369 130.114C213.096 129.775 212.672 131.557 213.775 131.812L215.558 132.406ZM208.428 130.199C209.531 130.539 210.126 128.757 208.937 128.417L207.155 127.908C205.967 127.569 205.457 129.436 206.646 129.69L208.428 130.199ZM201.299 128.247C202.317 128.587 202.996 126.805 201.723 126.465L199.941 126.041C198.583 125.702 198.328 127.653 199.516 127.823L201.299 128.247ZM194.084 126.465C195.272 126.72 195.612 124.853 194.424 124.683L192.556 124.344C191.368 124.089 190.944 125.956 192.217 126.126L194.084 126.465ZM186.785 125.108C187.888 125.362 188.398 123.495 187.124 123.241C186.53 123.156 185.851 122.986 185.257 122.901C184.154 122.647 183.645 124.514 184.918 124.768C185.512 124.938 186.191 125.023 186.785 125.108ZM179.401 124.004C180.674 124.174 180.844 122.307 179.655 122.222L177.873 121.968C176.6 121.798 176.43 123.665 177.618 123.75L179.401 124.004ZM172.017 123.241C173.205 123.326 173.46 121.544 172.186 121.374L170.319 121.204C169.216 121.034 168.876 122.901 170.234 123.071L172.017 123.241ZM164.633 122.732C165.906 122.816 165.821 120.95 164.717 120.95L162.85 120.865C161.577 120.78 161.577 122.647 162.765 122.647L164.633 122.732ZM157.164 122.562C158.352 122.562 158.437 120.695 157.164 120.695C156.569 120.695 155.89 120.695 155.296 120.695C154.193 120.695 154.023 122.562 155.296 122.562C155.975 122.562 156.569 122.562 157.164 122.562ZM149.695 122.732C151.053 122.562 150.798 120.78 149.61 120.865L147.827 120.95C146.554 121.034 146.724 122.901 147.912 122.816L149.695 122.732ZM142.31 123.071C143.499 122.986 143.329 121.119 142.141 121.204L140.273 121.374C139.085 121.459 139.255 123.326 140.443 123.241L142.31 123.071ZM134.926 123.75C136.03 123.665 135.945 121.798 134.672 121.968C134.078 122.053 133.399 122.138 132.804 122.222C131.701 122.307 131.786 124.174 133.059 124.004C133.653 123.92 134.247 123.835 134.926 123.75ZM127.542 124.768C128.815 124.514 128.391 122.732 127.203 122.986L125.335 123.241C124.147 123.58 124.487 125.362 125.675 125.108L127.542 124.768ZM120.158 126.041C121.346 125.787 121.092 123.92 119.819 124.174L117.951 124.514C116.848 124.768 117.103 126.55 118.291 126.296L120.158 126.041ZM112.944 127.484C114.047 127.314 113.792 125.447 112.519 125.702L110.737 126.126C109.464 126.465 110.058 128.247 111.161 127.908L112.944 127.484ZM105.729 129.266C106.918 128.926 106.408 127.059 105.22 127.484L103.438 127.908C102.249 128.247 102.759 130.03 103.947 129.69L105.729 129.266ZM98.5149 131.218C99.7031 130.878 99.2788 129.011 98.0056 129.436L96.3081 129.945C95.2048 130.284 95.5443 132.066 96.8174 131.727L98.5149 131.218ZM435.723 122.307C434.62 122.647 435.044 124.429 436.317 124.089L438.015 123.495C439.033 123.156 438.779 121.374 437.421 121.798L435.723 122.307ZM631.869 162.87C632.888 163.634 633.991 162.106 632.973 161.428L632.209 160.749C631.19 159.9 630.087 161.512 631.021 162.191L631.869 162.87ZM626.692 158.712C627.711 159.476 628.814 157.948 627.88 157.185L626.353 156.081C625.334 155.318 624.231 156.76 625.249 157.524L626.692 158.712ZM620.836 154.13C621.769 154.893 622.958 153.451 621.939 152.687L620.411 151.584C619.393 150.82 618.205 152.263 619.308 153.111L620.836 154.13ZM614.81 149.802C615.828 150.481 616.846 148.868 615.828 148.189L614.3 147.171C613.197 146.492 612.178 148.105 613.282 148.783L614.81 149.802ZM608.614 145.644C609.632 146.323 610.651 144.71 609.632 144.031L608.02 143.013C607.001 142.334 605.983 143.946 607.001 144.625L608.614 145.644ZM602.333 141.655C603.351 142.334 604.37 140.807 603.351 140.043L601.654 139.025C600.72 138.431 599.617 139.958 600.72 140.722L602.333 141.655ZM595.967 137.837C597.071 138.431 597.835 136.818 596.901 136.224L595.203 135.206C594.1 134.697 593.251 136.309 594.27 136.903L595.967 137.837ZM589.432 134.357C590.535 134.867 591.384 133.339 590.281 132.66L588.583 131.812C587.48 131.218 586.716 132.915 587.734 133.509L589.432 134.357ZM582.727 131.048C583.83 131.557 584.679 129.945 583.576 129.351L581.878 128.502C580.859 127.993 579.926 129.605 581.029 130.199L582.727 131.048ZM576.022 127.908C577.21 128.332 577.804 126.635 576.701 126.211L575.003 125.447C573.815 125.023 573.136 126.805 574.239 127.144L576.022 127.908ZM569.062 125.108C570.165 125.532 570.929 123.835 569.741 123.326L568.043 122.732C566.94 122.307 566.261 124.004 567.364 124.429L569.062 125.108ZM562.187 122.562C563.46 122.901 563.885 121.034 562.781 120.78L560.999 120.186C559.726 119.846 559.301 121.628 560.405 121.968L562.187 122.562ZM555.058 120.271C556.246 120.61 556.755 118.828 555.567 118.573L553.784 118.064C552.596 117.725 552.087 119.507 553.275 119.762L555.058 120.271ZM547.928 118.319C548.947 118.658 549.626 116.876 548.352 116.537L546.57 116.113C545.212 115.773 544.957 117.725 546.146 117.895L547.928 118.319ZM540.714 116.622C541.902 116.876 542.241 114.925 541.053 114.755L539.186 114.415C537.998 114.161 537.658 116.028 538.846 116.197L540.714 116.622ZM533.414 115.179C534.518 115.434 535.027 113.567 533.754 113.397C533.16 113.227 532.566 113.142 531.887 113.058C530.868 112.888 530.274 114.755 531.547 114.925C532.141 115.009 532.82 115.094 533.414 115.179ZM526.03 114.076C527.303 114.246 527.473 112.379 526.285 112.294L524.503 112.039C523.229 111.87 523.06 113.736 524.248 113.821L526.03 114.076ZM518.646 113.312C519.834 113.482 520.089 111.615 518.816 111.445L516.949 111.276C515.845 111.191 515.506 112.973 516.864 113.142L518.646 113.312ZM511.262 112.888C512.535 112.888 512.45 111.021 511.347 111.021L509.48 110.936C508.207 110.936 508.207 112.718 509.395 112.803L511.262 112.888ZM503.793 112.633C504.981 112.633 505.066 110.851 503.793 110.766C503.199 110.766 502.52 110.766 501.926 110.766C500.822 110.766 500.653 112.633 501.926 112.633C502.605 112.633 503.199 112.633 503.793 112.633ZM496.324 112.803C497.682 112.718 497.427 110.851 496.239 110.936L494.457 111.021C493.184 111.106 493.353 112.973 494.542 112.888L496.324 112.803ZM488.94 113.142C490.128 113.058 490.043 111.191 488.77 111.36L486.903 111.53C485.715 111.615 485.884 113.397 487.073 113.312L488.94 113.142ZM481.556 113.906C482.659 113.736 482.574 111.87 481.301 112.039C480.707 112.124 480.028 112.209 479.434 112.294C478.331 112.379 478.415 114.246 479.689 114.076C480.283 113.991 480.877 113.906 481.556 113.906ZM474.172 114.84C475.445 114.585 475.02 112.803 473.832 113.058L471.965 113.397C470.777 113.652 471.116 115.434 472.304 115.179L474.172 114.84ZM466.788 116.113C467.976 115.858 467.721 114.076 466.448 114.33L464.581 114.67C463.477 114.925 463.732 116.791 464.92 116.537L466.788 116.113ZM459.573 117.64C460.677 117.385 460.422 115.519 459.149 115.858L457.366 116.197C456.093 116.537 456.687 118.319 457.791 117.979L459.573 117.64ZM452.359 119.337C453.547 118.998 453.038 117.216 451.934 117.555L450.067 117.979C448.879 118.319 449.388 120.101 450.576 119.762L452.359 119.337ZM445.229 121.289C446.333 120.95 445.908 119.167 444.72 119.507L442.938 120.016C441.834 120.356 442.174 122.222 443.447 121.798L445.229 121.289Z" fill="#98050B"/>
</g>
<defs>
<clipPath id="clip0_166_8520">
<rect width="679" height="417" fill="white"/>
</clipPath>
</defs>
</svg>
