<svg width="766" height="413" viewBox="0 0 766 413" fill="none" xmlns="http://www.w3.org/2000/svg">
<path opacity="0.77" d="M724.751 412.984H724.483C713.542 399.121 702.806 384.944 692.116 370.814C656.825 324.165 621.926 278.019 581.038 245.892C486.797 171.816 360.723 172.334 124.781 412.984H124.483C360.628 172.083 486.813 171.58 581.18 245.719C622.083 277.861 656.997 324.008 692.289 370.689C703.01 384.866 713.778 399.09 724.751 412.984ZM734.041 412.984H733.758C719.799 396.78 706.122 379.962 692.446 363.16C654.514 316.526 616.707 270.034 573.383 237.389C471.753 160.845 339.658 160.499 104.109 413H103.811C339.548 160.248 471.769 160.594 573.509 237.232C616.864 269.893 654.671 316.385 692.619 363.034C706.327 379.868 720.05 396.748 734.041 412.984ZM744.998 412.984H744.699C727.502 394.642 710.634 375.247 693.719 355.804C652.926 308.935 611.928 261.798 565.727 228.54C456.41 149.859 317.949 148.947 84.3965 412.984H84.1136C317.839 148.68 456.426 149.607 565.853 228.383C612.07 261.657 653.083 308.793 693.877 355.678C710.839 375.152 727.753 394.595 744.998 412.984ZM757.606 412.984H757.307C736.729 392.756 716.451 370.862 696.03 348.826C652.077 301.406 607.464 253.264 557.883 219.282C440.58 138.903 295.469 137.819 65.674 412.984H65.391C295.359 137.567 440.596 138.652 557.993 219.125C607.59 253.122 652.219 301.265 696.187 348.7C716.655 370.783 736.981 392.709 757.606 412.984ZM766 407.593V407.876C743.866 387.396 721.811 364.983 699.489 342.272C651.967 293.94 603.188 244.336 549.567 209.491C424.121 127.948 272.156 127.288 47.9576 412.984H47.6903C272.046 127.037 424.121 127.713 549.693 209.318C603.329 244.179 652.124 293.799 699.646 342.13C721.921 364.795 743.913 387.161 766 407.593ZM766 394.013V394.296C745.643 376.064 725.128 356.307 704.283 336.236C652.706 286.585 599.022 234.937 540.544 199.038C406.845 116.993 247.947 117.481 31.3258 412.969H31.0586C247.822 117.245 406.829 116.773 540.654 198.881C599.164 234.78 652.847 286.443 704.425 336.095C725.238 356.119 745.705 375.813 766 394.013ZM766 380.402V380.685C747.859 364.905 729.42 348.04 710.603 330.845C654.357 279.402 594.856 224.988 530.467 187.895C388.531 106.117 222.811 108.616 15.7944 412.984H15.5429C222.685 108.364 388.531 105.865 530.593 187.722C594.998 224.831 654.498 279.245 710.76 330.703C729.514 347.851 747.906 364.669 766 380.402ZM766 366.759V367.042C750.579 354.012 734.827 340.26 718.73 326.224C657.123 272.47 590.596 214.41 519.039 175.949C368.96 95.2875 196.763 100.82 1.44208 412.984H1.19056C196.622 100.569 368.96 95.036 519.149 175.761C590.722 214.237 657.265 272.297 718.871 326.067C734.922 340.055 750.626 353.761 766 366.759ZM766 353.085V353.368C753.927 343.45 741.571 333.124 728.964 322.578C661.258 265.948 586.163 203.156 505.865 163.187C347.958 84.5682 169.898 94.2973 -11.6527 412.984H-11.9042C169.756 94.0459 347.942 84.3325 505.96 162.998C586.273 202.983 661.383 265.79 729.105 322.42C741.665 332.92 753.974 343.199 766 353.085ZM766 339.379V339.647C758.061 333.297 749.997 326.79 741.775 320.188C667.247 260.164 581.589 191.18 490.601 149.607C326.437 74.6191 144.887 88.9377 -20 406.273V405.801C144.919 88.6862 326.484 74.4148 490.696 149.434C581.699 191.007 667.373 260.006 741.917 320.031C750.091 326.601 758.109 333.077 766 339.379ZM766 325.658V325.925C763.28 323.803 760.545 321.682 757.794 319.528C675.877 255.621 577.014 178.511 472.916 135.336C306.127 66.1788 125.834 84.2382 -20 383.357V382.87C125.866 83.9867 306.19 65.9745 472.995 135.147C577.124 178.323 675.987 255.448 757.92 319.371C760.639 321.477 763.328 323.568 766 325.658ZM766 311.905V312.173C678.361 245.531 567.566 163.155 452.48 120.451C284.638 58.1786 107.646 80.3245 -20 358.775V358.256C107.709 80.073 284.701 57.9743 452.559 120.263C567.614 162.951 678.361 245.279 766 311.905ZM766 298.137V298.404C673.566 229.797 552.507 145.41 429.058 105.158C262.095 50.7129 90.7788 77.0239 -20 332.228V331.694C90.8417 76.7724 262.158 50.5085 429.136 104.954C552.554 145.206 673.566 229.53 766 298.137ZM766 284.337V284.604C658.994 207.023 510.047 110.502 365.533 80.686C214.558 49.534 68.425 91.2324 -20 303.339V302.789C68.5036 90.9652 214.621 49.3297 365.564 80.4817C510.078 110.298 658.994 206.771 766 284.337ZM766 270.521V270.789C656.95 193.49 500.819 98.6668 352.077 69.9667C201.778 40.968 59.0244 79.5229 -20 271.983V271.417C59.103 79.2557 201.841 40.7637 352.124 69.7624C500.851 98.4467 656.935 193.239 766 270.521ZM766 256.69V256.941C655.19 180.13 492.393 87.2559 339.736 59.436C280.221 48.591 222.245 47.6322 169.505 61.3693C116.764 75.1063 69.2582 103.539 30.6656 151.477C11.4086 175.399 -5.63192 204.178 -20 238.411V237.86C-5.66336 203.816 11.3142 175.179 30.4926 151.352C69.1167 103.382 116.67 74.9334 169.442 61.1807C222.214 47.4279 280.221 48.3867 339.768 59.2474C492.409 87.0516 655.174 179.879 766 256.69ZM766 242.843V243.094C647.833 162.904 466.864 66.6818 303.989 45.3375C248.12 38.0132 194.374 39.5063 146.019 53.4791C97.6799 67.4519 54.7172 93.9044 20.4161 136.499C5.13628 155.501 -8.43008 177.694 -20 203.439V202.905C-8.47724 177.348 5.04196 155.265 20.2589 136.373C54.5757 93.7472 97.5699 67.2633 145.956 53.2905C194.342 39.302 248.105 37.8088 304.005 45.1332C466.88 66.4775 647.801 162.652 766 242.843ZM766 228.98V229.232C680.122 172.146 559.282 107.704 436.367 68.1749C344.531 38.6419 251.532 23.003 171.139 34.7439C90.7474 46.4849 22.947 85.5899 -18.5538 165.513C-19.0411 166.456 -19.5284 167.399 -20 168.358V167.886C-19.5756 167.069 -19.1668 166.252 -18.7424 165.434C22.7898 85.4484 90.6531 46.312 171.108 34.571C251.547 22.8301 344.563 38.469 436.446 68.002C559.313 107.5 680.122 171.91 766 228.98ZM766 215.102V215.353C674.211 155.564 540.497 88.5605 407.128 50.7914C316.314 25.0934 225.656 12.9281 148.518 25.8479C77.3697 37.7617 17.7123 70.9884 -20 134.565V134.141C17.7594 70.7055 77.3854 37.5259 148.471 25.6278C225.656 12.7081 316.329 24.8577 407.175 50.5871C540.528 88.3404 674.195 155.328 766 215.102ZM766 201.207V201.459C668.112 138.935 520.438 69.4952 376.49 34.0681C287.169 12.0794 199.278 3.18329 125.614 17.1404C65.1395 28.6141 14.2382 55.491 -20 103.193V102.832C14.2696 55.2395 65.1395 28.3941 125.583 16.9361C199.278 2.96325 287.2 11.8593 376.537 33.8638C520.454 69.2909 668.096 138.699 766 201.207ZM766 187.313V187.565C661.949 122.353 499.389 50.7286 345.003 18.1306C257.552 -0.321696 172.743 -6.24717 102.679 8.60581C52.8936 19.1522 10.544 40.2136 -20 74.7448V74.4148C10.5597 39.9621 52.8936 18.9322 102.647 8.38577C172.743 -6.46722 257.584 -0.541741 345.05 17.9263C499.404 50.5085 661.918 122.117 766 187.313ZM146.05 412.984C381.143 184.123 501.637 182.598 588.977 254.002C627.743 285.689 659.969 331.725 692.776 378.61C700.809 390.084 708.873 401.605 717.079 412.984H716.812C708.638 401.652 700.605 390.163 692.588 378.736C659.78 331.867 627.554 285.83 588.82 254.159C501.574 182.834 381.206 184.374 146.349 412.984H146.05Z" fill="black"/>
</svg>
