<svg width="430" height="174" viewBox="0 0 430 174" fill="none" xmlns="http://www.w3.org/2000/svg">
<path d="M240.286 102.385C242.828 103.188 245.637 104.525 248.179 104.793C248.981 104.927 249.115 103.857 248.58 103.455C247.51 102.786 246.038 102.519 244.834 102.118C243.497 101.716 242.025 101.181 240.688 100.78C239.617 100.379 239.216 102.118 240.286 102.385Z" fill="black"/>
<path d="M252.192 106.264C253.396 107.201 254.867 107.602 256.338 108.003C257.81 108.538 259.281 109.074 260.753 109.207C261.422 109.207 261.555 108.271 261.02 108.003C259.683 107.201 258.077 106.933 256.606 106.532C255.135 106.131 253.663 105.596 252.192 105.729C252.058 105.863 251.924 106.264 252.192 106.264Z" fill="black"/>
<path d="M264.9 110.278C267.441 111.348 270.117 112.017 272.926 112.686C273.996 112.953 274.397 111.348 273.327 111.08C270.518 110.412 267.843 109.876 265.033 109.609C264.632 109.743 264.632 110.144 264.9 110.278Z" fill="black"/>
<path d="M277.341 113.755C280.284 114.291 284.431 115.361 287.374 114.291C288.042 114.023 288.042 113.22 287.374 113.087C285.902 112.552 284.297 112.685 282.692 112.685C280.953 112.552 279.214 112.552 277.475 112.284C276.672 112.15 276.538 113.622 277.341 113.755Z" fill="black"/>
<path d="M292.457 115.494C295.534 115.361 298.744 115.093 301.821 114.959C303.025 114.826 303.025 112.953 301.821 113.087C298.744 113.354 295.534 113.622 292.457 113.755C291.387 113.889 291.387 115.628 292.457 115.494Z" fill="black"/>
<path d="M306.637 114.558C309.312 113.889 312.121 113.087 314.797 112.418C316.001 112.15 315.466 110.144 314.262 110.545C311.586 111.348 308.911 112.15 306.102 112.953C305.165 113.22 305.567 114.826 306.637 114.558Z" fill="black"/>
<path d="M318.943 110.278C322.154 109.207 324.963 107.468 327.371 105.06C328.039 104.392 326.969 103.321 326.3 103.99C324.16 106.264 321.485 108.003 318.676 109.074C318.007 109.341 318.274 110.545 318.943 110.278Z" fill="black"/>
<path d="M330.849 101.984C332.855 100.111 334.595 98.1045 336.2 95.8305C337.002 94.7603 335.13 93.6901 334.461 94.7603C332.989 96.9006 331.518 98.9072 329.779 100.78C329.11 101.583 330.18 102.653 330.849 101.984Z" fill="black"/>
<path d="M337.805 91.8174C339.677 89.5433 341.015 87.0017 341.818 84.1925C342.219 82.8548 340.079 82.3197 339.811 83.6574C339.276 86.3328 338.34 88.8745 337.002 91.1485C336.734 91.5499 337.403 92.2187 337.805 91.8174Z" fill="black"/>
<path d="M342.086 79.3764C342.353 77.1023 342.487 74.6945 342.754 72.4204C342.888 71.0827 340.614 70.9489 340.614 72.4204C340.614 74.6945 340.48 77.1023 340.48 79.3764C340.347 80.4466 341.952 80.4466 342.086 79.3764Z" fill="black"/>
<path d="M340.48 68.0064C341.817 65.331 340.613 61.7192 339.008 59.4451C338.072 58.1074 335.931 59.4451 336.868 60.649C337.671 61.7192 338.339 62.9231 338.741 64.127C339.276 65.331 339.41 66.6687 339.811 67.8726C339.945 68.1401 340.346 68.2739 340.48 68.0064Z" fill="black"/>
<path d="M335.263 56.6359C334.059 53.9605 331.919 51.9539 329.511 50.3487C328.174 49.5461 326.836 51.6864 328.307 52.489C330.715 53.6929 332.588 55.432 334.327 57.3047C334.728 57.9736 335.397 57.171 335.263 56.6359Z" fill="black"/>
<path d="M324.027 49.0108C323.09 47.9407 321.753 47.4056 320.415 47.0043C319.077 46.603 317.606 46.0679 316.402 46.7367C315.733 47.0043 315.867 48.0744 316.402 48.4757C317.472 49.1446 318.943 49.0108 320.147 49.1446C321.351 49.4121 322.421 49.8135 323.759 49.9472C324.16 49.8135 324.294 49.2784 324.027 49.0108Z" fill="black"/>
<path d="M310.516 47.0044C307.974 47.0044 305.299 47.807 303.426 49.546C302.623 50.2149 303.693 51.5526 304.496 51.0175C306.369 49.6798 308.108 48.8772 310.382 48.8772C311.72 48.7434 311.72 47.0044 310.516 47.0044Z" fill="black"/>
<path d="M300.082 52.0874C297.941 53.6927 295.935 55.5654 294.463 57.8395C293.794 58.9097 295.4 59.8461 296.202 58.7759C297.54 56.6356 299.145 54.8966 301.152 53.2914C301.687 52.7563 300.884 51.5523 300.082 52.0874Z" fill="black"/>
<path d="M292.858 61.8528C291.788 63.7256 291.119 65.7321 290.718 67.7387C290.45 69.0764 292.457 69.4777 292.59 68.0062C292.724 66.1334 293.259 64.2607 294.062 62.5216C294.463 61.719 293.259 61.0502 292.858 61.8528Z" fill="black"/>
<path d="M290.851 72.4205C290.316 74.4271 289.915 76.9687 290.316 78.9752C290.45 79.9116 291.921 79.6441 291.921 78.7077C292.055 76.7012 291.654 74.6946 291.921 72.6881C292.189 72.0192 291.119 71.6179 290.851 72.4205Z" fill="black"/>
<path d="M291.52 83.5236C291.921 84.8614 292.323 86.3328 292.858 87.6705C293.393 88.7407 293.794 90.0784 294.73 91.0148C295.266 91.5499 296.336 91.0148 296.068 90.2122C295.667 89.142 294.998 88.0718 294.463 87.0017C293.794 85.7977 293.393 84.46 292.858 83.1223C292.456 82.3197 291.252 82.5873 291.52 83.5236Z" fill="black"/>
<path d="M296.203 95.4291C296.738 96.4992 297.407 97.4356 297.942 98.5058C298.477 99.4422 298.878 100.512 299.681 101.315C300.35 101.85 301.42 101.315 301.152 100.512C300.885 99.4422 300.082 98.5058 299.547 97.5694C298.878 96.633 298.343 95.5628 297.674 94.6264C297.139 93.5563 295.668 94.3589 296.203 95.4291Z" fill="black"/>
<path d="M301.821 104.525C302.757 106.131 303.694 108.003 304.898 109.475C305.567 110.277 306.637 109.207 306.235 108.405C305.433 106.799 304.229 105.328 303.159 103.723C302.49 103.054 301.286 103.723 301.821 104.525Z" fill="black"/>
<path d="M306.502 112.685C308.107 114.424 309.713 116.163 311.452 117.902C312.388 118.839 313.859 117.367 312.923 116.431C311.184 114.692 309.445 113.087 307.84 111.348C307.037 110.679 305.833 111.883 306.502 112.685Z" fill="black"/>
<path d="M315.064 120.979C316.669 122.718 318.14 124.457 319.879 126.196C320.682 127.133 322.154 125.661 321.217 124.858C319.478 123.253 317.605 121.782 315.866 120.176C315.197 119.775 314.529 120.444 315.064 120.979Z" fill="black"/>
<path d="M322.956 129.139C324.026 129.942 325.096 130.744 326.166 131.547C327.103 132.216 328.173 133.152 329.243 133.687C330.18 133.955 330.581 132.885 330.046 132.216C329.243 131.28 328.039 130.611 326.969 129.942C325.899 129.139 324.695 128.47 323.625 127.668C322.822 127.133 322.153 128.604 322.956 129.139Z" fill="black"/>
<path d="M332.053 136.764C334.327 138.235 336.601 139.707 338.875 141.178C339.945 141.847 341.015 140.108 339.945 139.439C337.671 137.968 335.397 136.63 333.123 135.159C331.919 134.356 330.983 136.095 332.053 136.764Z" fill="black"/>
<path d="M343.423 143.319C344.626 143.988 345.83 144.523 347.034 145.191C348.104 145.727 349.175 146.529 350.379 146.663C351.181 146.797 351.984 145.86 351.315 145.191C350.379 144.389 349.175 143.988 347.971 143.452C346.767 142.917 345.563 142.382 344.225 141.847C343.289 141.446 342.486 142.917 343.423 143.319Z" fill="black"/>
<path d="M353.857 148.402C356.399 149.606 358.941 150.542 361.482 151.612C362.686 152.014 363.221 150.141 362.017 149.74C359.476 148.803 356.934 148.001 354.392 147.332C353.59 147.064 353.055 148.134 353.857 148.402Z" fill="black"/>
<path d="M365.361 152.549C366.565 153.485 368.037 153.753 369.374 154.154C370.98 154.555 372.718 155.09 374.324 155.224C375.394 155.224 375.394 153.886 374.591 153.485C372.986 152.816 371.113 152.549 369.508 152.281C368.17 152.014 366.699 151.746 365.495 152.014C365.227 152.147 365.094 152.415 365.361 152.549Z" fill="black"/>
<path d="M378.471 156.829C381.013 157.364 383.554 158.033 386.23 158.301C387.166 158.435 387.3 156.963 386.497 156.696C383.956 156.161 381.28 155.893 378.739 155.759C378.07 155.625 377.936 156.696 378.471 156.829Z" fill="black"/>
<path d="M391.313 159.371C393.855 160.174 396.53 160.575 399.205 160.441C400.543 160.441 400.543 158.435 399.205 158.435C396.664 158.435 394.122 158.301 391.714 157.9C390.778 157.632 390.376 158.97 391.313 159.371Z" fill="black"/>
<path d="M404.155 160.709C406.964 160.709 410.04 160.976 412.85 160.441C413.518 160.308 413.518 159.104 412.85 158.97C410.04 158.569 406.964 158.97 404.155 159.104C403.084 159.104 403.084 160.709 404.155 160.709Z" fill="black"/>
<path d="M417.264 160.307C419.672 160.174 422.08 160.04 424.487 159.772C425.691 159.639 425.825 157.632 424.487 157.766C422.08 158.033 419.538 158.435 417.13 158.836C416.194 158.97 416.461 160.441 417.264 160.307Z" fill="black"/>
<path d="M429.17 159.104C431.979 159.238 434.788 158.836 437.463 157.9C438.4 157.632 437.999 156.161 437.062 156.428C434.521 157.365 431.845 157.9 429.17 158.034C428.501 158.034 428.501 159.104 429.17 159.104Z" fill="black"/>
<path d="M242.025 105.462C239.751 103.857 237.879 101.582 236.942 98.9071C236.541 99.4422 236.14 99.9772 235.738 100.512C237.343 100.379 238.815 99.9772 240.286 99.8435C241.758 99.5759 243.497 99.5759 244.701 98.7733C245.236 98.372 245.236 97.4356 244.433 97.1681C242.962 96.7668 241.357 97.1681 239.885 97.4356C238.28 97.5694 236.808 97.8369 235.203 97.9707C234.534 98.1045 233.999 99.0409 234.267 99.5759C235.604 102.92 237.745 105.596 240.688 107.602C242.159 108.405 243.363 106.398 242.025 105.462Z" fill="black"/>
<path d="M213.131 172.347C216.074 128.738 218.749 85.1289 221.425 41.3861C221.425 40.7172 221.023 40.3159 220.354 40.3159C220.488 40.0484 220.488 39.6471 220.087 39.5133C213.398 36.169 206.71 32.9586 200.021 29.7481C201.627 27.3402 202.831 24.6648 203.366 21.7219C204.168 17.4412 203.499 12.6255 200.556 9.14749C196.811 5.00061 190.657 3.93045 185.44 3.2616C175.274 1.9239 162.298 5.53569 161.228 17.575C161.094 18.5114 161.228 19.5816 161.228 20.5179C151.864 21.1868 142.5 21.8556 133.136 22.6583L133.003 22.5245C122.167 16.6386 111.198 10.619 100.363 4.86684C100.63 4.46553 100.496 3.93045 99.9613 3.79668C99.4262 3.79668 98.8912 3.66291 98.3561 3.66291C98.0885 3.52914 97.9548 3.52914 97.6872 3.66291C84.9791 2.86029 72.2709 2.19144 59.5628 0.452432C59.2952 0.452432 58.8939 0.452432 58.7601 0.586202C58.2251 -0.0826481 57.0211 -0.350188 56.486 0.719972C35.0828 40.5835 16.6226 81.7846 0.0350817 123.922C-0.232458 124.725 1.10524 125.394 1.50655 124.457C18.6291 82.9886 37.3569 42.1887 58.6264 2.59275C58.7601 2.59275 58.8939 2.72652 59.0277 2.72652C71.6021 4.46553 84.3102 5.66946 97.0184 5.26815C97.1521 5.40192 97.2859 5.53569 97.4197 5.66946C97.5535 5.66946 97.5535 5.80323 97.6872 5.80323C97.6872 6.07077 97.5535 6.20454 97.5535 6.47208C97.4197 6.33831 97.2859 6.20454 97.0184 6.20454C95.8144 6.20454 94.7443 6.20454 93.5404 6.20454C93.4066 6.07077 93.2728 5.937 93.0053 5.80323C92.4702 5.53569 91.8013 5.66946 91.5338 6.07077C81.3673 5.937 71.2008 5.80323 61.0342 5.53569C61.168 5.13438 61.3018 4.86684 61.4355 4.46553C61.8369 3.52914 60.2316 2.86029 59.6965 3.79668C59.429 4.33176 59.1615 4.86684 58.7601 5.53569C58.3588 5.53569 58.0913 6.07077 58.2251 6.47208C53.6769 15.0334 49.9313 24.1297 45.9182 32.8248C41.37 42.4562 36.8218 52.2214 32.2737 61.8529C23.1773 81.2495 14.0809 100.646 5.51965 120.177C5.25211 120.845 6.18851 121.381 6.45605 120.712C14.8836 103.723 23.0435 86.4666 31.2035 69.344C31.3373 69.344 31.3373 69.344 31.471 69.344C33.8789 68.4076 36.5543 68.0063 38.8284 66.9362C41.37 65.866 42.574 64.2607 44.1792 62.1204C45.9182 59.8463 47.5235 57.1709 49.6638 55.1644C52.4729 52.489 56.7536 52.0877 59.9641 50.2149C61.5693 49.2785 62.3719 48.4759 64.2447 48.2083C66.1175 47.9408 68.3916 48.4759 70.1306 49.1447C72.1371 49.9474 74.9463 52.6228 76.6853 54.0942C78.8256 55.8332 77.7555 57.8398 78.6919 59.9801C79.3607 61.5854 81.0997 62.1204 82.705 62.388C80.8322 69.6116 78.9594 76.9689 77.0866 84.1925C74.1437 95.6967 70.7994 107.335 68.5254 118.973C68.5254 119.106 68.6591 119.106 68.6591 118.973C72.2709 107.602 74.9463 95.9643 77.8893 84.3263C79.762 77.1027 81.6348 69.7453 83.5076 62.5217C83.7751 62.5217 83.9089 62.6555 84.0427 62.6555C86.7181 63.3244 88.0558 62.6555 90.7312 62.1204C93.2728 61.7191 96.2157 62.5217 98.6236 61.184C102.369 59.1775 100.496 53.8267 99.4262 50.6162C98.3561 47.4057 97.0184 44.7303 96.6171 41.2523C96.2157 38.3094 96.3495 33.7612 98.8912 31.6209C100.898 30.0156 110.663 31.3533 109.459 26.1363C109.058 24.3973 106.516 23.1933 105.178 22.1232C102.77 20.2504 99.9613 18.9127 97.5535 17.1737C96.6171 16.5048 96.2157 15.9698 95.9482 15.3009C96.4833 13.2944 97.0184 11.2878 97.4197 9.28126C101.834 12.358 106.784 14.6321 111.599 17.1737C118.154 20.5179 124.575 23.8622 131.264 26.9389C131.799 27.2064 132.066 26.5376 131.665 26.2701C125.779 22.792 119.759 19.7153 113.74 16.6386C108.389 13.9632 102.637 11.4216 97.821 7.80978C97.9548 7.2747 98.0885 6.73962 98.2223 6.20454C109.727 12.2242 120.963 18.2438 132.2 24.1297C132.334 24.531 132.601 24.7986 133.136 24.7986C142.634 23.996 152.132 23.3271 161.629 22.5245C161.763 23.1933 161.897 23.996 162.164 24.6648C161.629 24.6648 161.094 24.6648 160.559 24.7986C160.425 24.7986 160.158 24.6648 160.024 24.7986C159.89 24.7986 159.89 24.7986 159.757 24.7986C151.061 25.1999 142.233 25.735 133.538 26.2701C132.467 26.4038 132.601 27.8753 133.538 27.8753C140.895 27.6078 148.119 27.0727 155.476 26.6714C154.004 27.6078 152.934 28.6779 152.132 30.2832C151.061 32.5572 150.526 35.2326 149.322 37.373C148.119 39.6471 145.309 42.1887 143.169 43.6602C141.162 45.1316 138.755 46.068 136.213 46.4693C134.608 46.7369 133.404 46.4693 132.066 46.2018C132.735 41.5198 133.404 36.8379 134.073 32.1559C134.073 31.7546 133.404 31.4871 133.404 32.0222C132.735 36.7041 132.066 41.3861 131.531 46.2018C131.397 46.2018 131.264 46.2018 130.996 46.2018C127.652 45.8005 122.435 45.9343 120.829 49.4123C118.823 53.9605 122.702 58.3749 120.161 62.9231C119.09 64.9296 116.95 67.4712 115.211 68.8089C112.001 71.6181 108.79 71.8856 104.911 72.1532C97.1521 72.6883 98.7574 83.1223 102.102 87.6705C104.643 91.1485 108.255 92.8875 112.268 93.8239C114.676 94.359 117.218 94.6265 119.759 95.1616C121.097 95.4292 122.301 95.8305 123.505 95.8305C122.702 100.245 122.033 104.793 121.231 109.207C119.09 109.074 116.816 109.743 115.479 111.615C114.408 113.221 113.873 114.826 112.001 115.896C110.262 116.832 108.389 116.297 106.382 116.565C100.496 117.1 102.637 122.451 105.446 125.394C108.523 128.604 112.803 131.948 117.351 133.286C116.816 136.63 116.415 139.975 115.88 143.453C115.88 143.453 116.014 143.586 116.014 143.453C116.683 140.108 117.351 136.764 117.886 133.42C119.224 133.687 120.562 133.955 121.9 133.821C125.645 133.554 129.391 132.617 133.003 131.948C134.474 131.681 135.945 131.413 137.417 130.878C139.29 130.209 141.029 128.738 143.035 128.203C147.316 127.266 152.265 127.534 156.412 129.005C159.89 130.209 162.566 132.483 166.177 133.42C166.713 133.554 167.248 133.687 167.783 133.821C167.114 137.968 166.713 142.115 166.579 146.128C166.311 146.529 166.311 147.064 166.846 147.332H166.98C150.259 146.396 133.538 147.599 116.95 150.275C115.88 150.409 116.415 152.014 117.351 151.88C133.805 149.205 150.526 148.268 167.114 148.67C167.649 148.67 167.783 148.135 167.649 147.867C181.026 154.957 194.269 162.716 208.181 168.735C208.315 168.869 208.583 168.735 208.716 168.601C208.716 168.869 208.716 169.003 208.716 169.27C208.716 170.207 210.054 170.207 210.188 169.27C212.729 127.935 215.137 86.6004 217.144 45.2654C217.144 44.0615 215.405 44.0615 215.271 45.2654C215.137 48.7434 214.87 52.0877 214.736 55.5657C214.067 54.4955 213.398 53.4254 212.729 52.2215C211.793 50.2149 211.124 49.6798 208.984 48.7434C207.111 47.9408 205.238 47.1382 203.767 45.6667C202.429 44.329 201.627 42.3225 200.824 40.7172C200.155 39.5133 199.486 38.4431 198.817 37.2392C198.282 36.3028 197.48 35.5002 196.811 34.5638C196.811 34.43 196.945 34.43 196.945 34.2963C203.098 37.2392 209.251 40.3159 215.539 43.1251C216.074 43.3926 216.609 42.59 216.074 42.1887C210.054 38.9782 204.034 36.0353 198.015 32.9586C198.416 32.5572 198.684 32.0222 198.951 31.6209C205.773 34.8313 212.596 37.7743 219.418 40.851C219.284 40.9848 219.15 41.2523 219.15 41.5198C216.609 85.1289 214.067 128.604 211.927 172.213C196.945 164.722 181.695 157.632 166.579 150.409C165.776 150.007 165.107 150.676 165.107 151.345C157.349 151.613 149.59 151.88 141.831 152.014C133.27 152.281 124.575 152.148 116.147 152.95C115.077 153.084 115.077 154.556 116.147 154.689C124.709 154.957 133.404 154.154 141.831 153.887C150.393 153.619 158.954 153.352 167.515 152.95C182.23 159.906 196.945 166.996 211.793 173.685C212.462 173.952 212.997 173.283 212.863 172.748C213.131 172.748 213.131 172.614 213.131 172.347ZM78.1568 7.2747C76.284 10.3514 76.0165 13.6957 73.6086 16.5048C71.6021 18.9127 69.7293 19.9829 66.7863 20.7855C64.646 21.4543 62.3719 21.9894 60.3654 22.792C57.4224 23.996 55.4159 26.5376 51.9379 25.735C51.8041 25.6012 51.8041 25.4674 51.6703 25.3337C53.2756 22.1232 54.8808 18.7789 56.3523 15.5684C56.3523 16.3711 57.2887 17.1737 57.9575 16.3711C58.6264 15.5684 59.9641 15.9698 60.9005 15.7022C61.9706 15.3009 62.2382 14.3645 62.907 13.4281C63.9772 11.9567 66.9201 9.81634 66.385 7.67601C66.2513 7.2747 65.7162 7.2747 65.5824 7.67601C65.4486 8.74618 63.5759 10.2176 62.7732 11.0203C62.2382 11.5553 61.7031 12.0904 61.168 12.7593C60.9005 13.0268 60.7667 13.6957 60.3654 13.8294C59.1614 14.3645 57.69 13.5619 56.7536 14.4983C58.2251 12.0904 59.2952 9.5488 60.3654 6.87339C66.385 7.00716 72.2709 7.14093 78.1568 7.2747ZM98.7574 20.9193C101.165 22.257 103.573 23.5947 105.58 25.4674C108.79 28.5441 103.573 28.0091 101.433 28.2766C99.6938 28.5441 97.9548 29.3468 96.7508 30.6845C93.9417 33.7612 94.2092 38.9782 94.8781 42.7238C95.2794 45.2654 95.8144 47.272 96.8846 49.546C98.0885 52.2215 100.496 57.9736 97.0184 59.7126C95.0118 60.649 91.8013 59.8463 89.661 60.3814C87.6545 60.7827 86.3168 61.3178 84.1765 60.5152C85.1128 56.9034 86.0492 53.4254 86.8519 49.8136C86.9856 49.2785 86.183 49.1447 86.0492 49.546C85.1128 53.0241 84.1765 56.6359 83.3738 60.1139C82.5712 59.8463 82.705 60.1139 81.6348 59.0437C80.4309 57.706 80.8322 57.706 80.5647 56.3683C80.2971 55.1644 79.4945 53.6929 78.6919 52.7565C77.8893 51.9539 76.5516 51.5526 75.6152 50.75C74.6788 49.9474 74.0099 48.7434 72.9398 48.0746C71.2008 46.8706 68.2578 46.4693 66.2513 46.068C64.1109 45.6667 63.0408 45.8005 61.168 47.0044C56.2185 50.0811 50.0651 51.0175 46.4533 55.967C44.4467 58.6424 42.4402 62.1204 39.7648 64.127C37.6245 65.7322 34.6815 66.2673 32.0061 67.0699C32.8087 65.4647 33.4776 63.8594 34.2802 62.2542C38.8284 52.6228 43.3766 42.8575 47.9248 33.2261C48.7274 31.3533 49.6638 29.6143 50.4664 27.7415C53.2756 28.8117 56.486 27.8753 59.0277 26.5376C61.8368 24.9324 64.7798 23.7284 67.9903 22.6583C70.7994 21.7219 72.4047 20.6517 74.4112 18.2439C77.0866 15.0334 77.0866 11.5553 78.9594 8.07733C79.0932 7.80979 79.0932 7.67601 78.9594 7.54224C83.1063 7.67601 87.2532 7.67601 91.4 7.80978C91.5338 8.07732 91.9351 8.34486 92.2027 8.47863C92.604 9.41503 92.8715 11.5553 93.0053 12.0904C93.4066 13.9632 93.139 16.5048 94.343 18.1101C95.2794 19.314 97.4197 20.2504 98.7574 20.9193ZM95.8144 12.7593C95.6807 11.8229 95.2794 11.0203 95.0118 10.2176C94.7443 9.41503 94.6105 8.47863 94.343 7.67601C94.6105 7.67601 95.0118 7.67601 95.2794 7.67601C95.8144 8.07732 96.2158 8.47864 96.7508 8.87995C96.4833 10.2176 96.2158 11.4216 95.8144 12.7593ZM184.236 5.80323C189.587 6.33831 196.945 7.54225 199.888 12.6255C202.697 17.575 200.824 23.4609 198.149 27.8753C195.339 32.5572 191.594 36.7041 188.25 40.851C184.905 44.9979 181.695 49.1447 178.351 53.2916C176.076 48.6097 173.936 43.9277 171.662 39.2458C169.388 34.43 166.445 29.7481 164.974 24.7986C160.827 11.5553 172.331 4.5993 184.236 5.80323ZM116.683 92.2187C111.599 91.2823 106.249 90.4797 103.306 85.5302C102.369 83.9249 101.7 81.1158 101.433 79.1092C100.898 73.8922 105.178 74.5611 108.523 74.026C115.211 72.9558 122.301 66.4011 123.104 59.5788C123.371 56.7696 121.632 53.6929 122.301 51.0175C122.97 48.0746 128.321 47.5395 130.996 47.9408H131.13C130.862 49.9474 130.595 52.0877 130.327 54.0942C130.327 54.3618 130.728 54.4955 130.728 54.228C130.996 52.2215 131.397 50.0811 131.665 48.0746C133.27 48.4759 133.939 48.8772 135.812 48.4759C137.818 48.0746 139.959 47.5395 141.831 46.7369C145.042 45.3992 148.386 41.9212 150.393 39.112C151.73 37.2392 152.265 34.9651 153.202 32.9586C154.941 29.3468 156.546 27.474 160.559 26.4038C160.827 26.4038 160.96 26.2701 161.094 26.1363C161.629 26.1363 162.164 26.0025 162.833 26.0025C163.77 28.6779 164.974 31.3533 166.311 33.8949C169.254 39.9146 172.331 45.8005 175.541 51.6864C174.739 56.9034 173.936 62.2542 173.267 67.4712C171.261 66.8024 168.05 65.1971 166.311 67.2037C165.509 68.1401 165.509 69.344 165.509 70.4142C165.642 72.9558 165.107 74.8286 164.572 77.3702C163.502 83.1223 164.572 89.0082 157.616 91.2823C152.132 93.1551 146.915 91.6836 141.564 90.3459C137.684 89.2757 134.608 88.6069 131.13 90.7472C129.524 91.8174 127.919 92.62 126.046 93.0213C125.645 93.1551 125.244 93.1551 124.843 93.2888C125.378 90.3459 125.779 87.403 126.314 84.46C128.321 84.9951 130.595 84.5938 133.003 84.0587C138.621 82.8548 143.972 85.5302 149.322 82.9886C151.73 81.9184 153.603 79.5105 155.208 77.6378C156.68 75.8988 158.553 73.8922 159.355 71.7519C160.024 70.0129 160.559 68.1401 161.228 66.2673C161.629 65.3309 162.164 64.3945 162.298 63.3244C162.566 61.4516 161.362 60.1139 160.425 58.6424C158.686 56.2346 156.68 55.6995 154.406 53.9605C153.469 53.2916 152.934 52.3552 151.864 51.6864C151.061 51.2851 150.125 51.1513 149.322 50.4824C148.52 49.8136 147.45 50.75 147.985 51.5526C145.309 53.1578 143.035 55.1644 140.226 56.6359C138.621 57.4385 137.283 58.1073 135.544 58.2411C134.608 58.3749 133.805 58.2411 133.003 58.6424C131.665 59.3113 131.397 60.5152 130.996 61.8529C130.461 64.127 130.193 65.4647 128.722 67.3375C128.454 67.2037 128.187 67.2037 128.053 67.605C128.053 67.8725 127.919 68.0063 127.919 68.2739C126.983 69.344 125.913 70.2804 124.843 71.083C121.766 73.4909 118.957 76.5676 121.632 80.5807C122.702 82.1859 123.906 83.2561 125.378 83.7912C124.843 86.8679 124.307 89.9446 123.772 92.8875C121.365 93.4226 118.957 92.7538 116.683 92.2187ZM132.735 63.9932C133.404 61.9867 133.538 60.9165 135.544 60.3814C136.614 60.1139 137.417 60.3814 138.487 59.8463C142.5 58.1073 145.577 55.2982 149.055 52.6228C149.858 53.1578 150.66 53.5591 151.463 54.0942C152.8 55.1644 153.871 56.1008 155.342 56.9034C158.686 58.6424 160.96 61.3178 159.623 65.3309C159.088 66.9362 158.285 68.5414 157.616 70.1466C156.145 74.1597 151.061 80.3132 146.781 81.5171C142.634 82.5872 138.621 80.982 134.474 81.5171C131.932 81.9184 129.524 83.2561 126.715 82.721C126.582 82.721 126.582 82.721 126.448 82.5872C127.117 78.7079 127.785 74.8286 128.321 70.9493C129.792 69.6116 131.264 68.0063 131.932 66.2673C132.467 65.5985 132.467 64.7958 132.735 63.9932ZM125.645 82.3197C123.772 81.5171 123.772 79.7781 123.772 77.6378C123.772 74.4273 123.772 74.6948 125.913 73.0896C126.448 72.6883 126.849 72.287 127.384 71.8856C126.849 75.4974 126.18 78.8417 125.645 82.3197ZM125.511 95.6967C130.06 94.6266 133.538 91.1485 138.22 91.9511C141.029 92.4862 143.704 93.5564 146.513 94.0915C149.189 94.7603 151.329 94.4928 154.138 94.2252C157.884 93.8239 161.629 93.0213 163.903 89.9446C166.98 85.5302 166.177 80.5807 167.515 75.6312C167.917 74.026 167.783 72.5545 168.05 71.083C168.585 68.1401 169.12 69.0765 170.993 69.6116C171.528 69.7453 172.197 70.0129 172.732 70.1466C171.261 81.3833 170.191 92.62 169.388 103.99C167.248 102.787 164.305 102.251 162.031 102.519C161.228 102.653 160.827 102.653 160.158 103.188C159.623 103.589 159.355 104.258 158.954 104.659C157.884 105.596 156.68 105.997 155.61 106.8C151.73 109.609 148.119 109.876 143.303 109.341C142.233 109.207 141.029 109.074 140.092 108.806C138.755 108.405 137.684 107.335 136.481 106.933C135.143 106.532 134.742 106.666 133.404 107.067C130.06 108.137 125.913 110.01 122.301 110.278C122.301 110.144 122.301 110.144 122.301 110.01C123.104 105.328 123.906 100.646 124.709 95.9642C124.709 95.6967 125.11 95.6967 125.511 95.6967ZM110.128 126.33C108.656 125.26 107.051 124.056 105.981 122.584C104.777 120.979 104.242 120.845 105.847 119.374C107.452 118.036 107.72 118.571 109.593 118.571C111.332 118.571 113.338 117.903 114.676 116.966C117.084 115.227 116.95 112.017 119.759 111.214C119.759 111.749 120.161 112.15 120.696 112.284C119.626 118.438 118.689 124.725 117.753 130.878C114.81 129.942 112.536 128.069 110.128 126.33ZM166.177 131.146C163.903 130.477 163.101 129.407 161.362 128.203C159.355 126.865 156.412 126.196 154.004 125.661C149.322 124.591 143.437 125.126 139.156 127.4C136.347 128.872 133.805 129.273 130.595 129.942C127.384 130.611 122.836 131.681 119.492 131.28C119.09 131.28 118.689 131.146 118.288 131.012C119.492 124.725 120.562 118.438 121.632 112.15C123.639 112.017 125.645 111.348 127.518 110.679C130.193 109.876 133.538 108.271 136.347 109.207C141.564 111.08 145.978 111.348 151.463 110.813C153.336 110.679 154.004 110.545 155.342 109.207C156.68 108.004 157.884 107.468 159.221 106.532C160.292 105.729 161.094 104.526 162.432 104.258C164.037 103.99 166.98 104.927 168.184 105.462C168.585 105.729 168.853 105.863 169.254 106.131C168.987 111.08 168.719 116.164 168.585 121.113C168.585 121.381 168.987 121.381 168.987 121.113C169.388 116.431 169.656 111.749 170.057 107.201C170.859 108.539 171.127 110.278 171.662 112.017C172.465 114.157 174.07 115.628 175.14 117.501C176.612 120.177 175.809 122.183 175.14 124.859C175.006 125.527 174.739 126.196 174.605 126.999C174.471 127.668 174.204 128.337 174.07 129.139C172.598 130.076 171.261 131.146 169.789 132.082C169.522 132.082 169.388 132.082 169.12 132.082C169.254 130.477 169.388 129.005 169.656 127.4C169.656 126.999 168.987 126.865 168.853 127.266C168.585 128.738 168.318 130.209 168.05 131.815C167.381 131.681 166.579 131.28 166.177 131.146ZM208.583 167.933C195.473 159.773 181.294 153.084 167.515 145.86C167.248 145.727 167.114 145.727 166.846 145.86C167.783 142.115 168.318 138.102 168.853 134.089C170.191 134.49 171.662 134.624 173 133.955C176.076 132.483 176.076 128.47 176.879 125.661C177.682 122.718 178.484 120.177 177.013 117.367C176.21 115.896 175.006 114.826 174.204 113.354C173.267 111.615 173 109.341 172.331 107.468C171.93 106.398 171.127 105.462 170.191 104.659C171.127 93.2888 172.197 81.9184 173.669 70.5479C174.07 70.6817 174.605 70.9493 175.006 71.2168C176.879 72.287 178.351 74.6948 179.287 76.5676C180.223 78.5742 181.294 80.0456 182.497 82.0522C183.835 84.3263 183.969 87.0017 185.44 89.2757C186.109 90.4797 187.179 91.2823 187.447 92.62C187.982 94.8941 187.046 97.302 186.511 99.576C185.708 103.99 187.848 109.743 190.524 113.221C191.861 115.093 194.002 116.03 195.607 117.635C197.212 119.374 198.282 121.648 200.021 123.253C202.563 125.527 207.512 126.999 210.723 125.795C210.723 125.795 210.723 125.795 210.857 125.795C210.188 139.841 209.519 153.887 208.583 167.933ZM198.55 39.7808C199.888 42.3225 200.958 45.2654 202.831 47.4057C204.302 49.1447 206.576 49.2785 208.449 50.4824C210.723 51.8201 210.723 53.5591 211.927 55.4319C212.462 56.2346 213.8 57.3047 213.933 58.1073C213.933 58.5086 214.201 58.7762 214.469 58.91C213.398 80.5807 212.194 102.118 211.124 123.788C210.99 123.655 210.723 123.655 210.455 123.655C205.773 124.725 201.76 120.845 199.219 117.501C198.149 116.164 197.212 115.227 195.874 114.157C192.798 111.749 191.728 109.743 190.256 106.265C189.052 103.455 188.785 101.583 189.186 98.3721C189.453 96.4993 190.122 94.7603 189.855 92.8875C189.587 91.2823 189.052 90.3459 188.116 89.0082C186.778 87.0017 186.243 84.9951 185.44 82.721C184.638 80.7145 183.033 79.3768 182.096 77.504C181.561 76.3001 181.16 75.0961 180.491 73.8922C178.886 70.9493 177.28 69.0765 174.07 67.8725C174.739 62.923 175.408 58.1073 176.076 53.1578C176.478 53.8267 176.745 54.4955 177.147 55.0306C177.28 55.1644 177.414 55.2982 177.548 55.4319C177.815 56.3683 179.019 57.0372 179.688 56.1008C184.638 49.9474 189.587 43.6602 194.403 37.5067C194.938 36.8379 195.473 36.169 196.008 35.3664C196.811 36.9717 197.881 38.3094 198.55 39.7808Z" fill="black"/>
<path d="M114.81 153.352C100.095 144.79 84.3103 137.968 69.0605 130.611C67.8565 130.076 66.9202 131.815 67.9903 132.35C83.3739 139.707 98.6237 147.867 114.542 154.021C114.944 154.288 115.211 153.619 114.81 153.352Z" fill="black"/>
<path d="M66.1178 128.872C45.9185 128.069 25.853 126.464 5.92123 123.521C4.7173 123.253 4.18222 125.126 5.38615 125.26C25.4517 128.336 45.7847 130.075 66.1178 129.808C66.7866 129.808 66.7866 128.872 66.1178 128.872Z" fill="black"/>
<path d="M116.147 149.874C109.058 144.924 100.229 141.714 92.4701 137.968C84.4439 134.089 76.5515 130.209 68.5253 126.33C67.4551 125.795 66.6525 127.4 67.5889 127.935C75.7488 131.948 84.0426 135.828 92.2026 139.841C99.8274 143.453 107.72 148.268 115.746 150.676C116.281 150.676 116.415 150.141 116.147 149.874Z" fill="black"/>
<path d="M6.99134 122.852C17.0241 123.387 27.0569 124.056 37.0896 124.591C46.9886 125.126 57.2889 126.464 67.1879 125.929C67.4554 125.929 67.5892 125.394 67.1879 125.394C57.5564 123.655 47.5237 123.655 37.7585 123.119C27.4582 122.451 17.1579 121.916 6.85757 121.247C6.05495 121.247 6.05495 122.852 6.99134 122.852Z" fill="black"/>
<path d="M142.5 74.5612C143.437 74.4274 144.239 73.8923 145.042 73.7585C145.978 73.491 146.915 73.491 147.851 73.2235C149.59 72.5546 150.527 72.0195 151.196 70.1467C151.597 68.6753 152.399 65.9999 151.597 64.5284C150.794 63.1907 148.921 63.4582 148.119 62.2543C147.851 61.853 147.316 61.853 147.049 62.1205C146.781 61.853 146.514 61.7192 146.112 61.9868C145.31 62.5219 144.507 63.0569 143.704 63.7258C142.634 64.5284 141.698 64.9297 140.494 65.4648C139.022 66.2674 137.551 67.3376 137.016 68.9428C136.08 71.8858 139.691 74.8287 142.5 74.5612ZM140.761 67.2038C141.698 66.535 142.902 66.4012 143.838 65.7323C144.908 64.9297 145.845 64.1271 146.915 63.3245L147.049 63.1907C147.316 63.592 147.718 63.8596 148.253 64.1271C149.59 64.7959 150.393 64.3946 150.393 66.4012C150.393 68.1402 149.59 70.013 148.119 71.0831C147.182 71.752 145.845 71.6182 144.641 71.8858C142.768 72.2871 141.43 73.3572 139.691 71.752C137.819 70.1467 138.889 68.274 140.761 67.2038Z" fill="black"/>
<path d="M200.69 135.159C200.155 134.356 198.817 135.025 199.085 135.828C196.008 137.968 194.002 140.51 189.855 140.51C187.848 140.51 186.109 140.242 185.307 142.516C184.638 144.255 185.574 145.593 187.046 146.663C187.982 147.332 189.988 147.466 190.791 148.135C191.995 149.205 191.594 151.746 192.798 152.817C194.269 154.154 197.613 155.626 199.62 154.957C202.697 154.021 203.098 150.543 204.971 148.536C206.977 146.262 207.646 145.325 206.844 142.249C206.175 139.172 202.563 137.701 200.69 135.159ZM202.697 148.268C202.429 148.67 202.162 149.071 202.028 149.472C201.894 151.211 200.958 152.148 199.219 152.415C198.148 153.485 197.078 153.619 196.008 152.817C193.467 151.746 194.403 150.007 193.199 148.135C192.263 146.797 191.059 146.663 189.721 145.994C188.249 145.325 184.905 143.854 188.918 142.115C189.186 141.981 190.657 142.115 191.059 142.115C195.206 141.981 196.945 139.44 200.289 137.299C201.359 138.503 202.429 139.44 203.499 140.644C206.175 143.72 204.837 145.325 202.697 148.268Z" fill="black"/>
<path d="M37.4907 93.4226C40.2999 93.2888 43.109 93.2888 45.9182 93.2888C44.1792 94.4928 42.4402 95.6967 40.8349 96.9006C40.0323 97.5695 40.8349 98.9072 41.6376 98.3721C43.6441 97.0344 45.7844 95.6967 47.9247 94.4928C46.3195 99.4423 44.7143 104.392 43.109 109.207C42.7077 110.411 44.7143 110.946 45.1156 109.743C46.8546 104.526 48.4598 99.1747 50.1988 93.9577C51.5365 96.3656 53.008 98.7734 54.4795 101.181C55.1483 102.251 56.7536 101.315 56.0847 100.245C54.747 97.837 53.4093 95.4292 51.9378 93.0213C55.8172 92.8875 59.5627 92.62 63.1745 92.0849C64.1109 91.9511 63.7096 90.6134 62.907 90.6134C60.2316 90.3459 57.4224 90.3459 54.747 90.4797C55.951 89.8108 57.1549 89.0082 58.3588 88.2056C59.2952 87.6705 58.6264 85.9315 57.5562 86.3328C55.4159 87.2692 53.4093 88.3393 51.4028 89.4095C52.7405 85.1289 54.2119 80.8482 55.5496 76.4338C55.8172 78.0391 56.2185 79.5105 56.6198 80.982C56.8873 81.7846 58.3588 81.7846 58.3588 80.7145C58.0913 77.9053 57.1549 74.9623 56.486 72.1532C56.3523 71.4843 55.4159 71.3506 55.0146 71.7519C53.008 74.026 51.0015 76.3 48.9949 78.4404C48.3261 79.1092 49.3962 80.1794 50.0651 79.5105C51.4028 78.1728 52.7405 76.7014 53.9444 75.3637C52.4729 79.9118 51.0015 84.46 49.3962 89.0082C48.3261 87.2692 47.1221 85.5302 45.9182 83.9249C45.6507 83.5236 44.848 83.7912 44.9818 84.3262C45.9182 86.4666 46.9884 88.6069 48.0585 90.6134C44.4467 90.881 40.8349 91.1485 37.2231 91.2823C36.2868 91.5498 36.2868 93.4226 37.4907 93.4226Z" fill="black"/>
<path d="M180.223 26.27C184.504 26.6713 189.988 25.1999 190.925 20.3842C191.861 15.836 187.982 12.2242 183.567 12.7593C183.434 12.7593 183.3 12.7593 183.166 12.893C179.153 12.3579 174.204 12.6255 172.598 17.1737C170.993 21.9894 175.809 25.735 180.223 26.27ZM175.943 16.371C177.548 14.7658 180.089 14.632 182.364 14.7658C182.497 15.3009 182.899 15.5684 183.567 15.5684C186.912 15.1671 189.721 18.5114 187.447 21.4543C185.842 23.5946 182.096 24.1297 179.554 23.5946C176.478 22.9258 172.866 19.4478 175.943 16.371Z" fill="black"/>
</svg>
