<svg width="212" height="438" viewBox="0 0 212 438" fill="none" xmlns="http://www.w3.org/2000/svg">
<g clip-path="url(#clip0_166_251)">
<path d="M163.543 312.346C163.077 314.681 162.611 316.861 162.145 319.197C161.99 320.131 163.388 320.598 163.543 319.664C164.009 317.328 164.475 315.148 164.941 312.813C165.251 311.879 163.854 311.411 163.543 312.346Z" fill="#040404"/>
<path d="M161.213 322.778C160.747 324.179 160.437 325.425 159.971 326.826C159.66 328.072 161.524 328.695 161.99 327.293C162.456 325.892 162.766 324.646 163.232 323.245C163.543 321.999 161.524 321.377 161.213 322.778Z" fill="#040404"/>
<path d="M159.039 331.342C158.418 333.21 157.952 334.923 157.33 336.791C157.02 337.881 158.573 338.349 158.884 337.259C159.349 335.39 159.971 333.677 160.437 331.809C160.903 330.875 159.349 330.408 159.039 331.342Z" fill="#040404"/>
<path d="M155.777 340.84C155.001 342.864 154.224 344.888 153.448 346.757C153.137 347.691 154.69 348.158 155.001 347.224C155.777 345.2 156.554 343.175 157.175 341.151C157.486 340.373 156.088 340.061 155.777 340.84Z" fill="#040404"/>
<path d="M151.895 350.649C150.652 352.206 149.41 353.919 148.322 355.632C147.701 356.566 149.254 357.5 149.875 356.566C150.963 354.853 151.895 353.141 152.671 351.272C152.826 350.805 152.205 350.182 151.895 350.649Z" fill="#040404"/>
<path d="M147.08 359.524C146.614 360.303 146.148 361.081 145.527 361.86C145.061 362.483 144.284 363.106 143.818 363.884C143.352 364.663 144.284 365.285 145.061 364.818C145.837 364.195 146.303 363.261 146.614 362.483C147.08 361.704 147.39 360.77 147.701 359.836C148.167 359.369 147.39 359.213 147.08 359.524Z" fill="#040404"/>
<path d="M141.178 367.777C140.712 368.555 140.246 369.334 139.78 370.268C139.314 371.047 138.693 371.825 138.538 372.604C138.382 373.382 139.314 374.005 139.936 373.382C140.557 372.759 141.023 371.981 141.489 371.202C141.955 370.424 142.421 369.645 143.042 368.867C143.508 367.777 141.799 366.687 141.178 367.777Z" fill="#040404"/>
<path d="M135.587 376.341C134.189 378.365 132.636 380.233 131.238 382.258C130.617 383.192 132.17 384.126 132.791 383.192C134.034 381.168 135.432 379.143 136.674 377.119C137.14 376.185 136.053 375.718 135.587 376.341Z" fill="#040404"/>
<path d="M127.355 385.06C125.802 387.084 124.094 388.797 122.385 390.666C121.609 391.444 122.696 393.001 123.628 392.223C125.802 390.51 127.666 388.33 129.219 386.15C129.996 385.06 128.132 383.97 127.355 385.06Z" fill="#040404"/>
<path d="M119.279 393.935C118.192 394.402 117.415 395.337 116.484 396.115C115.707 396.738 114.154 397.361 113.999 398.606C113.999 398.918 114.154 399.229 114.464 399.229C115.552 399.541 116.639 398.139 117.415 397.361C118.347 396.582 119.279 395.648 119.59 394.402C119.745 394.247 119.59 393.935 119.279 393.935Z" fill="#040404"/>
<path d="M109.495 401.254C107.475 402.811 105.456 404.212 103.282 405.613C102.04 406.392 103.282 408.416 104.525 407.637C106.699 406.08 108.718 404.368 110.737 402.343C111.203 401.565 110.271 400.631 109.495 401.254Z" fill="#040404"/>
<path d="M98.3121 409.195C96.759 410.129 95.0505 411.219 93.4974 412.153C92.2549 412.931 93.3421 414.956 94.5846 414.177C96.1377 413.087 97.8461 412.153 99.3993 411.063C100.486 410.284 99.5546 408.416 98.3121 409.195Z" fill="#040404"/>
<path d="M88.6828 414.177C86.9744 415.423 84.9553 416.201 82.9363 416.824C81.5385 417.136 82.1597 419.315 83.5575 419.004C85.8872 418.381 87.9062 417.447 89.77 416.046C90.7019 415.267 89.77 413.399 88.6828 414.177Z" fill="#040404"/>
<path d="M78.2769 419.315C77.1898 419.938 75.9473 420.561 74.7048 421.028C73.6176 421.495 72.3751 421.651 71.2879 422.274C70.2008 422.741 70.9773 424.298 72.0645 424.142C74.5495 423.675 77.0345 422.118 79.0535 420.717C79.9854 420.094 79.2088 418.693 78.2769 419.315Z" fill="#040404"/>
<path d="M66.4733 423.987C64.4542 425.077 62.2799 425.544 60.1055 425.544C58.5524 425.544 58.5524 428.035 60.1055 427.879C62.7458 427.724 65.2308 426.945 67.4051 425.544C68.337 424.921 67.5605 423.52 66.4733 423.987Z" fill="#040404"/>
<path d="M54.9802 426.478C53.7377 426.011 52.6506 425.855 51.2528 425.544C50.0103 425.232 48.9231 424.765 47.6806 424.921C46.7487 425.077 46.4381 426.478 47.0594 427.101C48.1465 428.035 49.6996 428.191 51.0975 428.191C52.4953 428.191 53.7377 428.191 54.9802 427.412C55.4462 427.256 55.2909 426.634 54.9802 426.478Z" fill="#040404"/>
<path d="M44.1084 423.519C42.2447 422.274 40.6916 420.717 38.9832 419.315C37.7407 418.225 36.3429 419.782 37.2747 421.028C38.8278 422.897 41.0022 424.298 43.0212 425.388C44.2637 426.011 45.1956 424.142 44.1084 423.519Z" fill="#040404"/>
<path d="M36.6535 415.578C36.3429 412.931 36.8088 410.596 37.1194 408.105C37.2747 407.015 35.7216 406.08 35.1004 407.326C33.8579 409.973 34.0132 413.087 34.4791 415.89C34.7898 417.136 36.8088 416.824 36.6535 415.578Z" fill="#040404"/>
<path d="M38.6725 404.368C40.0703 401.565 42.0894 399.074 44.7297 397.205C45.6615 396.582 44.7297 395.025 43.7978 395.648C40.8469 397.672 38.6725 400.319 36.9641 403.433C36.4982 404.523 38.0513 405.458 38.6725 404.368Z" fill="#040404"/>
<path d="M48.4571 395.025C50.0103 394.091 51.5634 393.001 53.1165 392.067C54.5143 391.288 56.6886 390.977 57.6205 389.731C57.9311 389.42 57.9311 388.641 57.3099 388.641C55.6015 388.33 53.7377 389.576 52.3399 390.354C50.4762 391.444 48.9231 392.534 47.5253 394.091C47.2147 394.558 47.8359 395.493 48.4571 395.025Z" fill="#040404"/>
<path d="M61.1927 388.019C63.6777 386.306 66.318 385.683 69.1136 385.06C70.5114 384.749 69.8901 382.88 68.4923 383.036C65.5414 383.503 62.5905 385.06 60.2608 387.084C59.7949 387.396 60.5714 388.33 61.1927 388.019Z" fill="#040404"/>
<path d="M73.1516 382.88C74.7048 382.413 76.1026 381.946 77.6557 381.479C79.0535 381.167 80.6066 381.012 81.8491 380.233C82.7809 379.766 82.315 378.52 81.3831 378.52C79.83 378.365 78.2769 379.143 76.8791 379.61C75.4813 380.078 73.9282 380.7 72.5304 381.479C71.5985 381.79 72.2198 383.192 73.1516 382.88Z" fill="#040404"/>
<path d="M86.0425 378.988C88.6828 377.898 91.6337 377.586 94.4293 377.742C95.6718 377.898 95.6718 375.873 94.4293 375.718C91.1678 375.406 88.2168 376.029 85.4212 377.43C84.4894 377.742 85.1106 379.299 86.0425 378.988Z" fill="#040404"/>
<path d="M99.5545 377.43C101.108 377.275 102.505 377.119 104.059 377.119C105.456 377.119 106.854 377.586 108.097 377.119C108.718 376.963 108.873 376.029 108.252 375.718C107.009 374.939 105.456 375.095 103.903 375.095C102.35 375.095 100.642 375.25 99.0886 375.562C98.312 375.718 98.4673 377.586 99.5545 377.43Z" fill="#040404"/>
<path d="M112.911 377.275C115.862 377.742 118.658 378.053 121.609 378.365C123.007 378.521 123.007 376.341 121.609 376.185C118.813 376.029 116.018 375.874 113.222 375.874C112.445 375.874 112.135 377.119 112.911 377.275Z" fill="#040404"/>
<path d="M126.734 379.299C128.287 379.299 129.685 379.61 131.238 379.922C132.481 380.233 133.412 380.856 134.655 380.7C135.121 380.545 135.432 379.922 135.121 379.61C134.344 378.365 132.791 378.209 131.549 377.898C129.996 377.431 128.443 377.275 126.734 377.275C125.336 377.119 125.336 379.299 126.734 379.299Z" fill="#040404"/>
<path d="M138.693 382.102C141.489 382.569 143.818 383.815 146.614 384.749C147.701 385.06 148.167 383.659 147.39 383.036C145.061 381.479 141.955 380.7 139.314 380.233C138.072 380.078 137.606 381.946 138.693 382.102Z" fill="#040404"/>
<path d="M150.807 386.462C152.982 387.707 155.311 388.953 157.486 390.043C158.573 390.666 159.66 388.953 158.418 388.33C156.088 387.24 153.603 386.306 151.118 385.527C150.652 385.527 150.341 386.306 150.807 386.462Z" fill="#040404"/>
<path d="M161.524 392.845C163.388 394.091 165.251 395.648 167.27 396.582C168.202 397.05 168.979 395.96 168.358 395.181C166.96 393.468 164.475 392.223 162.611 391.133C161.369 390.51 160.437 392.223 161.524 392.845Z" fill="#040404"/>
<path d="M169.911 398.762C171.464 400.631 173.327 402.343 175.036 403.9C175.968 404.679 177.366 403.278 176.434 402.499C174.415 400.942 172.551 399.385 170.377 397.984C169.911 397.984 169.6 398.451 169.911 398.762Z" fill="#040404"/>
<path d="M178.453 407.17C179.695 408.883 180.782 410.596 182.18 412.309C183.112 413.399 184.665 412.153 183.733 411.063C182.336 409.506 180.938 407.949 179.54 406.236C179.074 405.613 177.987 406.548 178.453 407.17Z" fill="#040404"/>
<path d="M185.442 415.89C186.529 416.824 187.306 417.758 188.082 418.848C188.703 419.783 189.169 421.184 190.101 421.807C190.722 422.274 191.344 421.651 191.344 421.028C191.499 419.783 190.256 418.226 189.48 417.447C188.548 416.357 187.461 415.579 186.218 414.8C185.597 414.489 184.821 415.423 185.442 415.89Z" fill="#040404"/>
<path d="M191.965 426.167C192.741 427.256 193.518 428.191 194.295 429.281C195.071 430.215 195.692 431.305 196.779 431.928C197.401 432.239 198.177 431.616 198.022 430.993C197.711 429.748 196.779 428.813 196.158 427.879C195.382 426.789 194.605 425.855 193.829 424.765C192.897 423.208 190.878 424.765 191.965 426.167Z" fill="#040404"/>
<path d="M198.333 423.364C199.109 427.568 199.886 432.395 199.109 436.754C199.73 436.599 200.352 436.443 200.818 436.287C197.711 433.796 194.139 431.46 190.412 429.748C188.859 429.125 187.461 431.305 189.014 432.083C192.586 433.796 196.158 435.664 199.42 437.844C200.196 438.311 200.973 437.689 200.973 436.91C201.284 431.928 201.128 427.568 199.42 422.897C199.42 422.118 198.177 422.429 198.333 423.364Z" fill="#040404"/>
<path d="M158.418 315.927C159.971 315.304 160.903 314.37 161.99 313.124C162.456 312.501 162.922 312.034 163.388 311.411C163.853 310.789 164.164 309.387 164.941 309.076C164.63 309.076 164.319 309.076 164.009 309.076C164.785 309.543 165.562 311.256 165.873 312.034C166.338 313.124 166.649 314.37 167.115 315.615C167.426 316.705 169.134 316.55 169.134 315.304C169.134 313.591 168.358 311.567 167.426 310.166C166.804 309.231 165.873 307.519 164.63 307.363C163.232 307.207 162.456 309.231 161.834 310.166C160.592 312.034 159.039 313.591 158.107 315.46C157.952 315.771 158.107 316.083 158.418 315.927Z" fill="#040404"/>
<path d="M197.867 48.4245C176.744 12.768 133.257 -4.9825 92.8762 1.24573C87.7509 2.02426 82.9363 3.2699 78.1216 4.98267C77.345 5.29408 77.0344 5.76119 77.0344 6.38402C76.8791 6.22831 76.5685 6.07261 76.2579 6.07261C33.3919 15.5707 1.86373 54.9642 0.155301 98.5618C-1.70843 141.537 24.3839 181.086 64.2989 196.656C66.9392 197.746 69.7348 198.68 72.5304 199.459C91.4784 217.209 106.699 239.008 116.484 263.143C116.949 264.388 118.968 263.765 118.503 262.52C108.718 238.697 94.1187 217.521 75.326 200.238C111.048 209.424 150.807 197.902 178.453 173.612C176.744 178.75 176.434 184.511 175.812 189.805C175.036 196.189 174.57 202.573 174.415 208.957C173.949 221.725 174.57 234.493 175.968 247.261C172.706 248.195 169.445 249.129 166.183 250.063C161.679 229.977 160.126 209.58 159.505 189.027C159.505 188.248 158.418 188.248 158.418 189.027C157.486 209.736 159.815 230.444 164.475 250.53C153.137 253.8 141.644 257.226 130.306 260.807C130.306 260.651 130.306 260.496 130.306 260.496C123.783 240.877 115.241 222.192 104.525 204.597C104.214 203.974 103.282 204.597 103.593 205.22C113.688 222.971 122.075 241.655 128.442 261.118C128.442 261.274 128.598 261.43 128.598 261.43C124.56 262.676 120.522 264.077 116.639 265.323C116.018 265.478 116.173 266.257 116.484 266.412C117.26 267.658 117.881 268.748 118.658 269.994C118.658 269.994 118.658 270.149 118.813 270.149C118.968 270.617 119.434 270.928 119.9 270.772C121.143 270.461 122.385 270.149 123.473 269.682C123.317 269.838 123.317 269.994 123.473 270.305C127.355 278.09 131.549 285.72 135.742 293.35C135.897 293.661 136.053 293.817 136.363 293.817C136.053 294.284 136.363 295.062 137.14 294.907C151.429 291.17 165.873 286.81 179.695 281.672C180.316 281.516 180.472 280.893 180.161 280.426C180.472 280.27 180.627 280.115 180.627 279.647C180.161 271.084 179.695 262.52 179.229 253.8C180.316 253.489 181.404 253.177 182.491 252.866C182.957 252.71 183.112 252.399 183.267 252.088C183.423 251.932 183.423 251.776 183.423 251.62C183.423 250.686 183.112 249.752 182.957 248.818C182.801 247.883 182.646 246.794 182.336 245.859C182.18 245.236 181.559 245.236 181.248 245.548C180.316 245.859 179.385 246.015 178.297 246.326C176.9 234.026 176.278 221.725 176.589 209.424C176.744 203.352 177.055 197.123 177.676 191.051C178.297 184.978 179.851 178.594 179.695 172.366C182.957 169.408 185.908 166.294 188.859 163.18C216.504 131.416 219.455 84.5483 197.867 48.4245ZM180.782 247.105C180.938 248.351 181.093 249.596 181.404 250.842C160.747 256.603 140.091 262.831 119.279 268.748C118.658 267.814 118.037 267.035 117.415 266.101C138.848 260.34 159.971 253.956 180.782 247.105ZM178.608 279.647C178.608 279.803 178.608 279.959 178.763 279.959C164.785 283.696 150.807 288.367 137.14 293.194C137.295 292.882 137.295 292.571 137.14 292.26C132.947 284.63 128.753 277 124.249 269.682C124.249 269.527 124.094 269.527 123.938 269.527C141.799 264.544 159.66 259.406 177.521 254.267C177.831 262.676 178.142 271.084 178.608 279.647ZM77.1897 7.31825C58.7077 59.3239 66.0073 117.869 97.3802 163.335C105.922 175.636 115.862 186.847 127.2 196.501C126.268 196.656 125.336 196.968 124.404 197.123C124.249 196.968 124.094 196.812 123.938 196.812C95.6718 185.913 70.9773 168.474 53.2718 143.561C43.3319 129.547 35.411 113.354 33.8579 96.0705C32.3047 80.1885 35.7216 64.1508 42.7106 49.9816C50.4762 33.9439 62.7458 20.2418 76.4132 9.03101C76.8791 8.7196 76.5685 8.09678 76.2579 7.94107C76.4132 7.78537 76.5685 7.78537 76.7238 7.78537C77.0344 7.62966 77.1897 7.47396 77.1897 7.31825ZM3.88277 114.444C1.24248 91.2436 6.67838 67.5763 19.8798 48.1131C32.926 28.9613 52.8059 15.1035 74.8601 8.25249C49.5443 27.4043 30.441 56.3655 30.5963 89.2194C30.9069 122.696 52.8059 153.526 77.6557 173.923C90.0806 184.044 104.214 192.764 119.279 198.213C106.388 200.549 93.1868 200.549 80.4513 197.902C40.2256 189.494 8.69743 155.55 3.88277 114.444ZM195.382 148.232C181.093 171.276 156.864 188.248 130.462 195.722C88.6828 160.377 66.0073 106.658 70.0454 52.0058C71.1326 36.9023 74.3941 22.1103 79.3641 7.94107C81.0725 7.47396 82.7809 7.16255 84.4894 6.69543C84.6447 6.85113 84.8 7.00684 84.9553 7.00684C113.999 14.9478 139.159 34.8782 153.758 61.3481C168.357 87.6624 170.532 119.271 161.213 147.765C155.933 163.802 147.235 178.594 135.431 190.584C134.034 191.985 136.363 194.165 137.761 192.764C159.039 170.965 170.842 140.447 170.066 109.928C169.289 78.6314 154.535 49.2031 131.083 28.9613C118.658 18.2176 104.214 10.4324 88.6828 5.9169C104.68 3.1142 120.988 3.2699 137.14 7.62966C155.933 12.7679 173.483 23.2002 186.063 38.148C211.534 68.3549 216.193 114.444 195.382 148.232Z" fill="#040404"/>
<path d="M109.339 43.7534C101.884 31.4527 93.1868 19.152 82.315 9.4982C81.6938 9.03108 80.9172 9.80961 81.5385 10.4324C89.6146 20.3976 97.8461 30.2071 104.835 41.1064C111.514 51.8501 117.26 63.0609 121.764 74.8946C130.927 98.2504 135.742 123.319 135.897 148.388C135.897 162.868 134.189 177.193 131.238 191.362C130.927 193.075 133.412 193.698 133.878 191.985C145.837 142.315 135.587 87.351 109.339 43.7534Z" fill="#040404"/>
<path d="M147.546 277.467C150.186 277.312 152.671 277.156 155.311 276.845C153.913 278.402 152.36 279.959 150.807 281.36C150.341 281.827 151.118 282.606 151.584 282.139C153.447 280.426 155.156 278.557 156.709 276.689C159.194 276.378 161.524 275.91 164.009 275.443C162.921 276.689 161.679 277.935 160.436 279.18C160.126 279.492 160.592 280.114 160.902 279.803C162.766 278.402 164.319 276.845 165.872 274.976C168.357 274.509 170.687 273.886 173.172 273.263C173.793 273.108 173.483 272.018 172.861 272.174C170.842 272.796 168.823 273.263 166.804 273.731C168.047 272.018 169.289 270.149 170.221 268.125C171.619 267.814 173.017 267.502 174.414 267.191C175.036 267.035 174.725 266.257 174.104 266.257C173.017 266.412 171.929 266.724 170.842 266.879C171.774 264.855 172.395 262.831 173.017 260.807C173.172 260.34 172.395 260.028 172.24 260.651C171.619 262.987 170.842 265.167 169.755 267.191C167.425 267.658 165.096 267.969 162.611 268.281C163.698 266.412 164.63 264.388 165.562 262.364C165.717 262.053 165.096 261.586 164.94 262.053C164.009 264.233 162.921 266.412 161.679 268.437C158.883 268.748 155.932 268.904 153.137 268.904C152.671 268.904 152.671 269.682 153.137 269.682C155.777 269.682 158.417 269.682 161.058 269.527C159.66 271.862 157.951 274.042 156.243 276.066C153.447 276.533 150.496 276.845 147.546 277.156C147.235 277 147.235 277.467 147.546 277.467ZM161.989 269.215C164.319 269.059 166.804 268.748 169.134 268.437C168.047 270.461 166.649 272.329 165.251 274.198C162.766 274.821 160.281 275.288 157.796 275.599C159.194 273.575 160.747 271.395 161.989 269.215Z" fill="#040404"/>
</g>
<defs>
<clipPath id="clip0_166_251">
<rect width="212" height="438" fill="white"/>
</clipPath>
</defs>
</svg>
