<svg width="290" height="156" viewBox="0 0 290 156" fill="none" xmlns="http://www.w3.org/2000/svg">
<g clip-path="url(#clip0_166_33)">
<path d="M289.472 84.6593C279.303 76.7472 268.21 69.8901 257.646 62.5055C257.646 62.3736 257.646 62.1099 257.646 61.978C254.873 49.3187 252.628 36.5275 251.307 23.7363C250.647 18.0659 250.383 12.3956 249.854 6.72528C249.458 2.9011 247.741 -0.395602 243.251 0.131871C239.158 0.527475 234.403 3.16484 230.97 5.4066C227.008 8.04396 224.763 11.8681 223.575 16.3516C222.122 21.7582 221.462 26.9011 218.028 31.3846C214.595 35.8681 209.841 38.9011 204.69 41.011C193.333 45.6264 179.995 46.2857 167.846 47.7363C155.301 49.1868 142.755 50.3736 130.21 51.4286C126.248 51.6923 122.286 51.956 118.324 52.2198C120.173 44.7033 121.23 37.1868 121.626 29.5385C121.626 29.2747 121.494 29.1429 121.362 29.011C121.23 28.7472 120.833 28.4835 120.437 28.4835C109.344 28.8791 97.9873 29.6703 88.215 35.4725C79.235 40.8791 75.0091 50.5055 68.5383 58.2857L68.4062 58.4176C65.7651 59.0769 63.2559 59.8681 60.7468 60.6593C50.1822 64.2198 39.8816 69.6264 31.694 77.2747C22.7141 85.7143 17.1676 96.7912 11.8853 107.736C11.357 108.791 13.0738 109.451 13.602 108.396C14.1303 107.473 14.6585 106.418 15.1867 105.494L15.3188 105.626C20.2049 107.604 24.6949 109.451 29.8452 110.374C35.2596 111.297 40.674 111.824 46.0884 112.088C53.4836 112.352 64.7086 112.088 67.3498 103.516C69.1986 97.3187 68.1421 87.8242 59.9545 88.2198C54.5401 88.4835 49.2578 89.9341 43.8434 90.0659C37.6366 90.3297 31.4299 89.8022 25.2232 89.2747C27.4682 86.2417 29.8452 83.4725 32.6184 80.8352C39.6175 74.1099 48.0692 69.2308 57.0492 65.6703C77.6503 57.6264 100.232 57.2308 122.022 55.6483C144.868 54.0659 168.11 52.2198 190.692 48.3956C199.672 46.945 208.916 44.3077 216.047 38.3736C219.085 35.7363 221.726 32.7033 223.443 29.011C225.82 24.2637 225.688 18.7253 227.933 13.978C229.385 10.9451 231.762 8.83517 234.668 7.12088C236.384 6.06594 239.422 4.21978 241.535 4.08791C247.213 3.56044 246.157 10.022 246.421 13.4505C246.685 16.7473 247.081 20.1758 247.345 23.4725C248.798 36.2637 250.647 49.1868 253.288 61.8461C253.156 61.8461 253.156 61.8461 253.024 61.8461C240.742 63.2967 228.857 66.1978 217.5 70.945C217.104 71.0769 216.972 71.4725 217.104 71.8681C216.708 72.2637 216.708 72.9231 217.368 73.1868C227.404 77.5385 237.969 80.8352 248.402 84C222.65 92.4396 197.295 101.67 172.204 111.824C168.506 110.242 164.677 108.791 160.847 107.473C155.301 105.626 149.226 103.121 143.415 102.33C143.151 101.67 142.491 101.275 141.699 101.407C130.474 103.516 119.249 106.154 108.288 109.451C102.741 111.033 97.1949 112.879 91.7805 114.725C87.0264 116.308 82.0082 117.89 77.6503 120.264C77.5182 120.264 77.5182 120.264 77.3862 120.132C76.7259 119.868 76.1977 120.527 76.3297 121.055C76.3297 121.187 76.3297 121.319 76.4618 121.451C76.5938 121.582 76.5938 121.582 76.7259 121.582C90.3279 126.593 104.062 130.945 118.06 134.901C93.7614 145.187 68.01 154.154 41.3343 152.571C29.0529 151.78 14.1303 149.275 6.07471 138.857C0.264146 131.604 2.64119 115.648 12.4135 112.484C13.7341 112.088 12.9417 110.11 11.4891 110.505C4.35795 112.484 0.66032 121.055 2.89902e-05 127.912C-0.924379 136.879 4.75413 143.473 11.8853 148.088C21.6576 154.154 33.939 155.868 45.296 156C57.7095 156.264 70.123 154.418 82.1403 151.385C96.0064 147.824 109.344 142.549 122.55 137.011C122.814 136.879 123.078 136.747 123.21 136.484C131.53 138.725 139.85 140.835 148.301 142.813C159.791 145.451 171.412 147.956 183.297 147.165C193.73 146.505 204.03 143.604 213.142 138.198C213.406 138.066 213.538 137.802 213.67 137.538C214.727 138.066 215.387 136.484 214.595 135.824C204.822 126.989 192.145 120.659 180.26 115.121C179.335 114.725 178.279 114.198 177.354 113.802C202.71 103.648 228.461 94.4176 254.476 86.1099C254.74 85.978 254.873 85.978 255.005 85.8461C255.269 85.8461 255.401 85.978 255.665 85.978C266.626 89.1428 276.794 91.5165 287.887 87.1648C288.019 87.1648 288.151 87.033 288.283 86.9011C289.472 87.6923 290.66 85.5824 289.472 84.6593ZM24.827 90.0659C32.4864 92.0439 40.1457 92.7033 48.0692 92.3077C50.1822 92.1758 52.163 92.0439 54.276 91.7802C56.2569 91.5165 58.766 90.8571 60.7468 91.1209C65.7651 91.9121 65.2368 98.9011 64.0483 102.462C61.2751 110.637 47.409 108.659 40.806 108.264C32.7505 107.604 23.7705 106.681 16.1111 103.912C18.7523 99.1648 21.5255 94.4176 24.827 90.0659ZM78.4426 51.1648C81.2159 46.4176 83.9891 42.1978 88.4791 39.033C97.5911 32.7033 109.212 31.6483 120.041 30.4615C118.852 37.7143 117.136 44.8352 115.023 51.956C115.023 52.0879 114.891 52.2198 114.891 52.3516C101.421 53.1429 87.9508 54.0659 74.8771 56.8352C76.3297 54.989 77.3862 53.011 78.4426 51.1648ZM211.161 136.22C201.785 140.571 191.881 143.604 181.448 144C169.695 144.527 157.81 141.758 146.453 139.253C123.871 134.242 101.553 128.176 79.6312 120.791C83.5929 119.736 87.4226 118.286 91.3844 117.099C97.327 115.253 103.27 113.538 109.212 111.956C119.513 109.319 129.813 107.077 140.246 105.231C140.378 105.494 140.642 105.626 141.038 105.758C147.245 108.396 154.376 109.582 160.715 111.692C166.79 113.802 172.732 116.044 178.543 118.681C189.9 123.824 200.2 130.418 211.161 136.22ZM252.231 81.8901C241.271 78.5934 230.442 75.033 219.481 71.8681C230.574 68.1758 241.931 65.5385 253.552 64.3516C253.948 64.3516 254.344 64.0879 254.476 63.8242C255.005 64.2198 255.797 64.2198 256.457 63.956C265.569 71.3407 275.077 78.989 285.114 85.0549C273.757 88.6154 263.324 85.3187 252.231 81.8901Z" fill="black"/>
<path d="M97.8552 83.4725C94.4217 82.8132 89.4035 84.3956 86.4982 86.3736C86.2341 86.5055 86.2341 86.9011 86.4982 87.1648C86.4982 87.2967 86.4982 87.2967 86.4982 87.4286C86.2341 91.9121 85.7059 97.8462 87.8188 102.066C87.8188 102.198 87.9509 102.198 87.9509 102.33C87.6867 102.989 88.347 103.78 89.2714 103.648C92.837 102.593 96.2705 101.67 99.8361 100.352C100.496 100.088 100.496 99.2967 100.232 98.9011C100.364 98.7692 100.628 98.5055 100.628 98.2418C101.289 93.8901 99.9682 89.011 98.7797 84.7912C98.6476 84.1319 98.3835 83.6044 97.8552 83.4725ZM98.7797 98.5055C95.7423 99.2967 92.705 100.22 89.7997 101.275C89.7997 99.1649 89.2715 97.055 88.8753 94.9451C88.4791 92.4396 88.215 89.9341 88.215 87.4286C88.215 87.2967 88.215 87.2967 88.215 87.1648C89.7997 86.9011 91.2523 86.3736 92.837 86.1099C94.2897 85.7143 95.8744 85.7143 97.327 85.3187C97.7232 89.5385 97.5911 94.022 98.6476 98.1099C98.5155 98.2418 98.6476 98.3736 98.7797 98.5055Z" fill="black"/>
<path d="M106.967 99.9561C110.533 99.8242 114.23 99.1648 117.664 97.8462C118.324 98.7692 119.777 98.3736 119.777 97.055C119.645 94.2857 119.249 91.5165 118.72 88.8791C118.324 86.5055 118.192 83.8681 117.004 81.7583C117.004 81.6264 116.872 81.6264 116.74 81.4945C116.608 81.0989 116.211 80.7033 115.551 80.967C112.118 81.8901 108.684 82.6813 105.25 83.0769C104.326 83.2088 104.326 84.3956 104.986 84.6593C104.854 89.1429 105.118 94.1539 106.307 98.3736C105.779 98.9011 106.043 99.9561 106.967 99.9561ZM115.947 82.8132C115.683 84.9231 116.079 87.1648 116.343 89.1429C116.607 91.2528 116.74 93.3627 117.136 95.3407C114.23 96.2638 111.325 97.055 108.42 97.7143C108.552 93.4945 107.495 88.7473 106.439 84.6593C109.608 84.2637 112.778 83.6044 115.947 82.8132Z" fill="black"/>
<path d="M139.982 92.4396C138.925 87.6923 137.869 82.8132 136.944 78.0659C136.944 77.4066 136.548 76.8791 135.756 77.011C132.058 77.5385 128.625 78.5934 125.191 79.9121C124.795 79.7802 124.267 80.1758 124.267 80.7033C124.399 85.7143 124.795 90.4616 125.852 95.3407C125.984 95.7363 126.116 96 126.38 96.1319C126.38 96.7912 126.776 97.3187 127.568 97.1868C131.266 96.2637 134.964 95.4725 138.661 94.5495C139.189 94.4176 139.586 94.022 139.586 93.4945C139.982 93.3627 140.114 92.967 139.982 92.4396ZM125.852 80.967C129.021 80.5714 132.058 80.044 135.096 79.3846C135.756 83.7363 136.548 88.0879 137.737 92.4396C134.567 93.2308 131.398 94.022 128.229 94.6813C127.568 90.066 126.776 85.5824 125.852 80.967Z" fill="black"/>
<path d="M155.301 74.3736C151.339 75.033 147.509 75.5604 143.679 76.4835C142.887 76.6154 142.755 77.4066 143.151 77.9341C143.415 82.8132 144.736 88.0879 145.792 92.8352C145.924 93.4945 146.453 93.7582 146.981 93.7582C147.113 94.022 147.377 94.1538 147.773 94.1538C151.207 93.2308 154.64 92.3077 158.074 91.3846C158.338 91.3846 158.47 91.2527 158.602 91.1209C159.13 90.989 159.79 90.5934 159.526 89.9341C158.338 85.4505 157.281 80.7033 156.357 76.0879C156.753 75.4286 156.357 74.2418 155.301 74.3736ZM145.132 77.9341C148.301 77.5385 151.471 77.1429 154.64 76.6154C155.168 80.967 155.961 85.1868 157.149 89.4066C154.112 90.3297 151.075 91.2527 148.037 92.1758C147.509 87.5604 146.717 82.2857 145.132 77.9341Z" fill="black"/>
<path d="M175.241 71.3406C173.128 71.4725 171.147 72 169.166 72.3956C167.846 72.6593 166.129 72.7912 164.941 73.5824C164.412 73.3187 163.62 73.7143 163.62 74.5055C163.884 79.1209 164.676 83.8681 166.393 88.2198C166.525 88.3516 166.525 88.4835 166.657 88.6154C166.393 88.8791 166.393 89.5385 166.921 89.5385C170.487 89.6703 173.921 89.1429 177.354 88.0879C177.882 87.956 178.014 87.4286 177.882 87.033C178.411 87.033 179.071 86.6374 178.939 85.8461C178.146 81.4945 177.222 77.1428 176.166 72.7912C176.43 72.1319 176.166 71.2088 175.241 71.3406ZM176.826 86.1099C173.921 86.6374 171.147 87.2967 168.374 88.0879C168.374 87.956 168.374 87.8242 168.374 87.6923C167.186 83.3406 165.997 79.1209 165.469 74.6374C166.789 74.7692 168.11 74.5055 169.431 74.2417C171.279 73.978 173.128 73.7143 174.845 73.3187C175.373 77.5384 176.033 81.7582 176.826 86.1099Z" fill="black"/>
<path d="M59.9544 101.275C58.6338 101.934 57.5774 103.121 56.2568 103.912C54.9362 104.703 53.4836 105.495 52.163 106.286C51.8989 106.418 52.163 106.945 52.4271 106.945C54.1439 106.813 55.5965 106.286 57.1812 105.495C58.5018 104.703 60.0865 103.912 61.0109 102.593C61.5391 101.934 60.8788 100.879 59.9544 101.275Z" fill="black"/>
<path d="M47.2769 107.077C52.1631 105.099 56.653 102.462 60.6148 99.033C61.6713 98.1099 60.3507 96.3956 59.2942 97.3187C55.4645 100.615 51.2387 103.385 46.6166 105.495C45.6922 105.89 46.3525 107.473 47.2769 107.077Z" fill="black"/>
<path d="M23.5065 97.8462C25.7514 97.055 27.8644 96 29.8453 94.6813C30.7697 94.022 29.7132 92.5715 28.7888 93.3627C27.072 94.8132 25.2232 96 23.1103 97.055C22.5821 97.1868 22.9782 97.978 23.5065 97.8462Z" fill="black"/>
<path d="M21.9217 101.407C25.7514 100.352 30.2414 99.033 33.1466 96.2637C33.8069 95.7363 33.2787 94.5494 32.3543 94.9451C28.6567 96.5275 25.2231 98.7692 21.5255 100.352C20.9973 100.484 21.2614 101.538 21.9217 101.407Z" fill="black"/>
</g>
<defs>
<clipPath id="clip0_166_33">
<rect width="290" height="156" fill="white"/>
</clipPath>
</defs>
</svg>
