<svg width="215" height="166" viewBox="0 0 215 166" fill="none" xmlns="http://www.w3.org/2000/svg">
<g clip-path="url(#clip0_166_8536)">
<path d="M215 39.4397C211.184 28.6968 199.444 24.1347 189.464 20.75C177.724 16.7766 165.396 15.0106 153.068 15.4521C157.031 10.89 161.727 7.21096 167.304 4.56202C168.625 3.97337 168.331 1.61876 166.863 1.32444C144.85 -3.23762 122.102 3.82621 105.666 18.8368C92.3106 10.1542 76.6075 6.32798 60.7577 8.53543C44.9079 10.7429 30.5256 18.8368 19.372 30.3156C18.4915 31.1985 19.2253 32.6702 20.3993 32.6702C26.2696 32.9645 31.8464 33.9946 37.2765 36.0549C28.471 39.8812 20.1058 44.7376 13.5017 51.8014C5.87032 60.484 1.90786 71.0798 1.07847e-05 81.9698C-0.293505 83.2943 1.17407 84.3244 2.34813 83.2943C12.3277 74.4645 24.215 63.2801 38.0102 60.6312C31.2594 77.5549 31.1126 98.7464 39.6246 114.934C40.2116 116.259 42.1195 115.523 42.1195 114.199C43.2935 91.6826 56.942 74.023 74.6997 61.367C73.0853 68.578 73.2321 76.2305 73.2321 83.5886C73.2321 84.9131 75.1399 85.5017 75.8737 84.3244C81.0102 75.4946 89.0819 64.7517 99.2082 60.484C98.9147 60.6312 98.7679 60.9255 98.7679 61.367C101.85 95.2145 101.556 129.504 97.7406 163.351C97.7406 163.94 98.1809 164.676 98.7679 164.823C108.747 167.03 122.102 166.736 130.614 160.261C139.42 153.638 134.724 140.688 132.962 131.711C127.973 106.988 121.075 82.5585 111.829 59.0124C123.717 60.9255 133.109 70.9326 141.034 79.3209C141.768 80.0567 143.382 79.7624 143.529 78.5851C144.85 72.6985 144.263 66.812 141.768 61.367C162.608 62.8386 182.42 70.4911 199.444 82.8528C200.765 83.8829 202.379 82.2642 202.085 80.7925C198.416 64.1631 186.676 49.2996 170.532 44.0017C184.034 39.4397 198.563 38.5567 212.505 41.5C213.973 41.9415 215.44 40.9113 215 39.4397ZM116.672 81.3812C113.59 83.1471 110.655 84.7659 106.986 85.5017C105.959 85.6489 106.399 87.1205 107.427 86.9734C110.802 86.2375 114.471 85.0602 117.259 83.1471C119.167 89.0337 120.928 94.773 122.543 100.66L122.396 100.807C119.314 103.897 115.645 105.663 111.389 106.399C110.655 106.546 110.802 107.871 111.536 107.871C115.939 107.282 119.754 105.516 122.983 102.573C124.597 108.606 126.212 114.787 127.532 120.968C127.826 121.998 127.973 123.028 128.266 124.206C124.304 126.413 120.341 128.473 115.645 129.356C115.058 129.504 115.205 130.534 115.792 130.386C120.341 129.798 124.744 128.473 128.56 125.824C129.294 129.504 130.174 133.33 130.908 137.009C131.935 142.454 134.577 149.959 131.495 155.11C128.853 159.525 122.689 161.144 118.14 162.174C112.416 163.498 106.546 163.498 100.676 162.321C104.198 128.768 104.345 95.0673 100.676 61.5141C100.529 60.7783 99.7952 60.484 99.2082 60.6312C101.703 59.601 104.198 59.0124 106.986 58.8652C107.427 58.8652 108.014 58.8652 108.454 58.8652C111.389 66.2234 114.177 73.7287 116.672 81.3812ZM163.195 42.9716C161.727 43.5602 162.02 46.2092 163.635 46.5035C179.925 49.2996 192.253 61.9556 197.389 77.2606C180.072 65.7819 159.966 59.1595 139.126 58.2766C137.952 58.2766 137.072 59.601 137.805 60.6312C140.594 65.0461 141.621 70.0496 141.181 75.0532C131.642 65.1932 120.195 54.5975 105.666 55.922C93.0444 57.0993 82.7713 68.1365 75.8737 78.7322C75.8737 71.9627 76.1672 65.0461 78.2218 58.5709C78.5154 57.3936 77.1945 56.3634 76.1672 56.9521C57.529 69.3138 42.8533 86.8262 39.9181 109.048C33.7543 93.5957 34.7816 74.3173 41.3857 59.601C41.8259 58.7181 41.3857 57.3936 40.2116 57.5407C26.1229 59.3067 14.0887 69.3138 3.66895 78.5851C5.72356 69.6081 9.24574 61.0727 15.4096 54.0088C22.3072 46.3563 31.5529 41.3528 41.0922 37.5266C41.9727 37.0851 42.5597 35.6134 41.3857 35.0248C35.6621 32.3759 29.6451 30.7571 23.4812 30.1684C33.6075 20.6028 46.3754 13.6861 60.1707 11.4787C75.8737 8.97692 91.8703 12.656 105.225 21.1915C105.372 21.3386 105.519 21.3386 105.812 21.3386C106.399 21.7801 107.28 21.9273 108.16 21.3386C122.689 8.38826 141.915 1.61876 161.14 3.97337C155.857 7.21096 151.454 11.4787 147.785 16.4822C147.051 17.5124 148.079 19.2783 149.253 19.1312C161.14 18.3954 173.027 19.5727 184.474 22.8102C193.133 25.312 205.167 28.9911 210.01 37.3794C194.16 34.5833 178.017 36.6436 163.195 42.9716Z" fill="black"/>
<path d="M133.403 29.8739C126.065 26.6363 116.232 26.7835 108.894 30.0211C108.454 30.1683 108.747 30.7569 109.188 30.6097C113.15 29.8739 116.966 28.991 121.075 29.1381C125.184 29.2853 128.853 30.1683 132.816 31.0512C133.696 31.1984 134.137 30.1683 133.403 29.8739Z" fill="black"/>
<path d="M114.324 41.647C113.444 41.4999 113.297 42.9715 114.177 43.1187C121.075 44.1488 126.212 47.3864 132.082 50.624C132.816 51.0655 133.696 50.0353 133.109 49.2995C128.413 44.5903 120.782 42.3829 114.324 41.647Z" fill="black"/>
<path d="M96.1263 31.9343C89.3754 27.6666 80.8635 25.7535 73.2321 28.1081C72.2048 28.4024 72.6451 29.8741 73.6724 29.5797C81.4505 28.1081 88.6417 28.9911 95.3925 33.2588C96.2731 33.9946 97.0068 32.523 96.1263 31.9343Z" fill="black"/>
<path d="M87.7611 41.7944C82.4778 42.0888 74.4062 45.4735 71.471 50.0356C71.1775 50.6242 71.7645 51.0657 72.2048 50.7714C74.6997 49.5941 76.7543 47.5338 79.2492 46.0622C82.0376 44.4434 84.9727 43.5604 87.7611 42.3831C88.2014 42.3831 88.2014 41.7944 87.7611 41.7944Z" fill="black"/>
</g>
<defs>
<clipPath id="clip0_166_8536">
<rect width="215" height="166" fill="white"/>
</clipPath>
</defs>
</svg>
