<svg width="93" height="85" viewBox="0 0 93 85" fill="none" xmlns="http://www.w3.org/2000/svg">
<path d="M25.3635 74.619C25.8603 75.5132 26.2578 76.3081 26.6552 77.2023C27.4501 78.7921 27.0526 80.3819 25.4629 81.2761C23.3763 82.4684 21.1904 83.5614 19.0045 84.6543C17.3154 85.4492 15.825 84.8531 14.9307 83.0646C12.1487 77.7985 9.36658 72.4331 6.68387 67.167C4.59731 63.1926 2.61012 59.3176 0.523562 55.3432C-0.470036 53.356 -0.0725969 51.8656 1.9146 50.872C3.9018 49.8784 5.78963 48.7854 7.77683 47.7918C9.5653 46.8976 11.1551 47.3944 12.1487 49.0835C12.5461 49.8784 13.0429 50.6733 13.4403 51.6669C14.3346 51.1701 15.1295 50.7726 16.0237 50.3752C19.4019 48.5867 22.8795 46.7982 26.2578 45.0098C27.6488 44.3143 29.1392 43.9168 30.6296 44.0162C37.088 44.3143 43.5464 44.513 50.1041 44.9104C54.8734 45.2085 58.2516 49.1829 57.7548 53.9522C57.7548 54.0515 57.7548 54.1509 57.7548 54.449C58.1523 54.2502 58.4503 54.1509 58.7484 53.9522C65.7036 50.2758 72.7581 46.6989 79.7133 43.0226C84.582 40.4392 90.3448 42.9232 91.7359 47.9906C92.8288 51.7662 91.0403 55.6413 87.364 57.6285C82.8928 60.0131 78.4216 62.2984 74.0498 64.5837C66.8959 68.3593 59.742 71.9363 52.5881 75.8113C49.6073 77.4011 46.7259 77.7985 43.447 77.0036C38.6777 75.9107 33.8091 74.9171 29.0398 73.8241C27.6488 73.526 26.5558 73.7248 25.3635 74.619ZM24.3699 72.6318C26.1584 71.2408 28.0462 71.2408 30.0334 71.7376C34.5046 72.7312 39.0752 73.7248 43.6457 74.7184C46.0304 75.2151 48.415 75.4139 50.7996 74.2216C57.3574 70.5452 64.2132 67.0676 70.9697 63.5901C76.1364 60.9073 81.3031 58.2246 86.4698 55.5419C88.9538 54.2502 90.1461 51.6669 89.6493 49.1829C88.8544 45.1091 84.582 43.1219 80.8063 45.1091C72.8575 49.2822 64.9087 53.356 56.9599 57.5291C56.5625 57.7278 56.2644 58.0259 55.9663 58.324C54.1779 60.4105 51.9919 61.4041 49.2099 61.3048C46.2291 61.2054 43.3476 61.1061 40.3668 60.9073C38.9758 60.808 37.5848 60.808 36.1937 60.7086C35.4982 60.6093 35.0014 60.2118 35.1008 59.4169C35.2001 58.7214 35.6969 58.4233 36.3925 58.4233C36.4918 58.4233 36.5912 58.4233 36.6905 58.4233C40.7643 58.6221 44.7387 58.8208 48.8124 58.9201C49.7067 58.9201 50.5015 58.9201 51.3958 58.7214C54.0785 58.0259 55.9663 55.2438 55.6683 52.5611C55.3702 49.5803 53.1843 47.295 50.2035 47.1957C43.6457 46.8976 37.088 46.5002 30.4309 46.3014C29.4373 46.3014 28.2449 46.5995 27.3507 47.0963C23.277 49.0835 19.3026 51.2694 15.3282 53.356C15.1295 53.4554 14.9307 53.6541 14.6327 53.7534C17.8122 60.0131 20.9917 66.2728 24.3699 72.6318ZM17.6135 82.7665C17.9115 82.6671 18.1102 82.5678 18.2096 82.5678C20.1968 81.4748 22.2834 80.4812 24.2706 79.3883C24.9661 79.0902 24.8667 78.5934 24.5686 77.9972C19.7994 68.7568 14.9307 59.6157 10.1615 50.3752C9.76402 49.6797 9.36658 49.481 8.67107 49.8784C6.88259 50.872 4.99475 51.7662 3.20628 52.7598C2.21268 53.2566 2.11332 53.4554 2.70948 54.449C4.79603 58.5227 6.88259 62.5965 8.96915 66.6702C11.6519 71.7376 14.2352 76.8049 16.9179 81.8723C17.1166 82.1703 17.4147 82.4684 17.6135 82.7665Z" fill="#98050B"/>
<path d="M52.0913 0C63.8158 0.19872 73.8511 4.47119 81.8993 13.1155C83.2903 14.6059 83.2903 14.8046 81.8993 16.295C73.4537 25.138 63.2196 29.6092 50.9984 29.3111C39.4726 29.0131 29.7354 24.3432 21.886 15.7982C21.0911 14.904 21.0911 14.4072 21.886 13.6123C28.7418 6.16031 37.088 1.68912 47.1233 0.397439C48.2163 0.298079 49.4086 0.19872 50.5016 0.0993598C51.0977 0 51.5945 0 52.0913 0ZM52.0913 26.7278C58.7484 26.7278 64.1139 21.3624 64.2132 14.8046C64.2132 8.1475 58.8478 2.68271 52.2901 2.68271C45.6329 2.68271 40.1682 8.04815 40.1682 14.7053C40.0688 21.263 45.4342 26.7278 52.0913 26.7278ZM80.2102 14.7053C76.6332 10.0353 67.0947 4.37183 61.0337 3.47759C64.5113 6.45839 66.3991 10.1347 66.3991 14.7053C66.3991 19.2758 64.5113 22.9521 61.0337 25.9329C66.7966 25.138 75.5402 19.9713 80.2102 14.7053ZM23.9725 14.7053C29.2386 20.3688 35.4982 24.0451 42.9502 25.9329C39.6714 22.8528 37.7835 19.1764 37.7835 14.6059C37.7835 10.1347 39.6714 6.45839 43.0496 3.47759C35.5976 5.26607 29.2386 8.94238 23.9725 14.7053Z" fill="#98050B"/>
<path d="M53.2836 22.3562C53.2836 23.0517 53.2836 23.7472 53.2836 24.5421C53.2836 25.2376 52.8862 25.7344 52.0913 25.7344C51.3958 25.7344 50.9984 25.2376 50.9984 24.5421C50.9984 23.8465 50.9984 23.0517 50.9984 22.4555C50.1041 21.9587 49.2099 21.6606 48.7131 20.9651C48.0176 20.1702 47.6201 19.1766 47.322 18.2824C47.1233 17.5869 47.6201 16.8914 48.3156 16.792C49.1105 16.792 49.508 17.1894 49.6073 17.885C49.7067 18.9779 50.4022 19.5741 51.3958 19.8722C52.4888 20.1702 53.4824 19.9715 54.2772 19.1766C55.0721 18.2824 54.9728 17.2888 53.9792 16.6926C53.1843 16.1958 52.29 15.8978 51.3958 15.5003C50.7996 15.2022 50.2035 15.0035 49.7067 14.7054C48.3156 13.9106 47.2227 12.917 47.322 11.2279C47.4214 9.43938 48.415 8.04834 50.1041 7.45218C50.9984 7.05474 51.1971 6.6573 51.0977 5.76306C51.0977 5.46499 51.0977 5.06755 51.0977 4.67011C51.0977 3.97459 51.4952 3.57715 52.1907 3.57715C52.8862 3.57715 53.4824 3.97459 53.383 4.57075C53.0849 6.35922 53.8798 7.35282 55.4696 8.04834C56.5625 8.54514 57.0593 9.73746 57.1587 11.0291C57.258 11.824 56.96 12.4202 56.1651 12.5195C55.3702 12.6189 54.9728 12.1221 54.8734 11.4266C54.774 10.3336 54.0785 9.6381 53.0849 9.43938C51.992 9.1413 50.9984 9.34002 50.2035 10.1349C49.3092 11.0291 49.4086 12.0227 50.5016 12.6189C51.2964 13.1157 52.1907 13.4138 53.0849 13.8112C53.6811 14.1093 54.3766 14.4074 54.9728 14.7054C58.4503 16.5933 57.3574 20.2696 54.9728 21.6606C54.2772 21.9587 53.7804 22.1574 53.2836 22.3562Z" fill="#98050B"/>
</svg>
