<svg width="91" height="85" viewBox="0 0 91 85" fill="none" xmlns="http://www.w3.org/2000/svg">
<path d="M15.3279 12.1926C15.3279 10.9734 15.3279 9.7541 15.3279 8.53484C15.3279 7.14139 16.0246 6.44467 17.418 6.44467C19.334 6.44467 21.25 6.44467 23.166 6.44467C24.7336 2.09016 27.5205 0 31.3525 0C35.0102 0 37.7971 2.09016 39.5389 6.44467C41.4549 6.44467 43.3709 6.44467 45.1127 6.44467C46.6803 6.44467 47.2029 7.14139 47.2029 8.70902C47.2029 9.7541 47.2029 10.9734 47.2029 12.1926C47.7254 12.1926 48.0738 12.1926 48.4221 12.1926C52.2541 12.1926 55.9119 12.1926 59.7439 12.1926C61.4857 12.1926 62.0082 12.7152 62.0082 14.457C62.0082 21.4242 62.0082 28.3914 62.0082 35.3586C62.0082 35.707 62.0082 36.0553 62.0082 36.5779C62.8791 36.4037 63.75 36.4037 64.6209 36.2295C64.9693 36.2295 65.1434 35.707 65.3176 35.3586C66.7111 32.0492 68.1045 28.5656 69.6721 25.4303C70.543 23.6885 71.9365 22.2951 73.3299 20.9016C74.0266 20.2049 75.2459 19.6824 76.291 19.5082C78.3811 18.9857 80.2971 20.2049 80.9939 22.4693C81.8648 24.7336 81.6906 26.8238 81.3422 29.0881C80.6455 32.9201 79.4262 36.4037 77.8586 39.8873C77.5102 40.7582 77.5102 41.1066 78.207 41.8033C82.0389 45.8094 85.6967 49.9898 89.3545 53.8217C90.3996 54.8668 90.748 55.9119 90.0512 57.3053C89.7029 58.0021 89.3545 58.873 89.0061 59.7439C88.3094 61.3115 87.2643 61.6598 85.8709 60.6148C81.8648 58.002 77.8586 55.2152 73.6783 52.6025C73.3299 52.4283 73.1557 52.2541 72.6332 52.0799C72.1107 53.2992 71.5881 54.3443 71.0656 55.5635C70.0205 57.6537 69.1496 59.7439 68.1045 61.834C67.7561 62.3566 67.9303 62.7049 68.2787 63.2275C69.498 64.4467 70.543 65.8402 71.5881 67.2336C72.2848 67.9303 72.459 68.6271 72.1106 69.498C71.7623 70.8914 71.4139 72.2848 70.8914 73.6783C70.3689 75.2459 69.3238 75.5943 67.9303 74.7234C65.8402 73.1557 63.75 71.5881 61.6598 70.0205C61.6598 70.543 61.6598 70.8914 61.6598 71.0656C61.6598 74.8975 61.6598 78.9037 61.6598 82.7357C61.6598 84.3033 61.1373 85 59.3955 85C40.4098 85 21.4242 85 2.26434 85C0.696721 85 0 84.4775 0 82.7357C0.522541 60.0922 0.522541 37.2746 0.522541 14.457C0.522541 12.7152 1.04508 12.1926 2.78689 12.1926C6.61885 12.1926 10.2766 12.1926 14.1086 12.1926C14.457 12.1926 14.8053 12.1926 15.3279 12.1926ZM47.377 15.6762C47.377 15.8504 47.2029 15.8504 47.2029 16.0246C47.2029 17.0697 47.2029 18.1148 47.2029 19.1598C47.2029 20.9016 46.6803 21.4242 44.9385 21.4242C35.8811 21.4242 26.8238 21.4242 17.5922 21.4242C15.8504 21.4242 15.3279 20.9016 15.3279 19.1598C15.3279 18.1148 15.3279 16.8955 15.3279 15.8504C11.4959 15.6762 7.83811 15.6762 4.00615 15.6762C4.00615 37.7971 4.00615 59.7439 4.00615 81.6906C22.1209 81.6906 40.2357 81.6906 58.5246 81.6906C58.5246 77.1619 58.5246 72.8074 58.5246 68.4529C55.5635 68.2787 52.6025 67.9303 49.6414 67.7561C47.7254 67.582 47.2029 66.5369 47.8996 64.7951C48.4221 63.5758 49.1189 62.5307 49.6414 61.3115C50.1639 60.2664 50.8607 59.7439 52.0799 59.5697C53.6475 59.3955 55.2152 59.0471 56.957 58.873C57.4795 58.873 57.8279 58.5246 58.002 58.002C58.873 54.8668 59.918 51.7316 60.7889 48.4221C60.7889 48.248 60.9631 47.8996 60.9631 47.5512C59.7439 47.377 58.5246 47.2029 57.3053 47.0287C53.2992 46.5061 49.293 45.9836 45.1127 45.4611C43.7193 45.2869 43.1967 44.2418 43.5451 43.0225C43.8934 41.8033 44.416 40.7582 44.7643 39.5389C45.1127 38.8422 45.6352 38.3197 46.332 38.3197C48.4221 38.1455 50.5123 37.9713 52.6025 37.623C54.5184 37.4488 56.2602 37.2746 58.002 36.9262C58.002 29.7848 58.002 22.6434 58.002 15.6762C54.6926 15.6762 51.0348 15.6762 47.377 15.6762ZM68.4529 70.543C68.9754 69.1496 68.9754 69.1496 68.2787 68.2787C67.2336 67.0594 66.1885 65.666 65.1434 64.4467C64.2725 63.5758 64.2725 62.7049 64.7951 61.6598C66.7111 57.4795 68.6271 53.4734 70.543 49.293C71.4139 47.5512 72.2848 47.2029 73.8525 48.4221C77.6844 51.0348 81.6906 53.6475 85.5225 56.2602C85.8709 56.4344 86.2193 56.7828 86.5676 56.957C86.7418 56.957 86.7418 56.7828 86.916 56.7828C86.7418 56.4344 86.5676 55.9119 86.2193 55.5635C82.3873 51.3832 78.5553 47.2029 74.5492 43.0225C73.6783 42.1516 73.6783 41.2807 74.0266 40.2357C75.0717 37.7971 75.9426 35.3586 76.8135 32.9201C77.6844 30.3074 78.3811 27.5205 78.0328 24.7336C77.8586 22.8176 76.8135 22.4693 75.4201 23.6885C74.2008 24.9078 72.9816 26.3012 72.2848 27.6947C70.7172 31.0041 69.3238 34.4877 68.1045 37.9713C67.7561 38.8422 67.2336 39.5389 66.1885 39.7131C63.4016 40.0615 60.4406 40.2357 57.6537 40.584C54.6926 40.9324 51.7316 41.1066 48.7705 41.4549C48.4221 41.4549 48.0738 41.8033 47.7254 41.9775C47.7254 42.1516 47.7254 42.1516 47.8996 42.3258C48.0738 42.3258 48.248 42.5 48.4221 42.5C53.2992 43.1967 58.1762 43.7193 63.0533 44.416C64.7951 44.5902 65.4918 45.4611 64.9693 47.2029C63.5758 51.7316 62.3566 56.0861 60.9631 60.6148C60.6148 61.6598 60.0922 62.1824 59.0471 62.1824C57.3053 62.3566 55.7377 62.7049 53.9959 62.8791C52.9508 63.0533 52.4283 63.4016 52.2541 64.6209C54.8668 64.7951 57.3053 64.9693 59.7439 65.3176C60.6148 65.4918 61.4857 65.666 62.1824 66.1885C64.2725 67.4078 66.3627 68.9754 68.4529 70.543ZM43.7193 9.92828C41.9775 9.92828 40.2357 9.92828 38.4939 9.92828C36.5779 9.92828 36.2295 9.57992 36.0553 7.66393C35.707 5.22541 33.791 3.48361 31.3525 3.48361C28.9139 3.48361 26.8238 5.22541 26.4754 7.66393C26.127 9.7541 25.9529 9.92828 23.8627 9.92828C22.1209 9.92828 20.5533 9.92828 18.8115 9.92828C18.8115 12.541 18.8115 15.1537 18.8115 17.5922C27.1721 17.5922 35.3586 17.5922 43.5451 17.5922C43.7193 14.9795 43.7193 12.541 43.7193 9.92828Z" fill="#98050B"/>
<path d="M22.9918 69.3235C22.9918 70.7169 22.9918 72.1104 22.9918 73.5038C22.9918 74.8973 22.2951 75.4198 21.0758 75.4198C18.289 75.4198 15.6763 75.4198 12.8894 75.4198C11.4959 75.4198 10.9734 74.7231 10.9734 73.5038C10.9734 70.7169 10.9734 68.1042 10.9734 65.3173C10.9734 63.9239 11.6701 63.4014 13.0636 63.4014C15.6763 63.4014 18.4631 63.4014 21.0758 63.4014C22.4693 63.4014 22.9918 64.0981 22.9918 65.4915C22.9918 66.7108 22.9918 68.1042 22.9918 69.3235ZM14.457 71.9362C16.1988 71.9362 17.9406 71.9362 19.5082 71.9362C19.5082 70.1944 19.5082 68.6268 19.5082 66.885C17.7664 66.885 16.1988 66.885 14.457 66.885C14.457 68.6268 14.457 70.1944 14.457 71.9362Z" fill="#98050B"/>
<path d="M22.9918 51.5574C22.9918 52.9508 22.9918 54.3443 22.9918 55.7377C22.9918 56.957 22.2951 57.4795 21.0758 57.6537C18.289 57.6537 15.5021 57.6537 12.7152 57.6537C11.4959 57.6537 10.9734 56.957 10.9734 55.7377C10.9734 52.9508 10.9734 50.1639 10.9734 47.5512C10.9734 46.332 11.6701 45.6353 12.8894 45.6353C15.6763 45.6353 18.4631 45.6353 21.0758 45.6353C22.2951 45.6353 22.9918 46.332 22.9918 47.5512C22.9918 48.9447 22.9918 50.3381 22.9918 51.5574ZM14.457 49.1189C14.457 50.8607 14.457 52.4283 14.457 54.1701C16.1988 54.1701 17.7664 54.1701 19.5082 54.1701C19.5082 52.4283 19.5082 50.8607 19.5082 49.1189C17.7664 49.1189 16.1988 49.1189 14.457 49.1189Z" fill="#98050B"/>
<path d="M22.9918 33.965C22.9918 35.3584 22.9918 36.5777 22.9918 37.9711C22.9918 39.3646 22.4693 39.8871 21.0758 39.8871C18.289 39.8871 15.5021 39.8871 12.8894 39.8871C11.6701 39.8871 10.9734 39.1904 10.9734 37.9711C10.9734 35.3584 10.9734 32.5715 10.9734 29.9588C10.9734 28.5654 11.4959 27.8687 13.0636 27.8687C15.6763 27.8687 18.289 27.8687 20.9017 27.8687C22.2951 27.8687 22.9918 28.5654 22.9918 29.9588C22.9918 31.3523 22.9918 32.5715 22.9918 33.965ZM19.5082 36.4035C19.5082 34.6617 19.5082 33.0941 19.5082 31.3523C17.7664 31.3523 16.1988 31.3523 14.457 31.3523C14.457 33.0941 14.457 34.6617 14.457 36.4035C16.1988 36.4035 17.7664 36.4035 19.5082 36.4035Z" fill="#98050B"/>
<path d="M34.8361 63.5757C36.5779 63.5757 38.4939 63.5757 40.2357 63.5757C41.4549 63.5757 42.1516 64.2724 42.1516 65.3175C42.1516 66.3626 41.4549 67.0593 40.2357 67.0593C36.5779 67.0593 32.9201 67.0593 29.2623 67.0593C28.043 67.0593 27.3463 66.3626 27.3463 65.3175C27.3463 64.2724 28.043 63.5757 29.2623 63.5757C31.0041 63.5757 32.9201 63.5757 34.8361 63.5757Z" fill="#98050B"/>
<path d="M34.4877 31.5266C32.7459 31.5266 31.0041 31.5266 29.2623 31.5266C28.043 31.5266 27.1721 30.8299 27.1721 29.7848C27.1721 28.7397 28.043 28.043 29.2623 28.043C32.9201 28.043 36.4037 28.043 40.0615 28.043C41.2807 28.043 42.1516 28.7397 42.1516 29.7848C42.1516 30.8299 41.4549 31.5266 40.0615 31.5266C38.1455 31.5266 36.4037 31.5266 34.4877 31.5266Z" fill="#98050B"/>
<path d="M34.6619 49.2932C32.9201 49.2932 31.0041 49.2932 29.2623 49.2932C28.043 49.2932 27.1721 48.5965 27.1721 47.5514C27.1721 46.5063 28.043 45.8096 29.2623 45.8096C32.9201 45.8096 36.4037 45.8096 40.0615 45.8096C41.2807 45.8096 42.1516 46.5063 42.1516 47.5514C42.1516 48.5965 41.4549 49.2932 40.0615 49.2932C38.3197 49.2932 36.4037 49.2932 34.6619 49.2932Z" fill="#98050B"/>
<path d="M33.4426 39.7131C32.0492 39.7131 30.6557 39.7131 29.2623 39.7131C28.043 39.7131 27.1721 39.0164 27.1721 37.9713C27.1721 36.9262 28.043 36.2295 29.2623 36.2295C32.0492 36.2295 34.8361 36.2295 37.6229 36.2295C38.8422 36.2295 39.7131 36.9262 39.7131 37.9713C39.7131 39.0164 39.0164 39.7131 37.6229 39.7131C36.4037 39.7131 34.8361 39.7131 33.4426 39.7131Z" fill="#98050B"/>
<path d="M33.4426 57.4797C32.0492 57.4797 30.4815 57.4797 29.0881 57.4797C27.8688 57.4797 27.1721 56.783 27.1721 55.7379C27.1721 54.6928 28.043 53.9961 29.0881 53.9961C32.0492 53.9961 34.8361 53.9961 37.7971 53.9961C39.0164 53.9961 39.7131 54.6928 39.7131 55.7379C39.7131 56.783 39.0164 57.4797 37.7971 57.4797C36.4037 57.4797 35.0102 57.4797 33.4426 57.4797Z" fill="#98050B"/>
<path d="M33.6168 71.7622C35.0102 71.7622 36.5779 71.7622 37.9713 71.7622C39.1906 71.7622 39.8873 72.4589 39.8873 73.504C39.8873 74.5491 39.1906 75.2458 37.9713 75.2458C35.0102 75.2458 32.2234 75.2458 29.2623 75.2458C28.043 75.2458 27.3463 74.5491 27.3463 73.504C27.3463 72.4589 28.2172 71.7622 29.4365 71.7622C30.6557 71.7622 32.0492 71.7622 33.6168 71.7622Z" fill="#98050B"/>
</svg>
