<svg width="85" height="85" viewBox="0 0 85 85" fill="none" xmlns="http://www.w3.org/2000/svg">
<path d="M81.2896 0.168651C81.4583 0.337302 81.6269 0.337302 81.7956 0.505952C83.3134 1.18056 84.3253 2.36111 84.3253 4.04762C84.3253 7.75794 84.3253 11.6369 84.3253 15.3472C84.3253 17.371 82.8075 18.8889 80.7837 19.2262C80.615 19.2262 80.2777 19.2262 80.1091 19.2262C77.5793 18.8889 75.5555 19.7321 73.5317 21.0813C70.496 23.1052 67.2916 24.9603 64.2559 26.9841C64.0872 27.1528 63.7499 27.1528 63.4126 27.4901C63.9186 24.623 64.2559 22.0933 64.7618 19.2262C63.7499 19.2262 62.738 19.2262 61.7261 19.2262C58.5218 19.2262 57.0039 17.5397 57.0039 14.504C57.0039 11.4683 57.0039 8.26389 57.0039 5.22817C57.0039 2.69841 57.8472 0.843254 60.3769 0C67.4603 0.168651 74.3749 0.168651 81.2896 0.168651ZM68.1349 16.5278C67.9662 17.5397 67.7976 18.3829 67.6289 19.2262C67.4603 20.0694 67.2916 20.9127 67.123 21.9246C67.4603 21.756 67.6289 21.5873 67.9662 21.4187C69.4841 20.5754 71.0019 19.7321 72.3511 18.5516C74.5436 16.8651 77.0734 16.0218 79.9404 16.3591C81.2896 16.5278 81.7956 15.8532 81.7956 14.6726C81.7956 11.2996 81.7956 7.92659 81.7956 4.55357C81.7956 3.20436 81.2896 2.69841 79.9404 2.69841C73.869 2.69841 67.7976 2.69841 61.7261 2.69841C60.3769 2.69841 59.871 3.20437 59.871 4.38492C59.871 7.75794 59.871 11.131 59.871 14.504C59.871 15.8532 60.3769 16.3591 61.7261 16.3591C63.9186 16.5278 65.9424 16.5278 68.1349 16.5278Z" fill="#98050B"/>
<path d="M68.6409 74.0379C58.8591 74.0379 49.246 74.0379 39.4643 74.0379C40.3075 74.7125 40.9821 75.3871 41.6567 75.893C39.127 78.2541 36.7659 80.2779 34.5734 82.4704C32.7183 84.1569 30.5258 85.0002 27.996 85.0002C25.6349 85.0002 23.4425 84.1569 21.9246 82.6391C17.5397 78.4228 13.3234 74.0379 9.10714 69.8216C6.91468 67.6291 5.05952 65.774 3.03571 63.9188C-1.0119 59.8712 -1.0119 53.9684 3.03571 49.9208C5.05952 47.897 6.91468 45.8732 8.93849 44.018C12.3115 47.391 15.6845 50.7641 19.0575 54.1371C18.8889 54.3057 18.7202 54.4744 18.5516 54.643C16.8651 56.1609 15.3472 57.6787 13.8294 59.1966C12.9861 60.0399 12.9861 60.7145 13.8294 61.5577C15.1786 63.0756 16.6964 64.4248 18.2143 65.9426C18.3829 65.268 18.7202 64.7621 18.8889 64.0875C20.2381 60.7145 22.5992 58.522 26.3095 57.8474C29.3452 57.3414 32.2123 56.6668 35.5853 56.1609C35.248 55.8236 35.0794 55.3176 34.9107 55.149C31.875 53.1252 29.8512 50.4268 29.0079 46.8851C29.0079 46.5478 28.6706 46.2105 28.3333 46.2105C25.9722 45.3672 24.4544 43.3434 24.4544 40.8137C24.4544 37.6093 24.4544 34.4049 24.4544 31.3692C24.4544 22.4307 31.369 14.6728 40.3075 13.8295C49.4147 12.9863 57.8472 19.0577 59.5337 27.9962C59.7024 29.1768 59.871 30.526 59.871 31.7065C59.871 36.9347 59.871 42.1629 59.871 47.391C59.871 50.2581 58.1845 51.9446 55.3175 51.9446C53.7996 51.9446 52.619 52.1133 51.7758 53.4625C51.2698 54.1371 50.4266 54.643 49.5833 55.3176C49.4147 55.4863 49.246 55.8236 49.0774 56.1609C49.4147 56.3295 49.5833 56.4982 49.9206 56.6668C52.619 57.1728 55.3175 57.6787 58.1845 58.1847C61.8948 58.8593 64.256 61.0518 65.6052 64.5934C66.6171 67.6291 67.629 70.6648 68.6409 73.5319C68.4722 73.5319 68.4722 73.7006 68.6409 74.0379ZM31.369 65.9426C32.8869 67.6291 34.5734 69.147 36.0913 70.6648C36.4286 71.0022 36.9345 71.1708 37.4405 71.1708C46.2103 71.1708 55.1488 71.1708 63.9187 71.1708C64.256 71.1708 64.4246 71.1708 64.9306 71.1708C64.256 69.147 63.5813 67.1232 62.9067 65.0994C62.0635 62.5696 60.2083 61.2204 57.6786 60.7145C54.8115 60.2085 51.7758 59.5339 48.7401 59.1966C48.4028 59.1966 47.8968 59.3652 47.7282 59.5339C46.0417 61.2204 44.5238 62.7383 42.8373 64.4248C42.6687 64.5934 42.5 64.7621 42.3313 64.9307C40.4762 63.0756 38.7897 61.2204 36.9345 59.5339C36.7659 59.3652 36.2599 59.0279 35.9226 59.1966C32.8869 59.7026 30.0198 60.2085 26.9841 60.7145C24.2857 61.2204 22.5992 62.7383 21.5873 65.268C21.25 66.1113 21.0814 66.9545 20.744 67.6291C20.5754 68.1351 20.744 68.3037 20.9127 68.641C21.5873 69.3156 22.4306 70.1589 23.1052 70.8335C24.1171 71.8454 24.623 71.8454 25.8036 70.8335C27.4901 69.3156 29.3452 67.6291 31.369 65.9426ZM57.004 36.2601C57.004 33.899 57.3413 31.5379 57.004 29.3454C56.1607 23.6113 52.9564 19.5637 47.5595 17.5399C42.1627 15.516 36.9345 16.3593 32.5496 20.2383C27.4901 24.4545 26.8155 30.1887 27.3214 36.4287C27.6587 36.2601 28.1647 36.0914 28.502 35.9228C28.502 35.7541 28.502 35.4168 28.502 35.2482C28.502 35.0795 28.502 34.7422 28.502 34.4049C34.0675 34.7422 38.4524 32.5498 42.1627 28.3335C45.7044 32.5498 50.2579 34.7422 55.8234 34.4049C55.8234 35.0795 55.8234 35.4168 55.8234 35.9228C56.3294 36.0914 56.6667 36.2601 57.004 36.2601ZM42.3313 32.3811C40.6448 33.393 38.9583 34.7422 37.1032 35.4168C35.248 36.2601 33.2242 36.5974 31.2004 37.272C31.2004 39.2958 31.2004 41.4883 31.2004 43.6807C31.2004 50.4268 36.4286 55.3176 43.1746 54.8117C45.3671 54.643 47.3909 53.7998 49.0774 52.1133C46.7163 52.1133 44.5238 52.1133 42.1627 52.1133C42.1627 51.1014 42.1627 50.2581 42.1627 49.4149C45.0298 49.4149 47.8968 49.4149 50.7639 49.4149C51.4385 49.4149 51.7758 49.2462 51.9444 48.5716C52.619 47.0537 52.9563 45.5359 52.9563 44.018C52.9563 41.9942 52.9563 39.8018 52.9563 37.7779C52.9563 37.272 52.7877 37.1033 52.2817 36.9347C49.4147 36.5974 46.8849 35.5855 44.5238 34.0676C43.6806 33.5617 43.006 32.8871 42.3313 32.3811ZM5.39683 51.4387C1.85516 54.4744 1.68651 58.8593 5.05952 62.0637C8.26389 65.268 11.4683 68.4724 14.504 71.6768C17.371 74.5438 20.2381 77.4109 23.1052 80.2779C26.1409 83.3137 31.0317 82.9764 33.3929 79.6033C31.369 77.5795 29.3452 75.3871 27.1528 73.3633C24.9603 74.8811 22.9365 74.8811 21.25 73.1946C18.0456 69.9902 14.8413 66.7859 11.4683 63.4129C10.2877 62.0637 9.9504 60.5458 10.625 58.8593C10.7937 58.3533 11.131 57.8474 11.4683 57.5101C9.6131 55.4863 7.42064 53.4625 5.39683 51.4387ZM37.2718 76.0617C35.0794 73.8692 33.0556 71.8454 31.0317 69.8216C30.5258 70.3275 30.0198 70.8335 29.5139 71.3395C31.7063 73.3633 33.7302 75.5557 35.754 77.5795C36.2599 77.0736 36.7659 76.5676 37.2718 76.0617ZM15.0099 54.1371C12.9861 52.1133 10.7937 49.9208 8.76984 47.897C8.43254 48.2343 7.92659 48.7402 7.42064 49.0775C9.44444 51.1014 11.6369 53.2938 13.6607 55.3176C14.1667 54.9803 14.6726 54.643 15.0099 54.1371ZM38.2837 57.0041C39.6329 58.3533 40.9821 59.7026 42.1627 60.8831C43.3433 59.7026 44.6925 58.3533 45.873 57.1728C43.5119 57.6787 40.9821 57.6787 38.2837 57.0041ZM54.8115 49.2462C57.1726 49.5835 57.5099 48.5716 57.004 45.8732C56.498 46.2105 55.8234 46.3791 55.4861 46.7164C55.1488 47.5597 54.9802 48.4029 54.8115 49.2462ZM28.502 43.5121C28.502 42.6688 28.502 41.9942 28.502 41.151C28.502 40.4764 28.502 39.6331 28.502 38.9585C26.9841 39.4645 26.6468 42.3315 28.502 43.5121ZM55.8234 43.5121C56.8353 42.8375 57.1726 41.9942 57.1726 40.9823C57.1726 40.1391 56.6667 39.4645 55.8234 38.9585C55.8234 40.4764 55.8234 41.8256 55.8234 43.5121Z" fill="#98050B"/>
<path d="M4.89092 38.9581C3.20442 36.2597 1.68656 33.7299 0.168701 31.0315C1.01196 30.5255 1.68656 30.1882 2.52981 29.6823C3.37307 31.0315 4.21632 32.3807 5.05957 33.8986C8.43259 21.2498 16.0219 12.3113 27.8274 7.25173C36.26 3.71007 44.8612 3.54142 53.631 6.07118C53.2937 6.91443 53.1251 7.75769 52.7878 8.60094C40.3076 5.22792 29.008 7.42039 19.0576 15.8529C12.9862 20.9125 9.10719 28.3331 7.92664 34.0672C9.10719 33.3926 10.2878 32.718 11.4683 31.8748C11.9743 32.718 12.3116 33.3926 12.8175 34.2359C10.1191 35.7537 7.58934 37.2716 4.89092 38.9581Z" fill="#98050B"/>
<path d="M75.8928 31.0319C75.0496 32.5497 74.2063 33.7303 73.5317 35.0795C72.6885 34.5736 72.0139 34.2363 71.1706 33.7303C72.8571 31.0319 74.375 28.5021 75.8928 25.8037C78.5913 27.4902 81.2897 29.0081 83.8194 30.5259C83.3135 31.3692 82.8075 32.0438 82.4702 32.887C81.121 32.0438 79.9405 31.3692 78.5912 30.5259C82.4702 43.6807 80.2778 55.8236 72.0139 66.7859C71.1706 66.1113 70.496 65.6053 69.8214 65.0993C77.5793 54.643 79.6032 43.512 75.8928 31.0319Z" fill="#98050B"/>
<path d="M78.9286 8.26384C73.5318 8.26384 68.1349 8.26384 62.5695 8.26384C62.5695 7.42059 62.5695 6.57733 62.5695 5.56543C67.9663 5.56543 73.3631 5.56543 78.9286 5.56543C78.9286 6.57733 78.9286 7.42059 78.9286 8.26384Z" fill="#98050B"/>
<path d="M73.5318 11.1313C73.5318 11.9746 73.5318 12.8179 73.5318 13.8298C69.8215 13.8298 66.2798 13.8298 62.7382 13.8298C62.7382 12.9865 62.7382 12.1433 62.7382 11.1313C66.2798 11.1313 69.8215 11.1313 73.5318 11.1313Z" fill="#98050B"/>
<path d="M78.9286 11.1313C78.9286 12.1433 78.9286 12.8179 78.9286 13.8298C78.0853 13.8298 77.2421 13.8298 76.3988 13.8298C76.3988 12.9865 76.3988 12.1433 76.3988 11.1313C77.2421 11.1313 78.0853 11.1313 78.9286 11.1313Z" fill="#98050B"/>
</svg>
