<svg width="86" height="85" viewBox="0 0 86 85" fill="none" xmlns="http://www.w3.org/2000/svg">
<path d="M69.9242 60.5408C70.7595 64.3833 69.5065 66.6387 65.7475 67.7246C65.4969 71.8177 64.4945 73.1543 60.9026 74.0731C61.0697 75.8273 60.5685 77.498 59.2319 78.751C57.8119 80.004 56.1412 80.3381 54.3035 79.9205C54.2199 80.1711 54.2199 80.4217 54.1364 80.6723C53.3846 84.3477 49.6256 86.1019 46.2843 84.2642C45.1148 83.5959 44.0289 82.9276 42.943 82.2594C42.6924 82.0923 42.2747 82.0923 42.0241 82.1758C39.3511 83.5959 37.0957 83.1782 35.0909 80.5887C33.6708 81.5076 32.1672 81.7582 30.5801 81.257C28.993 80.6723 27.9906 79.5863 27.4894 77.9992C23.8974 77.9992 22.8115 77.3309 21.5585 74.5743C20.7232 74.4908 19.8878 74.5743 19.136 74.4073C15.9618 73.6555 14.5417 70.3142 16.0453 67.474C16.1289 67.307 16.2124 67.1399 16.2959 67.0564C16.7971 66.3881 16.7971 65.8869 16.3794 65.1351C15.8783 64.2162 15.5441 63.1303 15.2935 62.1279C14.7923 59.956 13.6229 58.2854 11.451 57.3665C9.78034 58.8701 7.94261 58.7866 5.93781 57.7006C4.35068 56.8653 2.76355 56.1971 1.17642 55.4453C0.0904942 54.9441 -0.243638 54.1923 0.174027 53.4405C0.591693 52.6887 1.34349 52.5216 2.34589 52.9393C4.18362 53.7746 5.93781 54.6099 7.77554 55.4453C8.86147 55.9465 9.36267 55.7794 9.9474 54.6935C12.9546 48.2614 16.0453 41.8294 19.0525 35.3138C19.6372 34.1443 19.3866 33.6431 18.2172 33.0584C16.463 32.2231 14.6253 31.3877 12.8711 30.5524C11.8687 30.0512 11.5345 29.2994 11.8687 28.5476C12.2028 27.7958 13.0381 27.5452 14.0405 28.0464C15.7947 28.8817 17.5489 29.7171 19.3866 30.5524C21.3079 31.3877 22.2268 32.8078 22.0597 34.8961C22.0597 34.9796 22.0597 35.1467 22.0597 35.3138C23.7304 35.815 25.4846 35.815 27.2388 35.7314C28.9094 35.5644 30.6636 35.3973 32.3343 35.3138C34.2555 35.1467 36.0097 35.6479 37.5969 36.6503C37.8475 36.8174 38.2651 36.8174 38.5157 36.6503C41.69 34.3949 45.2819 34.4784 48.8738 34.8961C51.3798 35.1467 53.8858 35.4808 56.3918 35.7314C58.8978 35.982 61.2367 35.4808 63.5757 34.6455C63.7427 34.562 63.9933 34.3114 63.9933 34.0608C64.2439 32.5572 65.0793 31.4713 66.4158 30.803C68.337 29.8841 70.2583 28.9653 72.096 28.1299C73.0149 27.7123 73.8502 27.9629 74.1844 28.7147C74.5185 29.4665 74.1844 30.2183 73.2655 30.6359C71.4278 31.5548 69.59 32.3901 67.6688 33.2255C66.6664 33.7266 66.4993 34.2278 66.917 35.2302C70.0077 41.7458 73.0149 48.2614 76.1056 54.8605C76.6068 55.8629 77.108 56.03 78.1104 55.6123C79.9481 54.777 81.7859 53.8581 83.7071 53.0228C84.7095 52.6051 85.4613 52.7722 85.7955 53.6075C86.1296 54.3593 85.7955 55.1111 84.8766 55.5288C82.9553 56.4477 81.0341 57.283 79.1963 58.2018C77.9433 58.7866 76.7739 58.7866 75.5209 58.2018C75.3538 58.1183 75.0197 58.0348 74.8526 58.1183C73.2655 58.7866 71.5948 59.7054 69.9242 60.5408ZM44.0289 79.7534C45.1148 80.4217 46.1172 81.0064 47.1196 81.5911C47.3702 81.7582 47.5373 81.9253 47.7879 81.9253C48.2891 82.0088 48.8738 82.1759 49.375 82.0923C50.3774 81.9253 51.0457 81.257 51.2963 80.1711C51.4634 79.0851 51.0457 78.2498 50.2104 77.6651C49.375 77.0803 48.4562 76.5791 47.5373 75.9944C46.869 75.5767 46.7855 74.8249 47.1196 74.1567C47.4538 73.5719 48.2056 73.3213 48.9574 73.6555C49.208 73.739 49.4586 73.9061 49.7092 74.0731C51.2963 74.992 52.8834 75.9944 54.4705 76.9133C55.64 77.5815 57.0601 77.1639 57.7283 76.0779C58.3966 74.992 58.0625 73.5719 56.9765 72.8201C56.7259 72.6531 56.4753 72.486 56.2247 72.3189C54.6376 71.4001 53.0505 70.4812 51.5469 69.5624C50.7951 69.0612 50.628 68.3094 51.0457 67.6411C51.4634 66.9728 52.2152 66.8058 52.9669 67.2234C53.2176 67.3905 53.4681 67.474 53.7187 67.6411C55.5565 68.727 57.3942 69.813 59.2319 70.8989C60.1508 71.4001 61.0697 71.4001 61.905 70.7318C62.7403 70.1471 63.158 69.2282 62.7403 68.3094C62.4897 67.6411 61.9885 66.9728 61.3203 66.5552C59.5661 65.3857 57.7283 64.3833 55.9741 63.2974C55.2223 62.8797 54.9717 62.0444 55.3894 61.3761C55.8071 60.7078 56.5589 60.5408 57.3942 60.8749C57.5613 60.9584 57.8119 61.1255 57.9789 61.209C59.8167 62.295 61.5709 63.3809 63.4086 64.4668C64.2439 64.968 65.0793 65.0516 65.9146 64.6339C66.7499 64.2162 67.1676 63.548 67.2511 62.6291C67.3346 61.5432 66.917 60.7914 65.9981 60.2066C63.5757 58.7866 61.1532 57.3665 58.7307 55.9465C58.3966 55.7794 58.0625 55.7794 57.6448 55.6959C55.8906 55.6123 54.0529 55.6959 52.2987 55.4453C47.3702 54.8605 43.3606 52.4381 40.0193 48.7626C39.8523 48.5955 39.5181 48.2614 39.4346 48.3449C38.6828 48.6791 37.8475 48.9297 37.2627 49.4309C36.4274 50.1827 35.9262 51.2686 35.1744 52.1039C33.6708 53.8581 31.8331 54.777 29.4106 54.5264C25.5681 54.1923 23.7304 50.3497 25.9022 47.1755C26.654 46.006 27.5729 44.9201 28.2412 43.7506C29.2435 42.08 30.5801 40.827 32.3343 39.9081C33.2531 39.4904 34.0885 38.9057 35.0073 38.321C33.5037 37.6527 32.0837 37.8198 30.6636 37.9033C28.7423 38.0704 26.7376 38.321 24.8163 38.321C23.3962 38.321 22.0597 37.9868 20.5561 37.8198C17.9666 43.333 15.2935 49.0132 12.6205 54.777C16.2959 56.2806 17.4654 59.4548 18.3007 62.8797C19.3866 60.7914 20.7232 59.0372 23.2292 58.9536C25.7352 58.8701 27.3223 60.2066 28.1576 62.462C31.5825 62.295 32.5849 62.9632 34.172 65.9704C35.425 65.7198 36.678 65.8869 37.8475 66.5552C39.0169 67.2234 39.6852 68.2258 40.1029 69.4788C40.3535 69.4788 40.437 69.4788 40.5205 69.4788C42.6088 69.2282 44.2795 69.8965 45.3654 71.6507C46.5349 73.4049 46.3678 75.1591 45.3654 76.9968C45.1148 77.8321 44.6136 78.751 44.0289 79.7534ZM64.9122 37.068C64.6616 37.1515 64.4945 37.1515 64.3275 37.235C61.0697 38.4045 57.7283 38.7386 54.3035 38.2374C51.6304 37.8198 48.8738 37.6527 46.2008 37.4021C44.4466 37.235 42.6924 37.4021 41.1052 38.321C38.2651 39.9916 35.5085 41.6623 32.6684 43.333C32.3343 43.5 32.0837 43.7506 31.8331 44.0848C30.6636 45.6719 29.5777 47.259 28.4918 48.8461C27.4894 50.2662 28.1576 51.6027 29.8283 51.9369C31.0813 52.1039 32.1672 51.6863 33.0861 50.7674C33.4202 50.4333 33.7543 50.0156 34.0885 49.5979C36.1768 46.7578 36.1768 46.7578 39.5181 45.5883C40.437 45.2542 41.0217 45.5048 41.69 46.1731C42.6924 47.3425 43.7783 48.4285 44.9478 49.4309C48.7903 52.6051 53.3011 53.4405 58.146 53.1063C58.9813 53.0228 59.6496 53.1899 60.3179 53.6075C62.1556 54.777 64.1604 55.6959 65.9146 57.0324C67.4182 58.1183 68.8382 58.1183 70.4254 57.3665C71.5948 56.8653 72.6808 56.2806 73.7667 55.6959C70.676 49.2638 67.8358 43.2494 64.9122 37.068ZM32.3343 78.9181C32.8355 78.5839 33.5037 78.4169 33.7543 77.9992C35.0909 75.9109 36.3439 73.739 37.5133 71.5671C38.0145 70.6483 37.5133 69.5623 36.678 69.0611C35.7591 68.56 34.5897 68.727 34.0885 69.5624C32.8355 71.6507 31.4989 73.739 30.413 75.9109C29.6612 77.2474 30.7471 78.8345 32.3343 78.9181ZM26.3199 75.4097C26.7376 75.1591 27.2388 74.992 27.6564 74.7414C27.8235 74.6579 27.907 74.4073 28.0741 74.2402C29.2435 72.3189 30.413 70.3142 31.4989 68.3094C32.0837 67.307 31.7495 66.1375 30.8307 65.5528C29.9118 64.968 28.7423 65.0516 28.1576 65.9704C26.8211 68.0588 25.5681 70.2306 24.3986 72.486C23.7304 73.8225 24.8163 75.3261 26.3199 75.4097ZM25.8187 64.1327C25.8187 62.9632 25.234 62.1279 24.3151 61.8773C23.3962 61.6267 22.4774 61.9608 21.9762 62.8797C20.8902 64.7174 19.8043 66.6387 18.7184 68.4764C18.0501 69.7294 18.2172 70.8989 19.3031 71.4836C20.389 72.1519 21.5585 71.7342 22.3103 70.5648C23.3962 68.727 24.4822 66.9728 25.4846 65.1351C25.6516 64.7174 25.7352 64.2998 25.8187 64.1327ZM43.6948 74.4908C43.6948 73.4049 43.11 72.6531 42.2747 72.4025C41.3559 72.1519 40.437 72.4025 39.9358 73.2378C39.1005 74.5743 38.3487 75.9109 37.5969 77.2474C37.0121 78.2498 37.3463 79.4193 38.2651 80.004C39.184 80.5887 40.437 80.4217 41.0217 79.4193C41.9406 78.0827 42.6924 76.5791 43.5277 75.1591C43.6112 74.9085 43.6112 74.5743 43.6948 74.4908Z" fill="#98050B"/>
<path d="M29.2435 7.33003C29.2435 6.7453 29.2435 6.2441 29.2435 5.65937C29.3271 4.7405 29.8283 4.15577 30.7471 4.15577C35.0073 4.07224 38.8498 2.98631 42.1912 0.313249C42.7759 -0.104416 43.3606 -0.104416 43.9454 0.313249C47.2867 2.98631 51.1292 4.07224 55.3894 4.15577C56.3083 4.15577 56.893 4.65697 56.893 5.57583C56.8095 13.6785 55.0553 21.2801 48.9573 27.1274C47.5373 28.4639 45.7831 29.3828 44.1124 30.4687C43.4442 30.8864 42.6924 30.8028 41.9406 30.4687C37.6804 28.3804 34.6732 24.9555 32.5013 20.6953C30.413 16.5187 29.4941 12.0079 29.2435 7.33003ZM32.1672 6.9959C32.1672 7.2465 32.1672 7.4971 32.1672 7.7477C32.5013 10.1702 32.6684 12.5926 33.3367 14.9315C34.5061 19.5259 36.7615 23.619 40.7711 26.4591C43.4442 28.3804 42.943 28.3804 45.616 26.4591C49.0409 24.0367 51.2127 20.5283 52.5493 16.6022C53.6352 13.5115 54.1364 10.3372 54.2199 6.9959C53.8858 6.91236 53.6352 6.91236 53.3011 6.82883C49.8762 6.4947 46.6184 5.4923 43.7783 3.48751C43.3606 3.15337 43.0265 3.23691 42.6088 3.57104C40.6876 4.90757 38.5157 5.82643 36.1768 6.32763C34.8402 6.57823 33.5037 6.7453 32.1672 6.9959Z" fill="#98050B"/>
<path d="M42.0241 16.2679C43.1936 14.9313 44.3631 13.6783 45.5325 12.5089C45.9502 12.0077 46.5349 11.7571 47.1196 12.1747C47.5373 12.4253 47.8714 13.0101 47.955 13.4277C48.0385 13.7619 47.7044 14.1795 47.4538 14.5137C46.1172 16.0173 44.6972 17.5209 43.3607 19.0245C42.6089 19.8598 41.8571 19.8598 41.0217 19.108C40.3535 18.4397 39.6017 17.7715 38.9334 17.1032C38.2651 16.4349 38.1816 15.5996 38.7663 15.0149C39.3511 14.4301 40.1029 14.4301 40.8547 15.0984C41.1888 15.4325 41.5229 15.8502 42.0241 16.2679Z" fill="#98050B"/>
</svg>
