<svg width="85" height="85" viewBox="0 0 85 85" fill="none" xmlns="http://www.w3.org/2000/svg">
<path d="M0.129376 41.5297C0.64688 39.3303 1.81126 37.3897 2.97565 35.5784C4.52816 33.379 5.04566 31.0502 4.91629 28.3333C4.78691 27.0396 4.78691 25.6164 4.91629 24.3227C5.04566 21.8645 6.33942 19.9239 8.40944 18.6301C9.7032 17.8539 10.997 17.0776 12.2907 16.4307C13.9726 15.5251 15.3957 14.3607 16.3014 12.6788C16.5601 12.2907 17.0776 11.9026 17.4658 11.9026C18.3714 11.7732 18.8889 12.9376 18.3714 13.8432C17.3364 15.6545 16.0426 17.207 14.2314 18.242C12.9376 18.8889 11.7732 19.6651 10.4795 20.312C8.28006 21.347 7.24505 23.2877 7.24505 25.8752C7.24505 27.6865 7.37443 29.4977 7.24505 31.309C7.24505 32.8615 6.59817 34.414 5.69254 35.7078C4.91629 37.0015 4.14003 38.1659 3.36377 39.4597C2.19939 41.5297 2.19939 43.4703 3.36377 45.5403C3.88128 46.446 4.39878 47.3516 4.91629 48.1279C6.72755 50.7154 7.37443 53.5616 7.11568 56.796C6.9863 58.0898 7.11568 59.3836 7.11568 60.6773C7.24505 62.1005 7.89193 63.1355 9.05632 63.9117C10.0913 64.688 11.2557 65.3349 12.4201 65.8524C15.3957 67.2755 17.5951 69.3455 19.0183 72.3212C19.4064 73.2268 19.9239 74.0031 20.4414 74.9087C21.6058 76.8493 23.2877 77.755 25.4871 77.755C27.0396 77.755 28.5921 77.6256 30.0152 77.6256C31.9559 77.6256 33.7671 78.0137 35.449 79.0487C36.7428 79.825 38.0365 80.6012 39.3303 81.3775C41.4003 82.6712 43.4703 82.6712 45.5403 81.3775C46.3166 80.86 47.2222 80.4718 47.9985 79.9543C50.7154 78.0137 53.5616 77.3668 56.9254 77.6256C58.2192 77.755 59.5129 77.6256 60.6773 77.6256C61.9711 77.4962 63.1355 76.8493 63.9117 75.8143C64.688 74.7793 65.3349 73.6149 65.9817 72.4505C67.4049 69.4749 69.4749 67.2755 72.4505 65.8524C73.3562 65.4642 74.1324 64.9467 75.0381 64.4292C76.9787 63.3942 77.8843 61.7123 77.8843 59.5129C77.8843 57.9604 77.755 56.5373 77.755 54.9848C77.755 52.9148 78.2725 51.1035 79.3075 49.2922C79.9543 48.2572 80.6012 47.0928 81.3775 46.0578C82.93 43.7291 82.93 41.2709 81.3775 38.9422C80.9893 38.2953 80.6012 37.519 80.0837 36.8721C78.2725 34.2846 77.6256 31.309 77.8843 28.204C78.0137 26.9102 77.8843 25.6164 77.8843 24.4521C77.7549 23.0289 77.1081 21.8645 75.9437 21.0883C74.7793 20.312 73.6149 19.6651 72.3212 19.0183C69.6043 17.7245 67.5342 15.6545 66.2405 12.9376C65.8524 12.032 65.3349 11.1263 64.8174 10.2207C63.653 8.15069 61.9711 7.24505 59.6423 7.24505C58.2192 7.24505 56.796 7.37443 55.3729 7.37443C53.1735 7.37443 51.2329 6.85693 49.2922 5.69254C47.9985 4.78691 46.7047 4.01065 45.411 3.36377C43.4703 2.19939 41.5297 2.32877 39.7184 3.36377C38.8128 3.88128 37.7778 4.39878 37.0015 5.04566C34.414 6.85693 31.5677 7.50381 28.4627 7.24505C27.169 7.11568 25.8752 7.24505 24.4521 7.24505C23.2877 7.24505 22.382 7.76256 21.6058 8.66819C20.9589 9.44444 20.1826 9.44444 19.6651 8.92694C19.1476 8.40944 19.1476 7.63318 19.7945 6.9863C21.347 5.17504 23.417 4.65753 25.6164 4.65753C27.0396 4.65753 28.4627 4.65753 29.8858 4.78691C31.6971 4.78691 33.2496 4.39878 34.8021 3.49315C35.1903 3.2344 35.5784 3.10502 35.8371 2.84627C37.6484 1.68189 39.4597 0.517504 41.6591 0C42.3059 0 42.9528 0 43.5997 0C44.5053 0.388128 45.411 0.517504 46.3166 1.03501C47.481 1.68189 48.6454 2.32877 49.6804 3.10502C51.621 4.39878 53.8204 5.04566 56.1492 4.91629C57.3135 4.78691 58.4779 4.78691 59.5129 4.78691C62.618 4.78691 65.0761 6.08067 66.6286 8.79757C67.2755 9.83257 67.793 10.8676 68.3105 11.9026C69.3455 14.102 70.898 15.6545 73.0974 16.6895C74.5206 17.3364 75.9437 18.242 77.2374 19.1476C79.0487 20.312 79.9543 22.1233 80.0837 24.1933C80.2131 25.6164 80.2131 27.0396 80.0837 28.4627C79.825 31.0502 80.4718 33.5084 82.0244 35.7078C83.3181 37.519 84.3531 39.4597 84.8706 41.6591C84.8706 42.3059 84.8706 42.9528 84.8706 43.5997C84.3531 44.8935 83.8356 46.3166 83.1887 47.6104C82.6712 48.516 82.0244 49.4216 81.5069 50.3273C80.4718 51.8798 80.0837 53.5616 80.0837 55.5023C80.0837 56.796 80.2131 58.2192 80.2131 59.5129C80.2131 62.7473 78.9193 65.2055 76.0731 66.758C75.0381 67.2755 74.003 67.9224 72.968 68.4399C70.898 69.4749 69.3455 71.0274 68.3105 73.0974C67.6636 74.3912 67.0167 75.5556 66.2405 76.7199C64.9467 78.79 63.0061 79.9543 60.5479 80.2131C59.2542 80.3425 57.8311 80.3425 56.5373 80.2131C53.8204 79.9543 51.4916 80.4718 49.2922 82.1537C47.481 83.4475 45.5403 84.4825 43.3409 85C42.6941 85 42.0472 85 41.4003 85C39.2009 84.4825 37.2603 83.3181 35.3196 82.0244C35.0609 81.895 34.8021 81.6362 34.414 81.5069C32.9909 80.6012 31.309 80.0837 29.4977 80.2131C28.204 80.2131 26.7808 80.3425 25.4871 80.3425C22.1233 80.3425 19.6651 79.0487 18.1126 76.0731C17.5951 75.0381 16.9483 74.1324 16.5601 73.0974C15.5251 71.0274 13.9726 69.4749 11.9026 68.4399C10.6088 67.793 9.44444 67.1461 8.28006 66.3699C6.21005 65.0761 5.04566 63.1355 4.78691 60.6773C4.65753 59.3836 4.65753 57.9604 4.78691 56.6667C5.04566 54.0792 4.39878 51.621 2.84627 49.4216C1.55251 47.6104 0.517504 45.6697 0 43.4703C0.129376 42.8234 0.129376 42.1766 0.129376 41.5297Z" fill="#98050B"/>
<path d="M42.5646 59.9013C33.6377 59.772 26.0045 52.7857 25.3576 43.8587C24.7108 34.9318 31.0502 26.7811 39.8477 25.4873C44.764 24.7111 49.1628 25.8755 53.1735 28.8511C53.5616 29.1099 53.8203 29.6274 53.9497 30.0155C54.0791 30.9211 53.0441 31.568 52.1385 31.0505C51.8797 30.9211 51.7503 30.7918 51.4916 30.533C46.3165 27.0399 40.8828 26.5223 35.449 29.6274C30.0152 32.7324 27.4277 37.6487 27.9452 43.8587C28.4627 51.2332 34.8021 57.1845 42.0471 57.3138C49.8097 57.4432 56.2785 52.1388 57.3135 44.5056C57.7016 41.4006 57.1841 38.4249 55.761 35.5787C55.6316 35.4493 55.6316 35.1905 55.5022 35.0612C55.2435 34.4143 55.3729 33.638 56.0197 33.3793C56.6666 32.9911 57.3135 33.2499 57.7016 33.8968C58.7366 35.708 59.5129 37.6487 59.7716 39.8481C61.0654 48.9044 55.5022 57.1844 46.5753 59.2545C45.2815 59.6426 43.8584 59.6426 42.5646 59.9013Z" fill="#98050B"/>
<path d="M40.8828 49.9389C44.6347 46.187 48.2572 42.5644 51.8798 38.9419C51.1035 38.1657 50.1979 37.26 49.2922 36.3544C49.1629 36.4838 48.9041 36.7425 48.7747 36.8719C46.7047 38.9419 44.5053 41.1413 42.4353 43.2113C41.5297 44.117 41.0122 44.117 40.1065 43.2113C38.8128 41.9176 37.519 40.6238 36.3546 39.4594C35.449 40.365 34.5434 41.2707 33.5084 42.3057C34.0259 42.6938 34.6728 43.3407 35.3196 43.8582C35.9665 44.5051 36.0959 45.2813 35.5784 45.7988C35.0609 46.3163 34.2846 46.3163 33.6377 45.5401C32.7321 44.6345 31.9559 43.8582 31.0502 42.9526C30.4033 42.3057 30.4033 41.6588 31.0502 40.8826C32.4734 39.4594 33.7671 38.0363 35.1903 36.7425C35.9665 35.9663 36.484 35.9663 37.2603 36.7425C38.554 38.0363 39.9772 39.4594 41.5297 41.0119C41.6591 40.7532 41.7884 40.365 42.0472 40.1063C44.2466 37.9069 46.3166 35.8369 48.516 33.6375C49.4216 32.8612 49.9391 32.7319 50.7154 33.6375C52.0091 34.9313 53.4323 36.3544 54.726 37.6482C55.5023 38.4244 55.5023 39.0713 54.726 39.8475C50.586 43.9876 46.5753 47.9982 42.4353 52.1383C41.6591 52.9145 41.0122 52.9145 40.2359 52.1383C39.4597 51.362 38.8128 50.7151 38.0365 49.9389C37.3896 49.292 37.3896 48.5157 37.9072 47.9982C38.4247 47.4807 39.2009 47.6101 39.7184 48.1276C39.9772 48.3864 40.2359 48.6451 40.4947 48.9039C40.4947 49.4214 40.624 49.6801 40.8828 49.9389Z" fill="#98050B"/>
<path d="M31.1795 20.1827C30.4033 20.7002 29.627 21.0884 28.8508 21.4765C29.4977 22.2528 30.0152 23.029 30.5327 23.9346C31.0502 24.7109 31.0502 25.4872 30.4033 25.8753C29.7564 26.2634 29.1095 26.134 28.4626 25.3578C27.2983 23.8053 26.1339 22.2528 25.0989 20.7002C24.0639 19.4065 23.9345 17.9833 24.8401 16.5602C25.7458 15.0077 27.0395 14.2314 28.8508 14.2314C30.5327 14.2314 31.697 15.1371 32.3439 16.5602C33.1202 18.3715 34.0258 20.1827 34.8021 21.994C35.0608 22.6409 35.0608 23.1584 34.5433 23.5465C34.0258 23.9346 33.5083 23.9346 33.1202 23.5465C32.8614 23.4171 32.7321 23.029 32.6027 22.7703C32.0852 21.994 31.697 21.0884 31.1795 20.1827ZM27.4276 19.4065C28.3333 18.889 29.2389 18.3715 30.1445 17.854C29.8858 17.0777 29.4977 16.6896 28.8508 16.5602C28.0745 16.5602 27.4276 16.9483 27.0395 17.5952C26.6514 18.2421 26.9101 18.889 27.4276 19.4065Z" fill="#98050B"/>
<path d="M45.9284 65.3351C45.9284 65.982 46.0578 66.4995 46.1872 67.2758C47.2222 67.017 48.2572 66.8877 49.2922 66.6289C49.5509 66.6289 49.8097 66.4995 50.0684 66.3701C50.8447 66.2408 51.3622 66.4995 51.621 67.2758C51.7503 67.9227 51.4916 68.5695 50.8447 68.8283C49.6803 69.2164 48.3866 69.4752 47.0928 69.7339C46.9634 69.7339 46.834 69.7339 46.5753 69.8633C46.5753 70.5102 46.7047 71.1571 46.7047 71.9333C48.1278 71.6746 49.4216 71.4158 50.8447 71.0277C52.1385 70.6396 52.7853 70.8983 53.0441 71.8039C53.3028 72.5802 52.7853 73.2271 51.621 73.4858C49.8097 73.874 47.8691 74.2621 46.0578 74.5208C45.0228 74.6502 44.6347 74.2621 44.5053 73.2271C44.2465 70.3808 43.9878 67.5345 43.729 64.6883C43.5996 63.7826 44.1172 63.2651 45.0228 63.1357C46.3165 62.877 47.6103 62.6182 48.9041 62.3595C49.6803 62.2301 50.3272 62.4889 50.5859 63.1357C50.8447 63.7826 50.4566 64.4295 49.5509 64.6883C48.1278 64.8176 47.0928 65.0764 45.9284 65.3351Z" fill="#98050B"/>
<path d="M60.9361 25.3577C60.4186 25.8752 60.0305 26.3927 59.513 26.7809C60.1599 27.5571 60.8067 28.4627 61.4536 29.239C61.9711 30.0153 61.9711 30.7915 61.3242 31.1796C60.6774 31.6971 60.0305 31.4384 59.3836 30.6621C58.6073 29.7565 57.8311 28.7215 56.9255 27.8159C56.1492 27.0396 56.1492 26.5221 56.9255 25.6165C58.8661 23.5465 60.8067 21.6058 62.8767 19.5358C63.653 18.7595 64.2999 18.7595 64.9468 19.5358C66.2405 21.0883 67.5343 22.6408 68.828 24.1933C69.3455 24.8402 69.3455 25.6165 68.6987 26.134C68.0518 26.5221 67.4049 26.3927 66.8874 25.7459C65.9818 24.5815 65.0761 23.2877 64.0411 22.1233C63.5236 22.6408 63.0061 23.1583 62.618 23.5465C63.3942 24.5815 64.2999 25.6165 65.0761 26.6515C65.723 27.4277 65.5936 28.204 64.9468 28.7215C64.2999 29.1096 63.653 28.9802 63.0061 28.204C62.4886 27.2984 61.7124 26.3927 60.9361 25.3577Z" fill="#98050B"/>
<path d="M53.5617 62.8767C53.8204 63.3942 54.0792 64.0411 54.4673 64.688C55.6317 63.9117 56.6667 63.2648 57.7017 62.6179C58.6073 62.1004 59.513 62.3592 59.7717 63.2648C59.9011 63.9117 59.6423 64.2998 59.1248 64.688C57.9604 65.4642 56.7961 66.2405 55.6317 67.0167C55.8904 67.5342 56.1492 68.1811 56.5373 68.828C57.7017 68.1811 58.7367 67.4048 59.7717 66.758C60.0305 66.6286 60.2892 66.3698 60.548 66.2405C61.1948 65.8523 61.8417 65.9817 62.3592 66.4992C62.7474 67.0167 62.7474 67.793 62.1005 68.3105C60.6773 69.2161 59.2542 70.2511 57.8311 71.0274C55.5023 72.3211 55.3729 72.1918 54.3379 69.863C53.3029 67.6636 52.2679 65.4642 51.2329 63.3942C50.7154 62.2298 50.8448 61.8417 52.0091 61.1948C53.0442 60.5479 54.0792 59.901 55.1142 59.2542C55.8904 58.7367 56.5373 58.7367 57.0548 59.3835C57.5723 60.0304 57.3136 60.8067 56.5373 61.3242C55.3729 61.7123 54.4673 62.2298 53.5617 62.8767Z" fill="#98050B"/>
<path d="M41.5294 68.8277C42.5644 70.3802 42.1763 72.0621 41.9176 73.6146C41.7882 74.2615 41.2707 74.6496 40.6238 74.5202C39.9769 74.3909 39.5888 74.0027 39.4594 73.2265C39.4594 72.5796 39.5888 71.8033 39.5888 71.1565C39.5888 70.2508 39.33 69.8627 38.4244 69.7333C37.7775 69.6039 37.1307 69.4746 36.4838 69.3452C36.225 70.3802 35.9663 71.2858 35.7075 72.3208C35.4488 73.2265 34.8019 73.6146 34.0256 73.4852C33.2494 73.2265 32.9906 72.709 33.2494 71.8033C34.0256 69.0864 34.8019 66.2402 35.5781 63.5233C35.8369 62.6176 36.3544 62.3589 37.26 62.4883C37.9069 62.6176 38.6832 62.747 39.33 62.8764C42.0469 63.3939 43.2113 66.2402 41.6588 68.5689C41.6588 68.5689 41.6588 68.5689 41.5294 68.8277ZM37.26 67.0164C37.9069 67.1458 38.4244 67.2752 38.9419 67.2752C39.4594 67.4046 39.8475 67.1458 39.8475 66.6283C39.8475 66.2402 39.5888 65.5933 39.33 65.4639C38.9419 65.2052 38.295 65.2052 37.7775 65.0758C37.5188 65.7227 37.3894 66.2402 37.26 67.0164Z" fill="#98050B"/>
<path d="M20.4413 26.0047C21.0882 25.2285 21.7351 24.4522 22.5114 23.5466C21.8645 22.7703 21.0882 22.1235 20.4413 21.3472C19.7945 20.571 19.6651 19.9241 20.312 19.4066C20.8295 18.8891 21.6057 18.8891 22.2526 19.6653C24.1932 21.7353 26.1339 23.676 28.2039 25.746C28.8508 26.3929 28.8508 27.1691 28.3333 27.6866C27.8158 28.2041 27.0395 28.0748 26.3926 27.4279C25.7458 26.781 24.9695 26.1341 24.1932 25.3579C23.6757 26.0047 23.1582 26.6516 22.5114 27.2985C23.1582 27.816 23.8051 28.2041 24.452 28.5923C24.7107 28.7216 24.9695 28.9804 25.2282 29.1098C25.7458 29.6273 25.8751 30.1448 25.487 30.7916C25.0989 31.3092 24.452 31.5679 23.9345 31.1798C23.1582 30.7917 22.5114 30.2741 21.7351 29.7566C20.0532 28.5923 18.2419 27.4279 16.5601 26.2635C15.7838 25.746 15.5251 24.9697 15.9132 24.3229C16.3013 23.676 17.0776 23.676 17.8538 24.1935C18.8888 24.9697 19.6651 25.4872 20.4413 26.0047Z" fill="#98050B"/>
<path d="M38.1659 10.7383C38.6834 10.8677 39.0715 10.8677 39.4596 10.997C40.2359 11.2558 40.4946 11.9027 40.2359 12.5495C40.1065 13.1964 39.4596 13.4552 38.6834 13.3258C38.0365 13.3258 37.2602 13.3258 36.6134 13.4552C36.2252 13.5846 35.8371 14.2314 35.8371 14.4902C35.9665 14.8783 36.484 15.1371 36.8721 15.3958C37.1309 15.5252 37.519 15.3958 37.7777 15.2664C39.7184 14.8783 41.4003 15.9133 41.7884 17.854C42.1765 19.6652 41.1415 21.6059 39.3303 22.1234C38.2952 22.3821 37.2602 22.5115 36.2252 21.994C35.449 21.6059 35.1902 20.959 35.5784 20.3121C35.8371 19.6652 36.484 19.5358 37.2602 19.7946C38.2953 20.1827 39.0715 19.924 39.2009 19.1477C39.4596 18.3715 38.9421 17.854 38.1659 17.854C37.6484 17.854 37.0015 17.9833 36.484 17.9833C34.9315 17.9833 33.379 16.6896 33.1202 15.1371C32.8615 13.4552 33.7671 11.9027 35.449 11.2558C36.6134 10.997 37.3896 10.8677 38.1659 10.7383Z" fill="#98050B"/>
<path d="M47.2222 10.6089C48.2572 10.8676 49.2922 11.1264 50.1979 11.5145C50.9741 11.9026 51.2329 12.6789 50.8448 13.3258C50.4566 13.9727 49.8097 14.102 49.0335 13.7139C48.516 13.4552 47.8691 13.3258 47.2222 13.1964C46.7047 13.067 46.0578 13.3258 46.1872 13.9727C46.1872 14.3608 46.5754 14.7489 46.9635 15.137C47.2222 15.2664 47.6104 15.2664 47.8691 15.3958C49.8098 15.7839 50.9741 17.3364 50.7154 19.1477C50.4566 21.0883 48.9041 22.3821 46.9635 22.3821C45.7991 22.3821 44.8935 21.994 44.1172 21.0883C43.5997 20.4415 43.5997 19.6652 44.1172 19.2771C44.6347 18.7596 45.2816 18.8889 45.9285 19.4065C46.7047 20.1827 47.7397 20.0533 48.1279 19.2771C48.3866 18.6302 48.2572 18.1127 47.6104 17.9833C47.3516 17.8539 46.9635 17.8539 46.7047 17.8539C44.8935 17.4658 43.4703 15.6545 43.7291 13.9727C43.7291 12.032 45.1522 10.7383 47.2222 10.6089Z" fill="#98050B"/>
<path d="M12.032 47.0931C12.032 44.5056 14.102 42.4355 16.6895 42.4355C19.277 42.4355 21.3471 44.6349 21.3471 47.2225C21.3471 49.81 19.277 51.88 16.6895 51.88C14.102 51.7506 12.032 49.6806 12.032 47.0931ZM16.6895 44.8937C15.5251 44.8937 14.4901 45.7993 14.4901 47.0931C14.4901 48.2575 15.3958 49.2925 16.6895 49.2925C17.8539 49.2925 18.8889 48.2575 18.8889 47.0931C18.8889 45.9287 17.8539 44.8937 16.6895 44.8937Z" fill="#98050B"/>
<path d="M63.9117 47.0931C63.9117 44.5056 65.9818 42.4355 68.5693 42.4355C71.1568 42.4355 73.2268 44.5056 73.2268 47.0931C73.2268 49.6806 71.1568 51.7506 68.5693 51.7506C66.1111 51.7506 63.9117 49.6806 63.9117 47.0931ZM70.7687 47.0931C70.7687 45.9287 69.7337 44.8937 68.5693 44.8937C67.4049 44.8937 66.3699 45.9287 66.3699 47.0931C66.3699 48.2575 67.4049 49.2925 68.5693 49.2925C69.7337 49.2925 70.7687 48.2575 70.7687 47.0931Z" fill="#98050B"/>
<path d="M30.4034 62.1003C30.0153 62.6178 29.6271 63.1353 29.239 63.7822C30.4034 64.2997 31.4384 64.8172 32.4734 65.464C32.8615 65.5934 33.2497 65.9815 33.3791 66.2403C33.5084 66.6284 33.379 67.1459 33.1203 67.5341C32.8615 68.0516 32.2147 68.0516 31.6972 67.7928C30.4034 67.1459 29.1096 66.4991 27.8159 65.8522C27.2984 66.6284 26.6515 67.4047 26.134 68.1809C25.6165 68.9572 24.8402 69.2159 24.1934 68.6984C23.5465 68.3103 23.5465 67.5341 24.064 66.7578C25.7459 64.429 27.2984 62.1003 28.9803 59.9009C29.6271 58.9952 30.1446 58.9952 31.0503 59.5127C32.0853 60.1596 33.2497 60.8065 34.2847 61.324C35.1903 61.8415 35.4491 62.4884 35.0609 63.1353C34.6728 63.7822 34.0259 64.0409 33.2497 63.6528C32.2147 63.0059 31.309 62.6178 30.4034 62.1003Z" fill="#98050B"/>
<path d="M53.1735 21.9937C54.0792 22.6406 54.9848 23.1581 55.8904 23.6756C56.6667 24.1931 56.7961 24.9694 56.4079 25.6163C56.0198 26.2631 55.2435 26.2631 54.4673 25.7456C53.4323 25.0988 52.3973 24.4519 51.2329 23.9344C50.3273 23.4169 50.0685 22.8994 50.4566 21.8644C51.621 19.2768 52.7854 16.6893 53.9498 14.1018C54.3379 13.1962 54.9848 12.9374 55.6317 13.1962C56.4079 13.4549 56.5373 14.2312 56.1492 15.1368C55.2435 17.3362 54.2085 19.665 53.1735 21.9937Z" fill="#98050B"/>
</svg>
