<svg width="85" height="85" viewBox="0 0 85 85" fill="none" xmlns="http://www.w3.org/2000/svg">
<path d="M28.6252 39.1998C32.0082 39.1998 35.261 39.0697 38.5139 39.1998C41.3764 39.33 43.0679 42.5828 42.027 45.1851C41.8969 45.4453 41.7668 45.7056 41.6367 45.9658C44.3691 48.0476 44.4992 51.9511 40.9861 54.0329C42.027 56.6352 41.3764 58.717 39.2946 60.0182C39.2946 61.3193 39.5548 62.4903 39.2946 63.6614C39.0344 65.483 37.473 66.7841 35.6514 66.9142C34.09 67.0444 32.3985 67.0444 30.8372 67.0444C28.8854 66.9142 27.0638 67.3046 25.2422 67.5648C22.3797 67.9552 19.5172 68.4756 16.5245 67.8251C14.4427 67.4347 12.7512 66.5239 11.1899 65.2228C10.6694 64.8324 10.1489 64.7023 9.62848 64.7023C7.02619 64.7023 4.4239 64.7023 1.8216 64.7023C0.390344 64.7023 0 64.1818 0 62.8807C0 55.9846 0 48.9584 0 42.0624C0 40.6311 0.390344 40.2408 1.8216 40.2408C4.55401 40.2408 7.1563 40.2408 9.88871 40.2408C10.2791 40.2408 10.6694 40.1106 11.0597 39.8504C12.491 38.9396 13.7921 37.8987 15.0933 36.8578C17.4354 35.0362 18.6064 32.6941 18.4763 29.7015C18.3462 28.01 18.4763 26.1884 18.4763 24.4969C18.4763 23.0656 18.9967 22.6753 20.428 22.6753C25.3723 23.0656 29.0155 26.9691 29.1457 32.0435C29.1457 33.2146 29.1457 34.3856 29.1457 35.5566C29.1457 36.2072 29.1457 36.8578 29.1457 37.3782C29.0155 38.0288 28.7553 38.5493 28.6252 39.1998ZM21.2087 25.6679C21.2087 27.0992 21.2087 28.4003 21.2087 29.8316C21.3388 33.4748 19.9075 36.4674 17.045 38.8095C15.7439 39.9805 14.1825 40.8913 12.8813 42.0624C12.6211 42.1925 12.3609 42.5828 12.3609 42.9732C12.3609 49.4789 12.3609 55.9846 12.3609 62.4904C12.3609 62.7506 12.491 63.1409 12.7512 63.271C13.9223 64.312 15.2234 64.9625 16.7848 65.3529C19.9075 66.1336 22.9002 65.3529 25.8928 64.9625C25.7627 63.9216 25.5025 63.0108 25.6326 62.1C25.7627 61.1892 26.2831 60.4085 26.6735 59.4977C25.3723 57.8062 25.2422 55.9846 26.153 54.163C25.5025 53.3823 24.982 52.7318 24.3314 51.9511C23.811 52.3414 23.1604 52.7318 22.6399 53.1221C21.7291 53.6426 20.9484 53.5124 20.428 52.8619C20.0376 52.0812 20.2979 51.4306 21.0786 50.78C21.9894 50.1295 23.0303 49.3488 23.811 48.5681C25.6326 46.7465 25.7627 44.6647 24.4615 42.4527C23.811 41.4118 23.811 41.1516 24.7218 40.1106C25.5025 39.1998 26.153 38.1589 26.2831 36.9879C26.2831 35.2964 26.2831 33.6049 26.2831 31.9134C26.2831 28.7907 24.0712 26.0583 21.2087 25.6679ZM9.62848 42.9732C7.28642 42.9732 5.07447 42.9732 2.73241 42.9732C2.73241 49.3488 2.73241 55.5943 2.73241 61.9699C5.07447 61.9699 7.28642 61.9699 9.62848 61.9699C9.62848 55.5943 9.62848 49.3488 9.62848 42.9732ZM34.09 48.1778C32.3985 48.1778 30.707 48.1778 29.0155 48.1778C27.8445 48.1778 27.0638 48.9584 27.0638 49.8692C27.0638 50.9102 27.8445 51.6908 29.0155 51.6908C32.3985 51.6908 35.7815 51.6908 39.1645 51.6908C40.3355 51.6908 41.1162 50.9102 41.1162 49.8692C41.1162 48.8283 40.3355 48.0476 39.0344 48.0476C37.3429 48.1777 35.7815 48.1778 34.09 48.1778ZM34.09 41.8021C32.7889 41.8021 31.4877 41.8021 30.3167 41.8021C29.1457 41.8021 28.365 42.4527 28.365 43.4936C28.365 44.5345 29.1457 45.3152 30.3167 45.3152C32.7889 45.3152 35.3912 45.3152 37.8633 45.3152C39.0344 45.3152 39.8151 44.5345 39.8151 43.4936C39.8151 42.4527 39.0344 41.8021 37.8633 41.8021C36.5622 41.8021 35.261 41.8021 34.09 41.8021ZM33.5696 58.0665C34.6105 58.0665 35.7815 58.0665 36.8224 58.0665C38.1236 58.0665 38.9043 57.2858 38.7741 56.2449C38.7741 55.2039 37.9935 54.5534 36.8224 54.5534C34.6105 54.5534 32.5286 54.5534 30.3167 54.5534C29.0155 54.5534 28.2349 55.2039 28.2349 56.375C28.2349 57.4159 29.0155 58.1966 30.3167 58.1966C31.4877 58.0665 32.5286 58.0665 33.5696 58.0665ZM32.6588 60.7989C31.748 60.7989 30.9673 60.7989 30.0565 60.7989C29.0155 60.7989 28.365 61.5796 28.2349 62.4904C28.2349 63.4012 28.8854 64.312 29.9263 64.312C31.6178 64.312 33.4394 64.312 35.1309 64.312C36.1718 64.312 36.9525 63.4012 36.8224 62.4904C36.8224 61.5796 36.0417 60.7989 35.0008 60.7989C34.3502 60.7989 33.5696 60.7989 32.6588 60.7989Z" fill="#98050B"/>
<path d="M66.4886 61.7097C74.0352 64.0518 79.3699 68.7359 82.7529 75.7621C83.7938 78.1042 84.4444 80.5763 84.8347 83.0485C84.9648 84.3497 84.4444 85.0002 83.1432 85.0002C78.329 85.0002 73.6449 85.0002 68.8306 85.0002C57.901 85.0002 47.1015 85.0002 36.1719 85.0002C34.6105 85.0002 34.09 84.4798 34.3503 82.9184C36.0418 72.3791 42.027 65.3529 52.0459 61.8398C52.176 61.8398 52.4362 61.7097 52.6964 61.5796C48.2725 58.587 45.9305 54.5534 46.0606 49.3488C46.1907 45.5755 47.7521 42.3227 50.4845 39.8505C55.9493 34.9061 64.5369 35.2965 69.6113 40.7613C74.8159 46.6164 74.5557 56.7654 66.4886 61.7097ZM81.8421 82.2678C80.4108 72.8996 71.563 63.141 58.6817 63.6614C46.0606 64.1819 38.3838 74.2007 37.3429 82.2678C52.176 82.2678 67.009 82.2678 81.8421 82.2678ZM59.4624 60.7989C65.4477 60.7989 70.2619 55.9847 70.2619 50.1295C70.2619 44.1443 65.4477 39.1999 59.4624 39.1999C53.6072 39.1999 48.6629 44.0141 48.6629 49.9994C48.793 55.8546 53.6072 60.7989 59.4624 60.7989Z" fill="#98050B"/>
<path d="M70.1318 16.82C70.5221 25.6678 63.4959 33.4746 54.7783 34.2553C52.6964 34.3854 50.6146 34.2553 48.6629 33.7349C48.2725 33.6047 47.7521 33.6047 47.3617 33.7349C44.6293 34.3854 41.7668 35.1661 39.0344 35.9468C37.473 36.3372 36.6923 35.5565 37.0827 33.9951C37.6031 31.9133 38.2537 29.8314 38.7742 27.6195C38.9043 27.2291 38.7742 26.5786 38.6441 26.1882C35.2611 20.3331 35.0009 14.2177 38.5139 8.36252C42.027 2.50736 47.3617 -0.355156 54.2578 0.0351873C62.8454 0.555646 69.7414 7.84206 70.1318 16.82ZM40.2054 32.8241C40.5958 32.6939 40.856 32.6939 41.1162 32.5638C43.1981 32.0434 45.1498 31.3928 47.2316 31.0025C47.7521 30.8723 48.4026 30.8723 48.9231 31.0025C58.0311 33.6047 66.6187 27.4894 67.3994 18.1211C68.1801 9.01309 59.5925 1.33633 50.4845 3.02782C40.0753 5.10966 35.2611 16.6899 41.2464 25.4075C41.7668 26.0581 41.7668 26.7087 41.6367 27.4894C41.1162 29.311 40.7259 31.0025 40.2054 32.8241Z" fill="#98050B"/>
<path d="M50.3543 20.2029C52.176 18.5114 53.9976 16.9501 55.8192 15.2586C57.1203 14.0875 58.4215 12.9165 59.7226 11.7455C60.5033 10.9648 61.284 10.9648 61.9345 11.6154C62.5851 12.2659 62.455 13.0466 61.5442 13.8273C58.1612 16.8199 54.9084 19.8126 51.5254 22.8052C50.6146 23.716 49.964 23.716 49.0532 22.8052C47.7521 21.5041 46.4509 20.2029 45.1498 18.9018C44.3691 18.1211 44.3691 17.3404 45.0196 16.6898C45.6702 16.1694 46.3208 16.1694 47.1015 16.9501C48.2725 17.991 49.3134 19.0319 50.3543 20.2029Z" fill="#98050B"/>
</svg>
