<svg width="38" height="23" viewBox="0 0 38 23" fill="none" xmlns="http://www.w3.org/2000/svg">
<g clip-path="url(#clip0_166_8615)">
<path opacity="0.07" d="M35 0H3C1.3 0 0 1.24583 0 2.875V20.125C0 21.7542 1.4 23 3 23H35C36.7 23 38 21.7542 38 20.125V2.875C38 1.24583 36.6 0 35 0Z" fill="black"/>
<path d="M34.9998 0.958496C36.0998 0.958496 36.9998 1.821 36.9998 2.87516V20.1252C36.9998 21.1793 36.0998 22.0418 34.9998 22.0418H2.99976C1.89976 22.0418 0.999756 21.1793 0.999756 20.1252V2.87516C0.999756 1.821 1.89976 0.958496 2.99976 0.958496H34.9998Z" fill="white"/>
<g clip-path="url(#clip1_166_8615)">
<path d="M6.80115 7.66213C7.09497 7.51138 7.43097 7.57226 7.7466 7.56646C8.46951 7.58531 9.19387 7.54907 9.91678 7.58096C10.2426 7.57951 10.5219 7.84913 10.567 8.16369C10.7939 9.25957 11.0019 10.3598 11.2244 11.4586C10.8564 10.1714 9.88478 9.12041 8.74297 8.45215C8.13933 8.09121 7.46587 7.88102 6.80115 7.66213Z" fill="#F4A929"/>
<path d="M13.0908 7.56982C13.7177 7.57707 14.3432 7.57417 14.9686 7.56982C14.0173 9.83552 13.1301 12.1273 12.1584 14.3843C11.5475 14.3655 10.9366 14.3742 10.3257 14.3742C9.78462 12.4042 9.27989 10.424 8.74316 8.45262C9.88498 9.12087 10.8566 10.1718 11.2246 11.459C11.2799 11.7084 11.3192 11.9635 11.3672 12.2157C11.9373 10.6661 12.5148 9.11798 13.0908 7.56982Z" fill="#1B4DA2"/>
<path d="M15.6711 7.56689C16.2602 7.57124 16.8493 7.57124 17.4384 7.56689C17.0762 9.83694 16.6951 12.1041 16.3417 14.3756C15.7555 14.377 15.1693 14.377 14.5817 14.3756C14.9191 12.1026 15.3162 9.83839 15.6711 7.56689Z" fill="#1B4DA2"/>
<path d="M19.1138 7.99481C20.1698 7.30336 21.5502 7.32365 22.7182 7.70634C22.6644 8.20934 22.58 8.708 22.4927 9.20521C21.8716 8.90804 21.1473 8.77613 20.4724 8.94863C20.1538 9.02401 19.8396 9.41829 20.1044 9.71401C20.6484 10.2692 21.5051 10.3953 22.0171 10.9998C22.6106 11.5782 22.5887 12.5523 22.1844 13.2292C21.7567 13.9439 20.9335 14.3179 20.132 14.4251C19.2258 14.5194 18.2818 14.4628 17.4324 14.1135C17.5226 13.6061 17.5982 13.0959 17.6898 12.5885C18.4244 12.9669 19.2767 13.1568 20.0956 12.9756C20.3735 12.8828 20.66 12.6552 20.6353 12.3305C20.5436 11.9435 20.1378 11.7782 19.8222 11.6028C19.2098 11.3027 18.5509 10.9346 18.276 10.275C17.9342 9.44149 18.3866 8.46592 19.1138 7.99481Z" fill="#1B4DA2"/>
<path d="M24.9075 8.26433C25.0253 7.95122 25.258 7.61057 25.626 7.59173C26.1671 7.55404 26.7111 7.58593 27.2522 7.57578C27.7366 9.84292 28.205 12.1115 28.682 14.3787C28.138 14.3801 27.594 14.3801 27.05 14.3816C26.973 14.0409 26.9002 13.6988 26.8304 13.3553C26.0755 13.3553 25.322 13.3567 24.5686 13.3524C24.4479 13.6959 24.3228 14.0395 24.1933 14.3801C23.5766 14.3801 22.9599 14.3801 22.3431 14.3816C23.1955 12.342 24.0566 10.3053 24.9075 8.26433Z" fill="#1B4DA2"/>
<path d="M25.0825 11.9523C25.4112 11.1101 25.6803 10.2433 26.0483 9.41699C26.1574 10.2722 26.3712 11.1101 26.5472 11.9538C26.0585 11.9538 25.5712 11.9538 25.0825 11.9523Z" fill="white"/>
</g>
</g>
<defs>
<clipPath id="clip0_166_8615">
<rect width="38" height="23" fill="white"/>
</clipPath>
<clipPath id="clip1_166_8615">
<rect width="24.1818" height="10.35" fill="white" transform="translate(6.90906 5.75)"/>
</clipPath>
</defs>
</svg>
